<?xml version="1.0" encoding="UTF-8" standalone="no"?><!DOCTYPE svg PUBLIC "-//W3C//DTD SVG 1.1//EN" "http://www.w3.org/Graphics/SVG/1.1/DTD/svg11.dtd"><svg width="100%" height="100%" viewBox="0 0 267 267" version="1.1" xmlns="http://www.w3.org/2000/svg" xmlns:xlink="http://www.w3.org/1999/xlink" xml:space="preserve" xmlns:serif="http://www.serif.com/" style="fill-rule:evenodd;clip-rule:evenodd;stroke-linejoin:round;stroke-miterlimit:2;"><path d="M131.25,8.333c-27.075,0 -49.482,20.118 -51.847,45.826c-5.172,-0.033 -9.291,-0.236 -13.192,1.912c-2.073,1.142 -3.792,3.176 -4.671,5.501c-0.879,2.325 -1.148,4.888 -1.148,7.984c-0.001,0.649 0.149,1.29 0.44,1.871c2.524,5.033 3.455,10.112 3.231,13.371c-0.099,1.434 -0.437,2.377 -0.684,2.857c-6.644,-2.546 -13.723,-1.474 -19.157,0.439c-2.973,1.047 -5.475,2.331 -7.406,3.809c-0.965,0.739 -1.809,1.474 -2.547,2.693c-0.369,0.61 -0.741,1.382 -0.83,2.466c-0.021,0.263 0.221,0.548 0.252,0.838c-0.014,0.027 -0.054,0.168 -0.244,0.538c-0.465,0.908 -1.404,2.425 -2.62,4.207c-2.432,3.563 -5.965,8.282 -9.473,13.094c-3.507,4.812 -6.989,9.715 -9.481,13.932c-1.245,2.109 -2.253,4.012 -2.905,5.908c-0.652,1.897 -1.503,4.301 0.505,6.967c0.447,0.594 1.046,1.058 1.733,1.342c10.031,4.165 15.397,8.642 18.441,12.907c3.044,4.266 3.946,8.493 4.378,12.98c0.432,4.488 0.174,9.132 1.611,13.843c1.407,4.611 5.21,8.932 11.516,11.011c1.082,0.458 2.057,1.569 2.864,3.776c0.808,2.207 1.257,5.253 1.392,8.26c0.269,6.014 -0.61,11.703 -0.61,11.703c-0.201,1.264 0.193,2.553 1.066,3.491c-0,-0 4.822,5.165 10.074,10.099c2.627,2.467 5.342,4.875 7.813,6.665c1.235,0.895 2.372,1.646 3.695,2.205c0.661,0.28 1.381,0.535 2.36,0.611c0.974,0.075 2.412,-0.111 3.613,-1.05c-1.128,0.886 -0.698,0.307 0.431,0.35c1.145,0.044 2.915,0.277 4.981,0.667c4.131,0.781 9.493,2.155 14.811,3.548c5.318,1.393 10.591,2.808 14.819,3.695c2.114,0.444 3.934,0.764 5.599,0.863c0.833,0.049 1.619,0.065 2.588,-0.122c0.969,-0.188 2.566,-0.609 3.613,-2.474c0.003,-0.003 0.006,-0.006 0.009,-0.008c1.118,-2.003 3.042,-6.146 5.769,-10.588c2.609,-4.248 5.967,-8.156 8.334,-9.635c0.296,0.054 0.535,0.084 1.033,0.227c1.514,0.436 3.741,1.288 6.323,2.417c5.166,2.258 11.827,5.617 18.498,9.115c6.671,3.498 13.367,7.132 18.758,9.985c2.696,1.427 5.063,2.661 6.975,3.597c1.911,0.937 2.97,1.554 4.728,1.953c3.77,0.854 6.478,-0.726 9.375,-2.376c2.896,-1.65 5.865,-3.852 8.683,-6.12c2.818,-2.267 5.468,-4.598 7.536,-6.461c2.067,-1.863 3.892,-3.51 3.817,-3.451c1.049,-0.826 1.604,-2.159 1.717,-3.051c0.112,-0.895 -0.018,-1.487 -0.139,-1.978c-0.24,-0.983 -0.565,-1.631 -0.927,-2.327c-0.725,-1.394 -1.657,-2.836 -2.637,-4.379c-1.852,-2.915 -3.669,-6.301 -4.028,-7.405c0.079,-0.181 0.147,-1.203 0.61,-2.425c0.674,-1.779 1.794,-4.201 3.198,-6.958c2.809,-5.516 6.743,-12.419 10.661,-19.214c3.919,-6.796 7.82,-13.481 10.636,-18.775c1.409,-2.646 2.546,-4.927 3.321,-6.852c0.387,-0.962 0.693,-1.815 0.887,-2.799c0.193,-0.985 0.806,-2.459 -0.977,-4.574c-0.394,-0.467 -0.885,-0.843 -1.44,-1.099c-7.698,-3.553 -12.173,-12.725 -14.437,-21.81c-1.132,-4.542 -1.714,-8.949 -1.986,-12.288c-0.135,-1.659 -0.199,-3.051 -0.219,-4.061c0.288,-0.16 0.425,-0.261 0.821,-0.456c1.631,-0.8 4.002,-1.795 6.405,-2.783c2.403,-0.988 4.844,-1.975 6.828,-2.872c0.992,-0.449 1.859,-0.865 2.661,-1.335c0.401,-0.235 0.785,-0.471 1.237,-0.846c0.451,-0.375 1.155,-0.747 1.636,-2.409l-0,-0.008c2.992,-10.287 4.624,-17.836 4.166,-24.097c-0.442,-6.059 -3.899,-10.981 -9.073,-13.371c-2.834,-2.07 -6.164,-2.528 -9.546,-2.433c-3.629,0.102 -7.514,0.809 -11.418,1.676c-6.919,1.538 -13.314,3.283 -17.407,3.947l-9.733,-14.575c-0.774,-1.155 -2.077,-1.849 -3.467,-1.847l-10.352,-0c-2.361,-25.712 -24.765,-45.834 -51.847,-45.834Zm0,8.334c24.302,-0 43.75,18.838 43.75,41.984c0,13.578 -11.428,35.407 -23.25,53.043c-10.236,15.27 -17.919,24.158 -20.484,27.206c-2.559,-3.092 -10.259,-12.168 -20.508,-27.564c-11.829,-17.77 -23.258,-39.677 -23.258,-52.685c0,-23.145 19.453,-41.984 43.75,-41.984Zm0,25c-10.306,-0 -18.75,8.444 -18.75,18.75c0,10.306 8.444,18.75 18.75,18.75c10.306,-0 18.75,-8.444 18.75,-18.75c0,-10.306 -8.444,-18.75 -18.75,-18.75Zm0,8.333c5.802,0 10.417,4.614 10.417,10.417c-0,5.802 -4.615,10.416 -10.417,10.416c-5.802,0 -10.417,-4.614 -10.417,-10.416c0,-5.803 4.615,-10.417 10.417,-10.417Zm51.88,12.5l8.097,0l10.067,15.063c0.84,1.258 2.301,1.964 3.809,1.84c5.763,-0.48 13.442,-3.003 20.768,-4.631c3.663,-0.814 7.161,-1.398 9.839,-1.473c2.677,-0.075 4.275,0.512 4.573,0.765c0.329,0.281 0.7,0.509 1.099,0.676c3.251,1.357 4.089,2.459 4.394,6.632c0.287,3.923 -1.081,10.869 -3.621,19.906c-0.363,0.186 -0.649,0.346 -1.196,0.594c-1.719,0.777 -4.126,1.758 -6.56,2.759c-2.433,1 -4.894,2.022 -6.909,3.011c-1.007,0.494 -1.894,0.963 -2.742,1.546c-0.424,0.291 -0.845,0.597 -1.319,1.098c-0.473,0.502 -1.166,1.225 -1.359,2.8c-0.133,1.055 -0.08,1.45 -0.057,2.629c0.024,1.189 0.086,2.751 0.236,4.598c0.301,3.692 0.93,8.505 2.206,13.623c2.306,9.252 6.994,19.615 16.194,25.431c-0.574,1.387 -1.533,3.367 -2.815,5.778c-2.684,5.045 -6.568,11.715 -10.498,18.53c-3.93,6.815 -7.912,13.776 -10.873,19.588c-1.48,2.907 -2.703,5.515 -3.564,7.788c-0.862,2.274 -1.737,3.857 -1.123,6.771c-0,0.003 -0,0.006 -0,0.008c0.859,4.047 3.336,7.386 5.298,10.474c0.708,1.116 1.175,1.919 1.643,2.718c-0.651,0.599 -1.064,0.947 -2.018,1.807c-2.01,1.812 -4.544,4.048 -7.169,6.16c-2.626,2.112 -5.366,4.102 -7.593,5.371c-2.228,1.269 -4.062,1.342 -3.41,1.49c0.45,0.102 -1.146,-0.448 -2.905,-1.311c-1.76,-0.862 -4.075,-2.065 -6.739,-3.475c-5.326,-2.818 -12.049,-6.466 -18.79,-10.001c-6.742,-3.535 -13.493,-6.956 -19.027,-9.375c-2.767,-1.21 -5.213,-2.166 -7.357,-2.783c-1.071,-0.309 -2.058,-0.538 -3.108,-0.635c-1.051,-0.097 -2.231,-0.208 -3.817,0.651c-5.217,2.828 -8.827,8.115 -11.849,13.037c-2.537,4.132 -4.055,7.311 -4.989,9.139c-0.915,-0.09 -2.123,-0.255 -3.776,-0.602c-3.84,-0.806 -9.077,-2.198 -14.42,-3.597c-5.343,-1.4 -10.797,-2.813 -15.373,-3.679c-2.288,-0.432 -4.342,-0.734 -6.209,-0.805c-1.339,-0.052 -2.619,-0.206 -4.078,0.366c-0.394,-0.22 -0.771,-0.413 -1.448,-0.903c-1.915,-1.388 -4.504,-3.647 -6.999,-5.99c-4.378,-4.112 -7.544,-7.519 -8.496,-8.529c0.233,-1.669 0.847,-5.238 0.586,-11.067c-0.158,-3.524 -0.623,-7.271 -1.896,-10.751c-1.273,-3.479 -3.548,-6.942 -7.43,-8.585c-0.13,-0.056 -0.264,-0.105 -0.399,-0.147c-4.654,-1.436 -5.566,-2.901 -6.396,-5.623c-0.831,-2.722 -0.79,-7.056 -1.286,-12.207c-0.496,-5.151 -1.754,-11.216 -5.9,-17.025c-3.728,-5.223 -10.11,-10.009 -19.279,-14.266c0.384,-0.957 0.953,-2.187 1.896,-3.784c2.186,-3.701 5.584,-8.502 9.049,-13.257c3.466,-4.755 7.007,-9.469 9.62,-13.297c1.306,-1.915 2.375,-3.584 3.157,-5.111c0.391,-0.764 0.723,-1.465 0.96,-2.401c0.059,-0.23 -0.256,-0.797 -0.203,-1.107c0.079,-0.082 0.011,-0.02 0.26,-0.211c0.931,-0.712 2.837,-1.774 5.103,-2.572c4.531,-1.595 10.393,-2.125 14.543,-0.057c0.579,0.287 1.217,0.434 1.863,0.432c2.805,-0 5.446,-1.709 6.836,-3.817c1.39,-2.108 1.961,-4.525 2.14,-7.137c0.333,-4.834 -0.941,-10.535 -3.588,-16.301c0.049,-2.141 0.267,-3.793 0.553,-4.549c0.316,-0.836 0.432,-0.892 0.895,-1.147c0.861,-0.474 4.178,-0.792 9.155,-0.838c1.632,16.662 13.195,36.527 24.439,53.418c12.129,18.22 24.243,32.568 24.243,32.568c0.791,0.937 1.957,1.478 3.184,1.478c1.211,0 2.364,-0.528 3.156,-1.446c-0,0 12.123,-14.105 24.259,-32.21c11.276,-16.821 22.873,-36.801 24.463,-53.841Zm-141.447,34.725c0.017,0.171 0.077,0.367 0.065,0.513c-0.03,0.368 -0.112,0.435 -0.187,0.626c0.041,-0.377 0.106,-0.751 0.122,-1.139Zm45.817,44.442c-6.904,-0 -12.5,5.596 -12.5,12.5c0,6.904 5.596,12.5 12.5,12.5c6.904,-0 12.5,-5.596 12.5,-12.5c0,-6.904 -5.596,-12.5 -12.5,-12.5Zm128.817,11.572c-1.609,-0.223 -3.266,0.518 -4.151,2.002c-1.179,1.979 -0.53,4.534 1.449,5.713l7.153,4.264c1.979,1.179 4.534,0.531 5.713,-1.448c1.179,-1.98 0.539,-4.534 -1.44,-5.713l-7.162,-4.265c-0.495,-0.294 -1.026,-0.479 -1.562,-0.553Zm-10.669,17.895c-1.609,-0.223 -3.266,0.51 -4.151,1.994c-1.179,1.979 -0.538,4.534 1.441,5.713l7.161,4.264c1.979,1.18 4.534,0.539 5.713,-1.44c1.179,-1.979 0.531,-4.534 -1.448,-5.713l-7.154,-4.272c-0.495,-0.295 -1.026,-0.471 -1.562,-0.546Zm-10.669,17.888c-1.609,-0.223 -3.266,0.517 -4.151,2.002c-1.179,1.979 -0.53,4.533 1.449,5.713l7.153,4.264c1.98,1.179 4.53,0.531 5.713,-1.449c1.179,-1.979 0.539,-4.533 -1.44,-5.712l-7.162,-4.265c-0.494,-0.295 -1.026,-0.479 -1.562,-0.553Z" style="fill:#f0f0f0;fill-rule:nonzero;"/><path d="M131.25,41.667c-10.306,-0 -18.75,8.444 -18.75,18.75c0,10.306 8.444,18.75 18.75,18.75c10.306,-0 18.75,-8.444 18.75,-18.75c0,-10.306 -8.444,-18.75 -18.75,-18.75Zm0,8.333c5.802,0 10.417,4.614 10.417,10.417c-0,5.802 -4.615,10.416 -10.417,10.416c-5.802,0 -10.417,-4.614 -10.417,-10.416c0,-5.803 4.615,-10.417 10.417,-10.417Zm-43.75,91.667c-6.904,-0 -12.5,5.596 -12.5,12.5c0,6.904 5.596,12.5 12.5,12.5c6.904,-0 12.5,-5.596 12.5,-12.5c0,-6.904 -5.596,-12.5 -12.5,-12.5Z" style="fill:#fc9c19;fill-rule:nonzero;"/></svg>