<?xml version="1.0" encoding="utf-8"?>
<svg xmlns="http://www.w3.org/2000/svg" viewBox="0 0 64 64" fill="#f0f0f0"><path d="M 23.660156 4 C 22.332156 3.996 21.058094 4.5229375 20.121094 5.4609375 L 11.460938 14.121094 C 10.522938 15.059094 9.996 16.332156 10 17.660156 L 10 57 C 10 58.656 11.344 60 13 60 L 52.929688 60 L 53.707031 60.777344 C 54.682031 61.752344 55.962187 62.240234 57.242188 62.240234 C 58.523187 62.240234 59.802344 61.752344 60.777344 60.777344 C 62.727344 58.828344 62.727344 55.656031 60.777344 53.707031 L 56 48.929688 L 56 7 C 56 5.344 54.656 4 53 4 L 23.660156 4 z M 24 6 L 53 6 C 53.551 6 54 6.449 54 7 L 54 32.271484 C 51.269289 27.345782 46.019466 24 40 24 C 34.094086 24 28.938007 27.226459 26.166016 32 L 21 32 C 20.449 32 20 32.449 20 33 C 20 33.551 20.449 34 21 34 L 25 34 C 25.067877 34 25.127274 33.973916 25.191406 33.960938 C 24.903471 34.664389 24.676534 35.397451 24.490234 36.146484 C 24.343184 36.061311 24.181659 36 24 36 L 21 36 C 20.449 36 20 36.449 20 37 C 20 37.551 20.449 38 21 38 L 24 38 C 24.050575 38 24.09399 37.978 24.142578 37.970703 C 24.057641 38.637037 24 39.310972 24 40 C 24 44.560869 25.927658 48.672462 29 51.589844 L 29 53 C 29 53.551 29.449 54 30 54 C 30.483788 54 30.869293 53.646859 30.960938 53.189453 C 33.535023 54.959176 36.647248 56 40 56 C 42.590373 56 45.030468 55.36716 47.197266 54.269531 L 50.929688 58 L 13 58 C 12.449 58 12 57.551 12 57 L 12 18 L 21 18 C 22.656 18 24 16.656 24 15 L 24 6 z M 22 6.5 L 22 15 C 22 15.551 21.551 16 21 16 L 12.5 16 C 12.609 15.836 12.737906 15.680062 12.878906 15.539062 L 21.539062 6.8789062 C 21.680062 6.7379063 21.836 6.609 22 6.5 z M 21 22 C 20.449 22 20 22.449 20 23 C 20 23.551 20.449 24 21 24 L 26 24 C 26.551 24 27 23.551 27 23 C 27 22.449 26.551 22 26 22 L 21 22 z M 21 26 C 20.449 26 20 26.449 20 27 C 20 27.551 20.449 28 21 28 L 29 28 C 29.551 28 30 27.551 30 27 C 30 26.449 29.551 26 29 26 L 21 26 z M 40 26 C 47.72 26 54 32.28 54 40 C 54 47.72 47.72 54 40 54 C 32.28 54 26 47.72 26 40 C 26 32.28 32.28 26 40 26 z M 40 29 C 33.935 29 29 33.935 29 40 C 29 46.065 33.935 51 40 51 C 46.065 51 51 46.065 51 40 C 51 33.935 46.065 29 40 29 z M 40 31 C 44.962 31 49 35.037 49 40 C 49 44.963 44.962 49 40 49 C 36.475432 49 33.425386 46.958752 31.949219 44 L 44 44 C 45.102 44 46 43.102 46 42 C 46 40.898 45.102 40 44 40 L 31 40 C 31 38.947022 31.191596 37.9399 31.525391 37 L 42 37 C 43.102 37 44 36.102 44 35 C 44 33.898 43.102 33 42 33 L 34.355469 33 C 35.900905 31.751105 37.863148 31 40 31 z M 53.228516 48.986328 L 59.363281 55.121094 C 60.532281 56.291094 60.532281 58.193281 59.363281 59.363281 C 58.192281 60.530281 56.290094 60.530281 55.121094 59.363281 L 48.986328 53.228516 C 50.652263 52.093164 52.093164 50.652263 53.228516 48.986328 z M 15 50 C 14.449 50 14 50.449 14 51 L 14 53 C 14 53.551 14.449 54 15 54 C 15.551 54 16 53.551 16 53 L 16 51 C 16 50.449 15.551 50 15 50 z M 20 50 C 19.449 50 19 50.449 19 51 L 19 53 C 19 53.551 19.449 54 20 54 C 20.551 54 21 53.551 21 53 L 21 51 C 21 50.449 20.551 50 20 50 z M 25 50 C 24.449 50 24 50.449 24 51 L 24 53 C 24 53.551 24.449 54 25 54 C 25.551 54 26 53.551 26 53 L 26 51 C 26 50.449 25.551 50 25 50 z" fill="#f0f0f0"/></svg>
