<?xml version="1.0" encoding="utf-8"?>
<svg xmlns="http://www.w3.org/2000/svg" viewBox="0 0 64 64" fill="#006353"><path d="M 19.5 3 C 15.364 3 12 6.364 12 10.5 C 12 14.636 15.364 18 19.5 18 C 23.636 18 27 14.636 27 10.5 C 27 6.364 23.636 3 19.5 3 z M 44.5 3 C 43.874782 3 43.270436 3.0856817 42.689453 3.2304688 C 42.559297 3.2606787 42.432632 3.2926202 42.308594 3.328125 C 42.273598 3.3388348 42.239855 3.3520744 42.205078 3.3632812 C 40.427701 3.9004542 39.272128 4.9506698 38.572266 5.8847656 C 38.372541 6.1514489 38.206594 6.4177213 38.056641 6.6796875 C 37.990795 6.7903341 37.925454 6.9014153 37.865234 7.015625 C 37.845084 7.0185703 37.824868 7.0152934 37.804688 7.0195312 C 34.440687 7.6875313 32 11.465 32 16 C 32 16.553 32.447 17 33 17 L 38 17 C 38.553 17 39 16.553 39 16 L 39 15.582031 C 40.371011 17.064665 42.325828 18 44.5 18 C 46.674172 18 48.628989 17.064665 50 15.582031 L 50 16 C 50 16.553 50.447 17 51 17 L 56 17 C 56.553 17 57 16.553 57 16 C 57 11.71172 54.816147 8.1051127 51.734375 7.1601562 C 50.658168 4.672239 47.954254 3 44.703125 3 C 44.670081 3 44.642132 3.0055433 44.609375 3.0058594 C 44.572567 3.0053247 44.536933 3 44.5 3 z M 19.5 5 C 22.532 5 25 7.468 25 10.5 C 25 13.532 22.532 16 19.5 16 C 16.468 16 14 13.532 14 10.5 C 14 7.468 16.468 5 19.5 5 z M 44.603516 5.0058594 C 47.58739 5.061934 50 7.5030027 50 10.5 C 50 13.532 47.532 16 44.5 16 C 41.468 16 39 13.532 39 10.5 C 39 10.036504 39.063329 9.5885379 39.171875 9.1582031 L 39.189453 9.1621094 C 39.201251 9.1013305 39.323168 8.5461569 39.673828 7.8652344 C 40.411557 6.5199602 41.697319 5.5189566 43.226562 5.1542969 C 43.642605 5.0644544 44.100006 5.0123268 44.603516 5.0058594 z M 37 9.453125 L 37 15 L 34.048828 15 C 34.292828 12.514 35.434 10.402125 37 9.453125 z M 52.052734 9.4921875 C 53.590403 10.456937 54.710039 12.543207 54.951172 15 L 52 15 L 52 9.59375 C 52.022855 9.5631397 52.033479 9.525253 52.052734 9.4921875 z M 13.939453 19 C 13.725453 19 13.512828 19.015016 13.298828 19.041016 C 11.104828 19.317016 9.2373438 21.043844 8.6523438 23.339844 L 5.4804688 35.804688 C 5.2704688 36.629688 5.4024687 37.480172 5.8554688 38.201172 C 6.3074688 38.922172 7.0166094 39.412031 7.8496094 39.582031 C 9.4716094 39.918031 11.052125 38.914547 11.453125 37.310547 L 12 35.125 L 12 41 L 12 45.0625 C 11.901586 45.062451 11.801666 45.069429 11.703125 45.103516 C 6.149125 47.012516 3.0898438 49.663406 3.0898438 52.566406 C 3.0898438 59.041406 17.789 62.910156 32 62.910156 C 46.211 62.910156 60.910156 59.040406 60.910156 52.566406 C 60.910156 49.663406 57.851875 47.012516 52.296875 45.103516 C 52.198541 45.068809 52.098351 45.062756 52 45.0625 L 52 44 L 54.40625 44 C 54.70625 44 54.990641 43.864813 55.181641 43.632812 C 55.370641 43.401812 55.447672 43.096734 55.388672 42.802734 L 54.730469 39.519531 C 55.141469 39.590531 55.570234 39.583328 55.990234 39.486328 C 56.834234 39.292328 57.572719 38.753813 58.011719 38.007812 C 58.451719 37.260813 58.564219 36.353531 58.324219 35.519531 L 54.46875 22.189453 C 53.91575 20.312453 52.161125 19 50.203125 19 L 39.203125 19 C 37.222125 19 35.557219 20.307234 34.949219 22.365234 L 32.453125 32.166016 L 29.830078 22.509766 C 29.175078 20.410766 27.259547 19 25.060547 19 L 13.939453 19 z M 13.939453 21 L 25.060547 21 C 26.379547 21 27.528109 21.845359 27.912109 23.068359 L 28.720703 26.046875 C 28.708344 26.050486 28.695922 26.046672 28.683594 26.050781 L 26.916016 26.640625 C 26.749937 26.220411 26.326759 25.943964 25.878906 26.007812 C 25.377906 26.068812 25 26.495 25 27 L 25 40 L 18 40 L 14 40 L 14 34 L 21.40625 34 C 21.95925 34 22.40625 33.553 22.40625 33 C 22.40625 32.447 21.95925 32 21.40625 32 L 14 32 L 14 27 C 14 26.495 13.623047 26.068812 13.123047 26.007812 C 12.67228 25.944851 12.250112 26.220264 12.083984 26.640625 L 10.316406 26.050781 C 10.221649 26.019196 10.127764 26.018805 10.033203 26.015625 L 10.589844 23.832031 C 10.973844 22.326031 12.161969 21.198391 13.542969 21.025391 C 13.671969 21.009391 13.804453 21 13.939453 21 z M 39.203125 21 L 50.203125 21 C 51.280125 21 52.244828 21.722047 52.548828 22.748047 L 53.828125 27.171875 L 52.400391 27.884766 L 52.183594 26.802734 C 52.075594 26.261734 51.555813 25.905531 51.007812 26.019531 C 50.466813 26.128531 50.114656 26.654312 50.222656 27.195312 L 52.179688 37.017578 C 52.196688 37.106578 52.218187 37.19525 52.242188 37.28125 L 53.1875 42 L 51 42 L 46 42 L 43 42 L 38 42 L 36.611328 42 L 37.474609 37.400391 C 37.512609 37.279391 37.545359 37.155344 37.568359 37.027344 L 39.390625 27.181641 C 39.490625 26.639641 39.133797 26.117625 38.591797 26.015625 C 38.041797 25.924625 37.527781 26.272453 37.425781 26.814453 L 37.048828 28.826172 L 35.5 28.308594 L 36.878906 22.896484 C 37.223906 21.727484 38.114125 21 39.203125 21 z M 9.5605469 27.876953 C 9.6033232 27.898464 9.6368404 27.931711 9.6835938 27.947266 L 11.576172 28.578125 L 9.5136719 36.824219 C 9.3716719 37.388219 8.8230469 37.733094 8.2480469 37.621094 C 7.9560469 37.562094 7.7078281 37.391672 7.5488281 37.138672 C 7.3908281 36.885672 7.3449687 36.585875 7.4179688 36.296875 L 9.5605469 27.876953 z M 29.242188 27.972656 L 31.474609 36.197266 C 31.456878 36.392603 31.460882 36.58627 31.480469 36.779297 C 31.456459 36.872757 31.435118 36.967171 31.384766 37.052734 C 31.241766 37.295734 31.010281 37.467156 30.738281 37.535156 C 30.173281 37.669156 29.613609 37.334344 29.474609 36.777344 L 27.425781 28.578125 L 29.242188 27.972656 z M 54.392578 29.125 L 56.402344 36.074219 C 56.493344 36.386219 56.452109 36.713187 56.287109 36.992188 C 56.123109 37.270187 55.859922 37.463156 55.544922 37.535156 C 55.234922 37.607156 54.918391 37.551906 54.650391 37.378906 C 54.429391 37.235906 54.268594 37.027203 54.183594 36.783203 L 52.806641 29.912109 C 52.822202 29.905245 52.83815 29.902268 52.853516 29.894531 L 54.392578 29.125 z M 35.005859 30.251953 L 36.675781 30.808594 L 35.537109 36.878906 C 35.455109 37.079906 35.314953 37.250094 35.126953 37.371094 C 34.875953 37.536094 34.578109 37.587578 34.287109 37.517578 C 34.003109 37.449578 33.762328 37.275391 33.611328 37.025391 C 33.557879 36.936308 33.533892 36.837793 33.507812 36.740234 C 33.520917 36.553531 33.518201 36.365885 33.496094 36.177734 L 35.005859 30.251953 z M 27 35.123047 L 27.535156 37.261719 C 27.942156 38.889719 29.600656 39.887609 31.222656 39.474609 L 31.224609 39.474609 C 31.716222 39.352014 32.148678 39.103755 32.513672 38.773438 C 32.885535 39.100544 33.323572 39.345871 33.820312 39.464844 C 34.225313 39.561844 34.643922 39.573859 35.044922 39.505859 L 34.423828 42.816406 C 34.367828 43.109406 34.445719 43.410672 34.636719 43.638672 C 34.827719 43.866672 35.10825 44 35.40625 44 L 37 44 L 37 51.707031 C 37 53.522031 38.57 55 40.5 55 C 42.43 55 44 53.522031 44 51.707031 L 44 44 L 45 44 L 45 51.707031 C 45 53.522031 46.57 55 48.5 55 C 50.43 55 52 53.522031 52 51.707031 L 52 46.935547 C 56.502885 48.533272 59.089844 50.575737 59.089844 52.566406 C 59.089844 57.589406 44.814 61.089844 32 61.089844 C 19.186 61.089844 4.9101562 57.589406 4.9101562 52.566406 C 4.9101563 50.575737 7.4980074 48.533146 12 46.933594 L 12 51.832031 C 12 53.578031 13.57 55 15.5 55 C 17.43 55 19 53.578031 19 51.832031 L 19 42 L 20 42 L 20 51.832031 C 20 53.578031 21.57 55 23.5 55 C 25.43 55 27 53.578031 27 51.832031 L 27 41 L 27 35.123047 z M 40 36 C 39.448 36 39 36.448 39 37 L 39 39 C 39 39.552 39.448 40 40 40 C 40.552 40 41 39.552 41 39 L 41 37 C 41 36.448 40.552 36 40 36 z M 45 36 C 44.448 36 44 36.448 44 37 L 44 39 C 44 39.552 44.448 40 45 40 C 45.552 40 46 39.552 46 39 L 46 37 C 46 36.448 45.552 36 45 36 z M 50 36 C 49.448 36 49 36.448 49 37 L 49 39 C 49 39.552 49.448 40 50 40 C 50.552 40 51 39.552 51 39 L 51 37 C 51 36.448 50.552 36 50 36 z M 14 42 L 17 42 L 17 51.832031 C 17 52.465031 16.313 53 15.5 53 C 14.687 53 14 52.465031 14 51.832031 L 14 42 z M 22 42 L 25 42 L 25 51.832031 C 25 52.465031 24.313 53 23.5 53 C 22.687 53 22 52.465031 22 51.832031 L 22 42 z M 32 42.429688 C 30.976 42.429688 29.96475 42.448375 28.96875 42.484375 C 28.46575 42.501375 28.072797 42.923781 28.091797 43.425781 C 28.108797 43.916781 28.511047 44.304688 28.998047 44.304688 C 29.010047 44.304687 29.02025 44.303734 29.03125 44.302734 C 30.00625 44.268734 30.997 44.25 32 44.25 C 32.503 44.25 32.910156 43.842844 32.910156 43.339844 C 32.910156 42.836844 32.503 42.429688 32 42.429688 z M 39 44 L 42 44 L 42 51.707031 C 42 52.419031 41.327 53 40.5 53 C 39.673 53 39 52.419031 39 51.707031 L 39 44 z M 47 44 L 50 44 L 50 51.707031 C 50 52.419031 49.327 53 48.5 53 C 47.673 53 47 52.419031 47 51.707031 L 47 44 z" fill="#006353"/></svg>
