<?xml version="1.0" encoding="UTF-8" standalone="no"?><!DOCTYPE svg PUBLIC "-//W3C//DTD SVG 1.1//EN" "http://www.w3.org/Graphics/SVG/1.1/DTD/svg11.dtd"><svg width="100%" height="100%" viewBox="0 0 998 845" version="1.1" xmlns="http://www.w3.org/2000/svg" xmlns:xlink="http://www.w3.org/1999/xlink" xml:space="preserve" xmlns:serif="http://www.serif.com/" style="fill-rule:evenodd;clip-rule:evenodd;stroke-linejoin:round;stroke-miterlimit:2;"><path d="M172.917,540.997c-13.07,0 -24.447,7.129 -30.583,17.676c-2.897,-0.635 -5.908,-1.009 -9.001,-1.009c-22.981,0 -41.666,18.685 -41.666,41.667c-0,17.269 10.579,32.08 25.586,38.395c-0.342,2.441 -0.586,4.915 -0.586,7.438c-0,29.867 24.3,54.167 54.166,54.167c29.867,-0 54.167,-24.3 54.167,-54.167c0,-19.238 -10.107,-36.133 -25.26,-45.736c5.322,-6.201 8.593,-14.209 8.593,-23.014c0,-19.531 -15.885,-35.417 -35.416,-35.417Zm-0,8.334c14.941,-0 27.083,12.142 27.083,27.083c0,7.406 -3.027,14.079 -7.861,18.962c-5.567,-2.393 -11.621,-3.825 -17.969,-4.216c-2.653,-13.297 -11.67,-24.3 -23.714,-29.769c4.85,-7.259 13.086,-12.06 22.461,-12.06Zm-39.584,16.666c15.593,0 28.662,10.775 32.292,25.261c-22.07,2.116 -40.299,17.513 -46.598,38.086c-11.215,-5.371 -19.027,-16.765 -19.027,-30.013c-0,-18.376 14.958,-33.334 33.333,-33.334Zm0,8.334c-13.785,-0 -25,11.214 -25,25c0,2.295 1.872,4.166 4.167,4.166c2.295,0 4.167,-1.871 4.167,-4.166c-0,-9.196 7.47,-16.667 16.666,-16.667c2.295,0 4.167,-1.872 4.167,-4.167c-0,-2.295 -1.872,-4.166 -4.167,-4.166Zm37.5,25c25.277,-0 45.834,20.556 45.834,45.833c-0,25.277 -20.557,45.833 -45.834,45.833c-25.276,0 -45.833,-20.556 -45.833,-45.833c-0,-25.277 20.557,-45.833 45.833,-45.833Zm-86.263,88.851c-2.522,-0.066 -5.045,0.048 -7.568,0.341l-49.3,5.795c-6.283,0.748 -11.035,6.087 -11.035,12.435l-0,52.734c-0,3.89 1.757,7.471 4.817,9.863c3.044,2.377 6.95,3.207 10.71,2.263l27.344,-6.82c6.966,-1.725 14.306,-0.863 20.67,2.49l52.442,27.621c5.468,2.88 11.458,4.313 17.464,4.313c5.924,-0 11.849,-1.384 17.269,-4.199l88.753,-46.029c6.494,-3.369 10.531,-9.994 10.531,-17.35c-0,-6.071 -2.767,-11.687 -7.569,-15.414c-4.801,-3.727 -10.953,-4.98 -16.829,-3.45l-55.876,14.485c-1.09,-3.255 -2.995,-6.233 -5.534,-8.593c-4.231,-3.939 -9.928,-5.941 -15.69,-5.534l-9.131,0.651c-3.58,0.26 -7.145,-0.407 -10.384,-1.937l-39.209,-18.506c-6.884,-3.239 -14.339,-4.997 -21.875,-5.159Zm-0.195,8.333c6.38,0.146 12.695,1.611 18.506,4.362l39.225,18.506c4.525,2.132 9.538,3.06 14.535,2.718l9.13,-0.651c3.5,-0.244 6.853,0.928 9.424,3.32c2.556,2.376 3.972,5.632 3.972,9.131l-0,1.693c-0,1.644 -0.961,3.141 -2.458,3.808l-12.305,5.518c-9.228,4.15 -19.905,4.378 -29.297,0.618l-21.012,-8.414c-2.148,-0.863 -4.574,0.179 -5.42,2.327c-0.862,2.132 0.179,4.557 2.328,5.404l21.012,8.431c11.491,4.59 24.544,4.313 35.824,-0.765l12.288,-5.518c4.476,-2.018 7.373,-6.494 7.373,-11.409l56.852,-14.763c3.386,-0.862 6.885,-0.146 9.636,1.986c2.767,2.132 4.345,5.355 4.345,8.87c0,4.183 -2.311,7.976 -6.022,9.896l-88.769,46.029c-8.464,4.394 -18.571,4.362 -27.019,-0.081l-52.441,-27.621c-5.436,-2.864 -11.426,-4.329 -17.464,-4.329c-3.044,-0 -6.087,0.374 -9.082,1.123l-27.36,6.836c-1.253,0.309 -2.556,0.032 -3.565,-0.749c-1.025,-0.798 -1.611,-2.002 -1.611,-3.304l-0,-52.734c-0,-2.116 1.579,-3.907 3.678,-4.151l49.301,-5.794c2.132,-0.244 4.264,-0.342 6.396,-0.293Zm-46.875,11.149c-2.295,0 -4.167,1.872 -4.167,4.167c0,2.295 1.872,4.166 4.167,4.166l8.333,0c2.295,0 4.167,-1.871 4.167,-4.166c-0,-2.295 -1.872,-4.167 -4.167,-4.167l-8.333,0Zm-0,20.833c-2.295,0 -4.167,1.872 -4.167,4.167c0,2.295 1.872,4.167 4.167,4.167l8.333,-0c2.295,-0 4.167,-1.872 4.167,-4.167c-0,-2.295 -1.872,-4.167 -4.167,-4.167l-8.333,0Zm-0,20.834c-2.295,-0 -4.167,1.871 -4.167,4.166c0,2.295 1.872,4.167 4.167,4.167l8.333,0c2.295,0 4.167,-1.872 4.167,-4.167c-0,-2.295 -1.872,-4.166 -4.167,-4.166l-8.333,-0Z" style="fill:#006353;fill-rule:nonzero;"/><path d="M168.523,615.29c-8.651,-0 -15.689,7.037 -15.689,15.688l0,3.095c0,3.626 1.063,7.139 3.075,10.152l1.624,2.441l-2.084,0c-1.44,0 -2.615,1.175 -2.615,2.615c0,1.44 1.175,2.615 2.615,2.615l5.23,-0c0.03,-0 0.051,-0.011 0.081,-0.011c1.645,3.259 2.533,6.844 2.533,10.541l0,5.158l-10.459,-0c-1.44,-0 -2.614,1.174 -2.614,2.614c-0,1.441 1.174,2.615 2.614,2.615l36.606,0c1.441,0 2.615,-1.174 2.615,-2.615c0,-1.44 -1.174,-2.614 -2.615,-2.614l-20.917,-0l-0,-5.158c-0,-5.699 -1.665,-11.215 -4.831,-15.954l-3.432,-5.148c-1.44,-2.155 -2.196,-4.657 -2.196,-7.251l-0,-3.095c-0,-5.771 4.688,-10.459 10.459,-10.459l5.229,0c5.771,0 10.459,4.688 10.459,10.459c-0,1.44 1.175,2.615 2.615,2.615c1.44,-0 2.614,-1.175 2.614,-2.615c0,-8.651 -7.037,-15.688 -15.688,-15.688l-5.229,-0Zm5.229,31.376c-1.44,0 -2.615,1.175 -2.615,2.615c0,1.44 1.175,2.615 2.615,2.615l7.844,-0c1.44,-0 2.615,-1.175 2.615,-2.615c-0,-1.44 -1.175,-2.615 -2.615,-2.615l-7.844,0Z" style="fill:#006353;fill-rule:nonzero;stroke:#006353;stroke-width:2.71px;"/><path d="M217.39,286.857c-2.295,0 -4.167,1.856 -4.167,4.167l-0,25c-0,2.311 1.872,4.167 4.167,3.939l106.559,-0l-142.676,141.927c-0.781,0.781 -1.221,1.839 -1.221,2.946c0,1.123 0.424,2.181 1.205,2.962l17.692,17.676c0.781,0.781 1.839,1.22 2.946,1.22c1.107,0 2.181,-0.439 2.946,-1.236l141.715,-142.66l0,106.559c0,2.311 1.872,4.167 4.167,3.939l25,0c2.295,0.228 4.167,-1.644 4.167,-3.939l-0,-158.333c-0,-2.295 -1.872,-4.167 -4.167,-4.167l-158.333,0Zm4.166,8.106l150,-0l0,150.228l-16.666,-0l-0,-112.5c-0,-1.693 -1.026,-3.207 -2.588,-3.858c-1.563,-0.635 -3.353,-0.277 -4.541,0.912l-145.882,146.875l-11.768,-11.752l146.875,-145.882c1.204,-1.188 1.562,-2.995 0.911,-4.557c-0.634,-1.563 -2.148,-2.572 -3.841,-2.572l-112.5,0l0,-16.894Zm109.977,77.343c-1.057,0 -2.132,0.391 -2.945,1.221c-1.628,1.628 -1.628,4.248 -0,5.876l5.891,5.908c0.814,0.798 1.872,1.204 2.946,1.204c1.075,0 2.133,-0.406 2.946,-1.204c1.628,-1.644 1.628,-4.264 0,-5.908l-5.892,-5.876c-0.813,-0.83 -1.888,-1.221 -2.946,-1.221Zm-14.729,14.73c-1.075,0 -2.132,0.407 -2.946,1.221c-1.644,1.628 -1.644,4.264 -0,5.892l5.875,5.892c0.814,0.814 1.888,1.221 2.946,1.221c1.075,-0 2.149,-0.407 2.963,-1.221c1.627,-1.628 1.627,-4.264 -0,-5.892l-5.909,-5.892c-0.813,-0.814 -1.871,-1.221 -2.929,-1.221Zm-14.73,14.714c-1.074,-0 -2.132,0.423 -2.962,1.237c-1.628,1.627 -1.628,4.264 -0,5.892l5.908,5.892c0.797,0.813 1.872,1.22 2.93,1.22c1.074,0 2.148,-0.407 2.945,-1.22c1.644,-1.628 1.644,-4.265 0,-5.892l-5.875,-5.892c-0.83,-0.814 -1.888,-1.237 -2.946,-1.237Zm-14.746,14.746c-1.058,-0 -2.132,0.407 -2.946,1.221c-1.628,1.627 -1.628,4.248 -0,5.892l5.908,5.875c0.798,0.814 1.872,1.221 2.946,1.221c1.058,-0 2.132,-0.407 2.93,-1.221c1.644,-1.627 1.644,-4.248 -0,-5.875l-5.876,-5.892c-0.83,-0.814 -1.888,-1.221 -2.962,-1.221Zm-14.73,14.73c-1.058,-0 -2.116,0.407 -2.93,1.22c-1.644,1.628 -1.644,4.265 0,5.892l5.876,5.892c0.814,0.814 1.872,1.221 2.946,1.221c1.074,-0 2.132,-0.407 2.946,-1.221c1.627,-1.627 1.627,-4.264 -0,-5.892l-5.892,-5.892c-0.814,-0.813 -1.872,-1.22 -2.946,-1.22Zm-14.714,14.73c-1.074,-0 -2.132,0.406 -2.946,1.22c-1.643,1.628 -1.643,4.265 0,5.892l5.876,5.892c0.814,0.814 1.888,1.221 2.946,1.221c1.074,-0 2.148,-0.407 2.962,-1.221c1.628,-1.627 1.628,-4.264 0,-5.892l-5.908,-5.892c-0.814,-0.814 -1.872,-1.22 -2.93,-1.22Zm-14.746,14.729c-1.074,0 -2.132,0.407 -2.946,1.221c-1.627,1.628 -1.627,4.264 0,5.892l5.892,5.892c0.814,0.814 1.888,1.221 2.946,1.221c1.074,-0 2.149,-0.407 2.946,-1.221c1.644,-1.628 1.644,-4.264 0,-5.892l-5.875,-5.892c-0.831,-0.814 -1.888,-1.221 -2.963,-1.221Zm-14.73,14.746c-1.074,0 -2.132,0.391 -2.945,1.221c-1.628,1.628 -1.628,4.248 -0,5.876l5.908,5.908c0.797,0.798 1.871,1.204 2.946,1.204c1.058,0 2.132,-0.406 2.929,-1.204c1.644,-1.644 1.644,-4.264 0,-5.908l-5.892,-5.876c-0.813,-0.83 -1.871,-1.221 -2.946,-1.221Zm-14.729,14.714c-1.075,0 -2.132,0.407 -2.946,1.237c-1.628,1.628 -1.628,4.248 -0,5.876l5.892,5.908c0.813,0.797 1.871,1.221 2.946,1.221c1.074,-0 2.132,-0.424 2.946,-1.221c1.627,-1.644 1.627,-4.264 -0,-5.908l-5.892,-5.876c-0.814,-0.83 -1.872,-1.237 -2.946,-1.237Z" style="fill:#006353;fill-rule:nonzero;"/><clipPath id="_clip1"><rect x="375.411" y="0" width="266.667" height="266.667"/></clipPath><g clip-path="url(#_clip1)"><path d="M446.244,25c-8.116,0 -14.647,6.357 -14.868,14.469l-0.008,0.131c-2.104,-1.305 -4.564,-2.1 -7.218,-2.1c-7.363,0 -13.4,5.76 -13.745,13.127l-2.857,76.969c-0.221,-0.579 -0.43,-1.195 -0.667,-1.75c-6.984,-16.504 -17.591,-17.334 -19.645,-17.334c-5.471,0 -8.333,2.367 -9.766,4.354c-2.613,3.625 -2.76,8.761 -0.439,15.707c0.975,2.937 1.425,7.484 1.896,12.296c0.433,4.413 0.924,9.417 1.92,14.396c1.959,9.784 6.029,30.129 22.396,46.216c14.617,14.363 30.609,15.194 34.017,15.194c0.375,-0 0.593,-0.012 0.643,-0.016l25,-0c12.075,-0 22.106,-4.716 29.272,-13.607l11.483,11.483c2.858,2.837 7.477,2.837 10.335,-0l11.459,-11.467c7.171,8.879 17.189,13.599 29.256,13.599l24.788,-0.008c0.075,0.004 0.324,0.016 0.733,0.016c3.616,-0 19.56,-0.865 34.139,-15.194c16.366,-16.083 20.437,-36.432 22.396,-46.216c0.995,-4.983 1.491,-9.991 1.928,-14.412c0.471,-4.804 0.913,-9.347 1.888,-12.28c2.321,-6.95 2.173,-12.082 -0.439,-15.707c-1.433,-1.987 -4.283,-4.354 -9.758,-4.354c-2.054,0 -12.67,0.83 -19.653,17.334c-0.233,0.55 -0.438,1.163 -0.659,1.742l-2.857,-76.97c-0.333,-7.354 -6.374,-13.118 -13.745,-13.118c-2.654,0 -5.11,0.795 -7.218,2.1l-0.008,-0.139c-0.221,-8.108 -6.752,-14.461 -14.868,-14.461c-8.109,0 -14.644,6.353 -14.869,14.469l-0.008,0.106c-2.087,-1.291 -4.524,-2.075 -7.153,-2.075c-7.429,0 -13.446,5.816 -13.688,13.241l-0.301,9.163c-1.796,-0.967 -3.819,-1.571 -5.99,-1.571c-6.775,0 -12.361,5.298 -12.72,12.061c-0.587,11.121 -1.664,45.763 -2.506,63.672c-1.504,1.012 -2.943,2.17 -4.273,3.499l-1.041,1.042l-1.001,-1.001c-1.363,-1.363 -2.824,-2.552 -4.37,-3.581c-0.867,-17.917 -1.988,-52.555 -2.604,-63.672c-0.375,-6.737 -5.962,-12.02 -12.712,-12.02c-2.129,0 -4.109,0.577 -5.876,1.506l-0.309,-9.098c-0.237,-7.421 -6.251,-13.241 -13.68,-13.241c-2.629,0 -5.066,0.78 -7.153,2.067l-0.008,-0.106c-0.221,-8.108 -6.752,-14.461 -14.869,-14.461Zm0,8.333c3.567,0 6.439,2.794 6.535,6.356l1.799,77.092c0.008,0.312 0.128,0.583 0.203,0.87c0.054,0.225 0.063,0.467 0.155,0.676c0.121,0.279 0.313,0.491 0.488,0.732c0.138,0.188 0.236,0.407 0.399,0.57c0.233,0.229 0.53,0.382 0.814,0.553c0.17,0.104 0.317,0.247 0.504,0.326c0.492,0.208 1.029,0.325 1.595,0.325l0.122,0c0.28,-0.008 0.519,-0.12 0.782,-0.179c0.262,-0.058 0.531,-0.075 0.773,-0.179c0.246,-0.108 0.434,-0.289 0.651,-0.439c0.225,-0.154 0.467,-0.276 0.659,-0.472c0.183,-0.188 0.294,-0.43 0.439,-0.651c0.15,-0.225 0.328,-0.422 0.432,-0.676c0.108,-0.262 0.116,-0.563 0.171,-0.846c0.045,-0.246 0.146,-0.47 0.146,-0.724l0,-65.471c0,-2.958 2.405,-5.363 5.363,-5.363c2.908,0 5.267,2.28 5.363,5.184l1.782,65.788c0.009,0.283 0.117,0.523 0.179,0.789c0.059,0.25 0.071,0.512 0.171,0.741c0.121,0.271 0.318,0.487 0.488,0.724c0.138,0.192 0.241,0.411 0.407,0.578c0.234,0.229 0.519,0.379 0.798,0.545c0.175,0.104 0.321,0.255 0.513,0.334c0.495,0.204 1.028,0.317 1.595,0.317l0.008,0c0.046,0 0.096,-0.004 0.138,-0.008c0.25,-0.008 0.458,-0.109 0.692,-0.154c0.287,-0.063 0.592,-0.087 0.854,-0.204c0.234,-0.104 0.419,-0.281 0.627,-0.423c0.233,-0.158 0.48,-0.284 0.675,-0.488c0.171,-0.18 0.278,-0.407 0.415,-0.611c0.159,-0.237 0.348,-0.453 0.456,-0.724c0.096,-0.237 0.101,-0.503 0.155,-0.757c0.05,-0.271 0.154,-0.514 0.154,-0.797l0,-45.598c0,-2.425 1.978,-4.402 4.403,-4.402c2.333,-0 4.253,1.821 4.386,4.142c0.563,10.242 1.564,42.354 2.393,59.383c-9.55,-2.533 -20.145,-0.078 -27.637,7.414c-11.196,11.196 -11.196,29.352 0,40.552l18.962,18.961c-5.638,7.408 -13.465,11.214 -23.34,11.214l-25.212,0.008c-0.141,-0.02 -14.975,0.608 -28.613,-12.792c-14.537,-14.296 -18.268,-32.953 -20.06,-41.919c-0.913,-4.575 -1.361,-9.15 -1.799,-13.575c-0.541,-5.52 -1.015,-10.29 -2.294,-14.119c-1.542,-4.625 -1.371,-7.27 -0.7,-8.203c0.558,-0.779 2.123,-0.895 3.003,-0.895c0.275,-0 6.858,0.135 11.979,12.247c0.983,2.329 1.886,5.163 2.848,8.163c4.279,13.375 10.748,33.585 35.848,33.585c2.304,0 4.167,-1.862 4.167,-4.166c-0,-2.304 -1.863,-4.167 -4.167,-4.167c-12.779,0 -18.997,-6.384 -23.039,-14.714c0.042,-0.208 0.134,-0.389 0.147,-0.61l3.711,-96.167c0.133,-2.9 2.516,-5.176 5.42,-5.176c2.996,0 5.428,2.433 5.428,5.428l-0,65.406c-0,0.254 0.1,0.474 0.146,0.716c0.054,0.287 0.063,0.592 0.171,0.854c0.104,0.254 0.286,0.451 0.431,0.676c0.146,0.221 0.252,0.459 0.44,0.651c0.187,0.191 0.43,0.322 0.651,0.472c0.217,0.15 0.413,0.331 0.659,0.439c0.242,0.104 0.511,0.121 0.773,0.179c0.263,0.059 0.502,0.171 0.781,0.179c0.021,0 0.037,-0.016 0.057,-0.016c0.017,0 0.037,0.016 0.057,0.016c2.096,0 3.757,-1.568 4.053,-3.58c0.025,-0.163 0.11,-0.302 0.114,-0.472l1.799,-77.092c0.095,-3.562 2.968,-6.356 6.534,-6.356Zm125.131,0c3.566,0 6.439,2.794 6.534,6.356l1.799,77.092c0.008,0.312 0.12,0.583 0.195,0.87c0.054,0.225 0.063,0.467 0.155,0.676c0.121,0.279 0.321,0.491 0.496,0.732c0.138,0.188 0.237,0.407 0.399,0.57c0.233,0.229 0.531,0.382 0.814,0.553c0.171,0.104 0.317,0.247 0.504,0.326c0.492,0.208 1.029,0.325 1.595,0.325l0.123,0c0.279,-0.008 0.51,-0.12 0.773,-0.179c0.262,-0.058 0.539,-0.075 0.781,-0.179c0.246,-0.108 0.434,-0.289 0.651,-0.439c0.225,-0.154 0.467,-0.276 0.659,-0.472c0.183,-0.188 0.294,-0.43 0.44,-0.651c0.15,-0.225 0.327,-0.422 0.431,-0.676c0.108,-0.262 0.117,-0.563 0.171,-0.846c0.041,-0.242 0.146,-0.466 0.146,-0.724l0,-65.406c0,-2.995 2.433,-5.428 5.428,-5.428c2.905,0 5.287,2.268 5.42,5.16l3.719,96.183c0.009,0.217 0.105,0.402 0.147,0.61c-4.042,8.33 -10.264,14.714 -23.047,14.714c-2.304,0 -4.167,1.863 -4.167,4.167c0,2.304 1.863,4.166 4.167,4.166c25.1,0 31.565,-20.206 35.848,-33.577c0.958,-3 1.869,-5.833 2.856,-8.163c5.121,-12.112 11.696,-12.247 11.971,-12.247c0.88,-0 2.445,0.108 3.003,0.887c0.667,0.929 0.834,3.582 -0.708,8.211c-1.279,3.825 -1.745,8.591 -2.286,14.103c-0.434,4.429 -0.882,9.003 -1.799,13.583c-1.796,8.962 -5.531,27.623 -20.068,41.919c-13.496,13.266 -28.005,12.847 -28.817,12.792l-25,0c-9.867,0 -17.686,-3.802 -23.324,-11.197l19.027,-19.035c11.196,-11.196 11.196,-29.344 0,-40.544c-7.517,-7.521 -18.163,-9.968 -27.742,-7.389c0.808,-17.017 1.765,-49.109 2.311,-59.351c0.121,-2.337 2.044,-4.158 4.386,-4.158c2.421,-0 4.403,1.969 4.411,4.386l0.098,45.63c-0,0.275 0.104,0.515 0.154,0.773c0.05,0.258 0.067,0.523 0.163,0.765c0.104,0.258 0.285,0.475 0.439,0.708c0.142,0.217 0.244,0.443 0.424,0.627c0.191,0.195 0.442,0.326 0.667,0.48c0.212,0.146 0.397,0.327 0.635,0.431c0.262,0.117 0.563,0.145 0.854,0.204c0.234,0.05 0.438,0.146 0.684,0.154c0.05,0.004 0.1,0.008 0.146,0.008l0.008,0c0.075,0 0.133,-0.036 0.204,-0.04c0.487,-0.025 0.97,-0.102 1.4,-0.285c0.183,-0.075 0.309,-0.218 0.48,-0.318c0.287,-0.17 0.592,-0.328 0.83,-0.561c0.162,-0.163 0.257,-0.374 0.39,-0.562c0.175,-0.241 0.376,-0.461 0.497,-0.74c0.104,-0.234 0.112,-0.495 0.171,-0.749c0.058,-0.258 0.17,-0.498 0.179,-0.773l1.782,-65.788c0.096,-2.904 2.455,-5.184 5.363,-5.184c2.958,0 5.363,2.405 5.363,5.363l-0,65.471c-0,0.254 0.101,0.474 0.146,0.716c0.055,0.287 0.063,0.592 0.171,0.854c0.104,0.254 0.286,0.451 0.432,0.676c0.145,0.221 0.252,0.459 0.439,0.651c0.188,0.191 0.43,0.322 0.651,0.472c0.217,0.15 0.413,0.331 0.659,0.439c0.242,0.104 0.511,0.121 0.773,0.179c0.263,0.059 0.503,0.171 0.782,0.179l0.114,0c0.566,0 1.115,-0.117 1.611,-0.325c0.187,-0.079 0.321,-0.222 0.496,-0.326c0.284,-0.171 0.581,-0.32 0.814,-0.553c0.167,-0.163 0.257,-0.382 0.391,-0.57c0.175,-0.241 0.375,-0.457 0.496,-0.732c0.092,-0.209 0.096,-0.451 0.155,-0.676c0.071,-0.287 0.195,-0.562 0.203,-0.87l1.799,-77.084c0.096,-3.566 2.968,-6.364 6.535,-6.364Zm-83.594,104.476c5.077,0 10.151,1.889 14.087,5.672l1.001,1.001l-1.709,1.709c-1.746,1.496 -1.952,4.13 -0.456,5.876c1.496,1.746 4.13,1.952 5.876,0.456c0.162,-0.142 0.318,-0.293 0.455,-0.456l8.545,-8.545c8.096,-7.783 20.96,-7.526 28.744,0.57c7.562,7.871 7.562,20.319 -0,28.19l0.13,-0.041l-35.71,35.628l-35.628,-35.628c-7.783,-8.1 -7.518,-20.976 0.578,-28.76c3.935,-3.783 9.01,-5.672 14.087,-5.672Zm-70.703,87.191c-2.3,0 -4.167,1.867 -4.167,4.167l0,8.333c0,2.3 1.867,4.167 4.167,4.167c2.3,-0 4.166,-1.867 4.166,-4.167l0,-8.333c0,-2.3 -1.866,-4.167 -4.166,-4.167Zm20.833,0c-2.3,0 -4.167,1.867 -4.167,4.167l0,8.333c0,2.3 1.867,4.167 4.167,4.167c2.3,-0 4.167,-1.867 4.167,-4.167l-0,-8.333c-0,-2.3 -1.867,-4.167 -4.167,-4.167Zm20.833,0c-2.3,0 -4.166,1.867 -4.166,4.167l-0,8.333c-0,2.3 1.866,4.167 4.166,4.167c2.3,-0 4.167,-1.867 4.167,-4.167l0,-8.333c0,-2.3 -1.867,-4.167 -4.167,-4.167Zm20.834,0c-2.3,0 -4.167,1.867 -4.167,4.167l0,8.333c0,2.3 1.867,4.167 4.167,4.167c2.3,-0 4.166,-1.867 4.166,-4.167l0,-8.333c0,-2.3 -1.866,-4.167 -4.166,-4.167Zm58.333,0c-2.3,0 -4.167,1.867 -4.167,4.167l0,8.333c0,2.3 1.867,4.167 4.167,4.167c2.3,-0 4.167,-1.867 4.167,-4.167l-0,-8.333c-0,-2.3 -1.867,-4.167 -4.167,-4.167Zm20.833,0c-2.3,0 -4.166,1.867 -4.166,4.167l-0,8.333c-0,2.3 1.866,4.167 4.166,4.167c2.3,-0 4.167,-1.867 4.167,-4.167l0,-8.333c0,-2.3 -1.867,-4.167 -4.167,-4.167Zm20.834,0c-2.3,0 -4.167,1.867 -4.167,4.167l0,8.333c0,2.3 1.867,4.167 4.167,4.167c2.3,-0 4.166,-1.867 4.166,-4.167l0,-8.333c0,-2.3 -1.866,-4.167 -4.166,-4.167Zm20.833,0c-2.3,0 -4.167,1.867 -4.167,4.167l0,8.333c0,2.3 1.867,4.167 4.167,4.167c2.3,-0 4.167,-1.867 4.167,-4.167l-0,-8.333c-0,-2.3 -1.867,-4.167 -4.167,-4.167Z" style="fill:#006353;fill-rule:nonzero;"/><path d="M569.415,118.714c-11.965,-0 -21.698,9.512 -21.698,21.208c0,3.183 1.996,5.411 3.287,8.123c0.686,1.443 0.227,0.98 1.213,2.225c0.931,1.176 2.02,4.866 3.18,5.828c3.783,3.137 8.678,5.032 14.018,5.032c11.965,-0 21.697,-9.513 21.697,-21.208c0,-11.696 -9.732,-21.208 -21.697,-21.208Zm-0,1.462c11.138,0 20.201,8.859 20.201,19.746c-0,10.886 -9.063,19.745 -20.201,19.745c-11.138,-0 -20.201,-8.859 -20.201,-19.745c-0,-10.887 9.063,-19.746 20.201,-19.746Z" style="fill:#006353;fill-rule:nonzero;stroke:#006353;stroke-width:6.56px;"/><g><path d="M568.694,128.789c-3.229,0 -5.855,2.665 -5.855,5.941l-0,1.172c-0,1.373 0.396,2.704 1.147,3.845l0.606,0.925l-0.777,-0c-0.538,-0 -0.976,0.444 -0.976,0.99c-0,0.545 0.438,0.99 0.976,0.99l1.951,0c0.012,0 0.019,-0.004 0.031,-0.004c0.614,1.234 0.945,2.592 0.945,3.992l0,1.953l-3.903,0c-0.538,0 -0.976,0.445 -0.976,0.991c-0,0.545 0.438,0.99 0.976,0.99l13.661,-0c0.538,-0 0.976,-0.445 0.976,-0.99c0,-0.546 -0.438,-0.991 -0.976,-0.991l-7.806,0l-0,-1.953c-0,-2.158 -0.622,-4.247 -1.803,-6.042l-1.281,-1.949c-0.537,-0.817 -0.82,-1.764 -0.82,-2.747l0,-1.172c0,-2.185 1.75,-3.961 3.904,-3.961l1.951,0c2.154,0 3.904,1.776 3.904,3.961c-0,0.546 0.438,0.991 0.976,0.991c0.537,-0 0.975,-0.445 0.975,-0.991c0,-3.276 -2.626,-5.941 -5.855,-5.941l-1.951,0Zm2.68,11.883c-0.537,-0 -0.976,0.444 -0.976,0.99c0,0.545 0.439,0.99 0.976,0.99l2.928,0c0.537,0 0.975,-0.445 0.975,-0.99c0,-0.546 -0.438,-0.99 -0.975,-0.99l-2.928,-0Z" style="fill:#006353;fill-rule:nonzero;stroke:#006353;stroke-width:2.2px;"/></g></g><path d="M813.695,552.094c-13.786,-0 -25,11.214 -25,25c-0,13.786 11.214,25 25,25c13.786,-0 25,-11.214 25,-25c-0,-13.786 -11.214,-25 -25,-25Zm91.666,-0c-13.785,-0 -25,11.214 -25,25c0,13.786 11.215,25 25,25c13.786,-0 25,-11.214 25,-25c0,-13.786 -11.214,-25 -25,-25Zm-91.666,8.333c9.196,0 16.666,7.471 16.666,16.667c0,9.196 -7.47,16.667 -16.666,16.667c-9.196,-0 -16.667,-7.471 -16.667,-16.667c0,-9.196 7.471,-16.667 16.667,-16.667Zm91.666,0c9.196,0 16.667,7.471 16.667,16.667c0,9.196 -7.471,16.667 -16.667,16.667c-9.196,-0 -16.666,-7.471 -16.666,-16.667c-0,-9.196 7.47,-16.667 16.666,-16.667Zm-105.208,45.834c-11.165,-0 -21.549,5.55 -27.751,14.843c-5.712,8.529 -8.707,18.49 -8.707,28.744l-0,42.708c-0,8.04 6.543,14.583 14.583,14.583c2.051,0 3.988,-0.472 5.746,-1.22l-3.077,70.442c-0.211,4.59 1.433,8.936 4.607,12.256c3.173,3.321 7.438,5.144 12.06,5.144c7.666,-0 14.144,-5.16 16.081,-12.256c1.937,7.096 8.414,12.256 16.097,12.256c4.834,-0 9.179,-2.051 12.304,-5.323c2.686,3.223 6.674,5.323 11.182,5.323c4.085,-0 7.748,-1.677 10.417,-4.379c2.669,2.702 6.331,4.379 10.416,4.379c3.549,-0 6.836,-1.303 9.327,-3.386c2.213,2.132 5.257,3.386 8.512,3.386c3.613,-0 6.917,-1.416 9.294,-3.711c2.36,2.295 5.664,3.711 9.196,3.711c6.347,-0 11.669,-4.753 12.418,-11.084l6.136,-55.583l10.791,-0c2.409,-0 4.704,-1.042 6.283,-2.832c1.579,-1.839 2.295,-4.248 2.002,-6.625l-1.612,-11.832c8.79,-3.223 14.209,-12.158 12.859,-21.501l-6.543,-45.833c-2.621,-18.376 -18.571,-32.21 -37.126,-32.21l-17.171,-0c-14.698,-0 -27.816,8.707 -33.822,21.5c-0.993,-0.163 -2.002,-0.26 -3.044,-0.26c-1.546,-0 -3.076,0.179 -4.541,0.472l-2.294,-4.216c-5.795,-10.791 -17.042,-17.496 -29.33,-17.496l-25.293,-0Zm0,8.333l25.293,-0c9.212,-0 17.66,5.045 21.989,13.135l1.888,3.45c-6.169,4.004 -10.221,10.954 -10.221,18.832c-0,12.418 10.091,22.509 22.509,22.509c12.419,0 22.51,-10.091 22.51,-22.509c0,-8.415 -4.638,-15.756 -11.507,-19.629c4.883,-9.424 14.795,-15.788 25.863,-15.788l17.171,-0c14.42,-0 26.839,10.742 28.89,25.049l6.527,45.833c0.683,4.818 -1.693,9.408 -5.778,11.735l-7.959,-58.659c-0.293,-2.295 -2.377,-3.874 -4.672,-3.581c-2.295,0.326 -3.873,2.409 -3.597,4.704l10.726,79.086l-42.757,-0l0,-16.667c0,-16.081 -13.086,-29.167 -29.167,-29.167l-8.333,0c-16.081,0 -29.167,13.086 -29.167,29.167l0,29.167c0,5.419 3.5,10.091 8.334,11.783l-0,33.09c-0,5.127 -3.988,9.293 -8.919,9.293c-4.46,0 -8.106,-3.483 -8.334,-7.943l-3.581,-70.556c-0.113,-2.214 -1.953,-3.939 -4.166,-3.939c-2.23,0 -4.053,1.725 -4.167,3.939l-3.597,70.556c-0.211,4.46 -3.874,7.943 -8.333,7.943c-2.311,0 -4.444,-0.911 -6.039,-2.571c-1.578,-1.661 -2.392,-3.842 -2.295,-6.136l3.597,-82.064l0,-52.458c0,-2.295 -1.871,-4.167 -4.166,-4.167c-2.295,0 -4.167,1.872 -4.167,4.167l0,50.358c0,3.451 -2.799,6.25 -6.25,6.25c-3.45,0 -6.25,-2.799 -6.25,-6.25l0,-42.708c0,-8.578 2.539,-16.96 7.292,-24.121c4.671,-6.966 12.451,-11.133 20.833,-11.133Zm61.458,20.426c0.131,0 0.293,-0.016 0.407,0.033c2.93,0.049 5.681,0.96 7.976,2.539c3.987,2.702 6.608,7.259 6.608,12.419c-0,8.251 -6.739,14.99 -14.991,14.99c-8.252,-0 -14.99,-6.739 -14.99,-14.99c0,-4.786 2.279,-9.083 5.827,-11.833c2.165,-1.758 4.867,-2.832 7.747,-3.076c0.456,-0.049 0.961,-0.082 1.416,-0.082Zm-127.083,33.741c-2.295,-0 -4.167,1.871 -4.167,4.166l0,8.334c0,2.294 1.872,4.166 4.167,4.166c2.295,0 4.167,-1.872 4.167,-4.166l-0,-8.334c-0,-2.295 -1.872,-4.166 -4.167,-4.166Zm20.833,-0c-2.294,-0 -4.166,1.871 -4.166,4.166l-0,8.334c-0,2.294 1.872,4.166 4.166,4.166c2.295,0 4.167,-1.872 4.167,-4.166l0,-8.334c0,-2.295 -1.872,-4.166 -4.167,-4.166Zm208.334,-0c-2.295,-0 -4.167,1.871 -4.167,4.166l0,8.334c0,2.294 1.872,4.166 4.167,4.166c2.295,0 4.166,-1.872 4.166,-4.166l0,-8.334c0,-2.295 -1.871,-4.166 -4.166,-4.166Zm20.833,-0c-2.295,-0 -4.167,1.871 -4.167,4.166l0,8.334c0,2.294 1.872,4.166 4.167,4.166c2.295,0 4.167,-1.872 4.167,-4.166l-0,-8.334c-0,-2.295 -1.872,-4.166 -4.167,-4.166Zm-125,12.5l8.333,-0c11.508,-0 20.834,9.326 20.834,20.833l-0,29.167c-0,2.294 -1.872,4.166 -4.167,4.166c-0.618,0 -1.253,0.163 -1.79,0.407c-1.416,0.667 -2.377,2.1 -2.377,3.76l0,39.583c0,1.172 -0.293,2.214 -0.878,3.125c-1.042,1.872 -3.077,3.125 -5.372,3.125c-3.45,0 -6.25,-2.799 -6.25,-6.25l0,-35.416c0,-2.295 -1.871,-4.167 -4.166,-4.167c-2.295,-0 -4.167,1.872 -4.167,4.167l0,35.416c0,3.451 -2.799,6.25 -6.25,6.25c-3.45,0 -6.25,-2.799 -6.25,-6.25l0,-39.583c0,-2.295 -1.872,-4.167 -4.167,-4.167c-2.294,0 -4.166,-1.872 -4.166,-4.166l-0,-29.167c-0,-11.507 9.326,-20.833 20.833,-20.833Zm45.833,45.833l15.251,-0l-6.038,54.671c-0.212,2.083 -2.002,3.662 -4.134,3.662c-2.784,0 -5.079,-2.295 -5.079,-5.078l0,-53.255Zm-8.333,4.167l0,49.088c0,2.783 -2.295,5.078 -5.078,5.078c-1.676,0 -3.141,-0.993 -3.792,-2.409c0.374,-1.22 0.537,-2.506 0.537,-3.841l-0,-36.133c4.834,-1.692 8.333,-6.364 8.333,-11.783Z" style="fill:#006353;fill-rule:nonzero;"/><path d="M689.58,281.028c-1.058,-0 -2.132,0.407 -2.946,1.221l-5.892,5.892c-1.628,1.627 -1.628,4.264 -0,5.891c0.814,0.814 1.872,1.221 2.946,1.221c1.074,0 2.132,-0.407 2.946,-1.221l5.892,-5.891c1.627,-1.628 1.627,-4.265 -0,-5.892c-0.814,-0.814 -1.888,-1.221 -2.946,-1.221Zm14.746,14.713c-1.074,0 -2.132,0.407 -2.946,1.237l-5.908,5.876c-1.628,1.644 -1.628,4.264 -0,5.908c0.814,0.798 1.872,1.221 2.946,1.221c1.074,-0 2.132,-0.423 2.946,-1.221l5.892,-5.908c1.644,-1.628 1.644,-4.248 -0,-5.876c-0.814,-0.83 -1.872,-1.237 -2.93,-1.237Zm-32.422,2.946c-1.107,0 -2.165,0.44 -2.946,1.221l-17.692,17.692c-0.781,0.781 -1.221,1.839 -1.221,2.946c0,1.107 0.456,2.181 1.237,2.946l142.676,141.716l-106.559,-0c-2.295,-0 -4.167,1.855 -4.167,4.166l0,25c0,2.311 1.872,4.167 4.167,4.167l158.333,-0c2.295,-0 4.167,-1.856 4.167,-4.167l-0,-158.333c-0,-2.311 -1.872,-4.167 -4.167,-4.167l-25,0c-2.295,0 -4.166,1.856 -4.166,4.167l-0,106.559l-141.716,-142.676c-0.781,-0.781 -1.839,-1.237 -2.946,-1.237Zm-0.016,10.075l145.882,146.875c1.188,1.205 2.978,1.563 4.541,0.928c1.562,-0.635 2.588,-2.165 2.588,-3.857l-0,-112.5l16.667,-0l-0,150l-150,-0l-0,-16.667l112.5,-0c1.692,-0 3.206,-1.025 3.841,-2.588c0.651,-1.546 0.293,-3.353 -0.912,-4.541l-146.875,-145.882l11.768,-11.768Zm47.151,1.709c-1.057,0 -2.132,0.407 -2.945,1.221l-5.892,5.908c-1.628,1.628 -1.628,4.248 -0,5.876c0.813,0.83 1.871,1.237 2.946,1.237c1.074,-0 2.132,-0.423 2.946,-1.237l5.891,-5.876c1.628,-1.644 1.628,-4.264 0,-5.908c-0.813,-0.814 -1.888,-1.221 -2.946,-1.221Zm14.73,14.746c-1.058,0 -2.116,0.407 -2.946,1.221l-5.875,5.892c-1.644,1.628 -1.644,4.264 -0,5.892c0.797,0.814 1.871,1.221 2.946,1.221c1.058,-0 2.132,-0.407 2.929,-1.221l5.909,-5.892c1.627,-1.628 1.627,-4.264 -0,-5.892c-0.831,-0.814 -1.888,-1.221 -2.963,-1.221Zm14.73,14.73c-1.058,0 -2.132,0.407 -2.946,1.221l-5.875,5.892c-1.644,1.627 -1.644,4.264 -0,5.892c0.813,0.814 1.871,1.22 2.929,1.22c1.074,0 2.132,-0.406 2.946,-1.22l5.892,-5.892c1.628,-1.628 1.628,-4.265 0,-5.892c-0.814,-0.814 -1.888,-1.221 -2.946,-1.221Zm14.746,14.73c-1.074,-0 -2.148,0.407 -2.946,1.221l-5.908,5.908c-1.628,1.628 -1.628,4.248 0,5.876c0.814,0.813 1.888,1.237 2.946,1.237c1.074,-0 2.148,-0.424 2.962,-1.237l5.876,-5.892c1.644,-1.628 1.644,-4.265 -0,-5.892c-0.814,-0.814 -1.872,-1.221 -2.93,-1.221Zm14.714,14.73c-1.058,-0 -2.116,0.407 -2.93,1.221l-5.908,5.908c-1.628,1.627 -1.628,4.248 -0,5.875c0.83,0.814 1.888,1.221 2.962,1.221c1.058,0 2.132,-0.407 2.946,-1.221l5.876,-5.875c1.644,-1.644 1.644,-4.265 -0,-5.908c-0.814,-0.814 -1.872,-1.221 -2.946,-1.221Zm14.73,14.73c-1.058,-0 -2.116,0.407 -2.946,1.237l-5.876,5.875c-1.644,1.644 -1.644,4.265 -0,5.892c0.797,0.814 1.872,1.221 2.946,1.221c1.058,-0 2.132,-0.407 2.93,-1.221l5.908,-5.892c1.627,-1.627 1.627,-4.248 -0,-5.875c-0.83,-0.83 -1.888,-1.237 -2.962,-1.237Zm14.746,14.729c-1.058,0 -2.132,0.407 -2.946,1.237l-5.892,5.876c-1.628,1.644 -1.628,4.264 -0,5.908c0.814,0.798 1.872,1.221 2.946,1.221c1.074,-0 2.132,-0.423 2.946,-1.221l5.892,-5.908c1.627,-1.628 1.627,-4.248 -0,-5.876c-0.814,-0.83 -1.888,-1.237 -2.946,-1.237Z" style="fill:#006353;fill-rule:nonzero;"/><path d="M424.476,596.698c-1.329,-0 -2.679,0.485 -3.701,1.454l-89.003,84.401c-2.045,1.939 -2.045,5.081 0,7.021l89.003,84.4c1.022,0.97 2.351,1.455 3.701,1.455c1.35,-0 2.679,-0.485 3.702,-1.455l20.942,-19.859c2.045,-1.939 2.045,-5.081 -0,-7.02l-43.418,-41.173l254.369,0c2.883,0 5.235,-2.23 5.235,-4.964l0,-29.789c0,-2.734 -2.352,-4.965 -5.235,-4.965l-254.369,0l43.418,-41.172c2.045,-1.939 2.045,-5.081 -0,-7.021l-20.942,-19.859c-1.023,-0.969 -2.372,-1.454 -3.702,-1.454Zm0,11.985l13.539,12.839l-48.653,46.137c-1.493,1.416 -1.943,3.549 -1.125,5.411c0.798,1.842 2.72,3.064 4.827,3.064l261.771,-0l0,19.859l-261.771,-0c-2.107,-0 -4.029,1.222 -4.827,3.064c-0.818,1.862 -0.368,3.995 1.125,5.411l48.653,46.137l-13.539,12.839l-81.599,-77.381l81.599,-77.38Zm26.177,107.169c-2.883,-0 -5.235,2.23 -5.235,4.965l-0,9.929c-0,2.735 2.352,4.965 5.235,4.965c2.884,-0 5.236,-2.23 5.236,-4.965l-0,-9.929c-0,-2.735 -2.352,-4.965 -5.236,-4.965Zm26.178,-0c-2.884,-0 -5.236,2.23 -5.236,4.965l0,9.929c0,2.735 2.352,4.965 5.236,4.965c2.883,-0 5.235,-2.23 5.235,-4.965l0,-9.929c0,-2.735 -2.352,-4.965 -5.235,-4.965Zm26.177,-0c-2.884,-0 -5.236,2.23 -5.236,4.965l0,9.929c0,2.735 2.352,4.965 5.236,4.965c2.883,-0 5.235,-2.23 5.235,-4.965l0,-9.929c0,-2.735 -2.352,-4.965 -5.235,-4.965Zm26.177,-0c-2.884,-0 -5.235,2.23 -5.235,4.965l-0,9.929c-0,2.735 2.351,4.965 5.235,4.965c2.884,-0 5.235,-2.23 5.235,-4.965l0,-9.929c0,-2.735 -2.351,-4.965 -5.235,-4.965Zm26.177,-0c-2.883,-0 -5.235,2.23 -5.235,4.965l-0,9.929c-0,2.735 2.352,4.965 5.235,4.965c2.884,-0 5.236,-2.23 5.236,-4.965l-0,-9.929c-0,-2.735 -2.352,-4.965 -5.236,-4.965Zm26.177,-0c-2.883,-0 -5.235,2.23 -5.235,4.965l-0,9.929c-0,2.735 2.352,4.965 5.235,4.965c2.884,-0 5.236,-2.23 5.236,-4.965l-0,-9.929c-0,-2.735 -2.352,-4.965 -5.236,-4.965Zm26.178,-0c-2.884,-0 -5.236,2.23 -5.236,4.965l0,9.929c0,2.735 2.352,4.965 5.236,4.965c2.883,-0 5.235,-2.23 5.235,-4.965l-0,-9.929c-0,-2.735 -2.352,-4.965 -5.235,-4.965Zm26.177,-0c-2.884,-0 -5.236,2.23 -5.236,4.965l0,9.929c0,2.735 2.352,4.965 5.236,4.965c2.883,-0 5.235,-2.23 5.235,-4.965l0,-9.929c0,-2.735 -2.352,-4.965 -5.235,-4.965Zm26.177,-0c-2.884,-0 -5.236,2.23 -5.236,4.965l0,9.929c0,2.735 2.352,4.965 5.236,4.965c2.883,-0 5.235,-2.23 5.235,-4.965l0,-9.929c0,-2.735 -2.352,-4.965 -5.235,-4.965Z" style="fill:#006353;fill-rule:nonzero;"/></svg>