<?xml version="1.0" encoding="UTF-8" standalone="no"?>
<!DOCTYPE svg PUBLIC "-//W3C//DTD SVG 1.1//EN" "http://www.w3.org/Graphics/SVG/1.1/DTD/svg11.dtd">
<svg width="100%" height="100%" viewBox="0 0 600 600" version="1.1" xmlns="http://www.w3.org/2000/svg" xmlns:xlink="http://www.w3.org/1999/xlink" xml:space="preserve" xmlns:serif="http://www.serif.com/" style="fill-rule:evenodd;clip-rule:evenodd;stroke-linecap:round;stroke-linejoin:round;stroke-miterlimit:1.5;">
    <g transform="matrix(1.45287,0,0,0.955374,-85.2587,41.5028)">
        <path d="M296.462,201.484C377.552,201.484 384.545,306.743 404.826,402.451C412.736,439.78 421.999,560.261 421.999,560.261C421.999,560.261 346.956,560.522 296.462,560.522C242.388,560.522 162.656,557.004 162.656,557.004C162.656,557.004 177.207,426.845 183.562,395.201C202.85,299.165 215.372,201.484 296.462,201.484Z"/>
    </g>
    <g transform="matrix(1.85315,0,0,1.73361,-195.134,-181.579)">
        <path d="M293.01,125.17C336.598,125.17 371.986,159.388 371.986,201.534C371.986,225.193 378.776,228.404 350.765,246.867C336.149,256.5 312.13,277.898 293.01,277.898C271.668,277.898 252.82,257.6 237.441,245.655C204.804,220.304 214.033,223.045 214.033,201.534C214.033,159.388 249.421,125.17 293.01,125.17Z"/>
    </g>
    <g transform="matrix(3.00845,0.422804,-0.344181,2.44901,-314.28,-233.18)">
        <path d="M204.079,76.429C226.118,76.429 213.484,91.465 210.697,97.321C207.91,103.176 187.358,137.598 187.358,111.56C187.358,106.108 182.276,104.22 179.34,96.954C175.526,87.514 173.627,73.181 173.627,73.181C173.627,73.181 192.651,76.429 204.079,76.429Z"/>
    </g>
    <g transform="matrix(-3.00845,0.422804,0.344181,2.44901,1009.11,-236.099)">
        <path d="M204.079,76.429C226.118,76.429 213.484,91.465 210.697,97.321C207.91,103.176 187.358,137.598 187.358,111.56C187.358,106.108 182.276,104.22 179.34,96.954C175.526,87.514 173.627,73.181 173.627,73.181C173.627,73.181 192.651,76.429 204.079,76.429Z"/>
    </g>
    <g transform="matrix(1.45929,0,0,1.45733,-65.1217,-145.299)">
        <path d="M227.47,470.487C227.47,470.487 66.937,517.59 76.188,394.4C80.427,337.961 121.943,346.073 129.01,266.828" style="fill:none;stroke:black;stroke-width:29.49px;"/>
    </g>
    <g id="Layer1">
    </g>
    <g transform="matrix(1.48588,0,0,1.48588,-148.763,-135.982)">
        <g transform="matrix(1.04806,0,0,1.46091,-23.1126,-82.4096)">
            <path d="M327.329,182.49C327.329,180.658 326.314,178.9 324.508,177.604C322.701,176.308 320.251,175.58 317.697,175.58L233.065,175.58C231.292,175.58 229.854,176.611 229.854,177.883L229.854,200.907C229.854,208.54 238.479,214.727 249.119,214.727C267.295,214.727 294.231,214.727 311.275,214.727C315.533,214.727 319.616,213.514 322.627,211.354C325.638,209.194 327.329,206.265 327.329,203.21L327.329,182.49Z" style="fill:none;stroke:black;stroke-width:15.88px;"/>
        </g>
        <g transform="matrix(1.04806,0,0,1.46091,-23.1126,-82.4096)">
            <path d="M327.329,182.49C327.329,180.658 326.314,178.9 324.508,177.604C322.701,176.308 320.251,175.58 317.697,175.58L233.065,175.58C231.292,175.58 229.854,176.611 229.854,177.883L229.854,200.907C229.854,208.54 238.479,214.727 249.119,214.727C267.295,214.727 294.231,214.727 311.275,214.727C315.533,214.727 319.616,213.514 322.627,211.354C325.638,209.194 327.329,206.265 327.329,203.21L327.329,182.49Z" style="fill:none;stroke:white;stroke-width:5.29px;"/>
        </g>
        <g transform="matrix(1.04806,0,0,1.46091,103.394,-82.4096)">
            <path d="M327.329,177.883C327.329,176.611 325.891,175.58 324.118,175.58L239.486,175.58C236.932,175.58 234.482,176.308 232.676,177.604C230.869,178.9 229.854,180.658 229.854,182.49L229.854,203.21C229.854,206.265 231.546,209.194 234.556,211.354C237.567,213.514 241.65,214.727 245.908,214.727L308.065,214.727C318.704,214.727 327.329,208.54 327.329,200.907C327.329,192.412 327.329,182.331 327.329,177.883Z" style="fill:none;stroke:black;stroke-width:15.88px;"/>
        </g>
        <g transform="matrix(1.04806,0,0,1.46091,103.394,-82.4096)">
            <path d="M327.329,177.883C327.329,176.611 325.891,175.58 324.118,175.58L239.486,175.58C236.932,175.58 234.482,176.308 232.676,177.604C230.869,178.9 229.854,180.658 229.854,182.49L229.854,203.21C229.854,206.265 231.546,209.194 234.556,211.354C237.567,213.514 241.65,214.727 245.908,214.727L308.065,214.727C318.704,214.727 327.329,208.54 327.329,200.907C327.329,192.412 327.329,182.331 327.329,177.883Z" style="fill:none;stroke:white;stroke-width:5.29px;"/>
        </g>
        <g transform="matrix(1.11511,0,0,1,-37.0882,0)">
            <rect x="322.186" y="188.96" width="16.561" height="1.109" style="fill:none;stroke:white;stroke-width:6.35px;"/>
        </g>
    </g>
</svg>
