<?xml version="1.0" encoding="UTF-8" standalone="no"?><!DOCTYPE svg PUBLIC "-//W3C//DTD SVG 1.1//EN" "http://www.w3.org/Graphics/SVG/1.1/DTD/svg11.dtd"><svg width="100%" height="100%" viewBox="0 0 126 242" version="1.1" xmlns="http://www.w3.org/2000/svg" xmlns:xlink="http://www.w3.org/1999/xlink" xml:space="preserve" xmlns:serif="http://www.serif.com/" style="fill-rule:evenodd;clip-rule:evenodd;stroke-linejoin:round;stroke-miterlimit:2;"><path d="M62.662,0c-12.526,0 -23.448,6.953 -29.142,17.196c-0.263,-0.003 -0.519,-0.079 -0.781,-0.033c-16.463,3.038 -28.41,20.35 -28.41,41.17c-0,2.305 1.866,4.167 4.166,4.167l25,0c2.3,0 4.167,-1.862 4.167,-4.167l0,-3.027c6.114,6.948 15.041,11.361 25,11.361c9.96,-0 18.887,-4.413 25,-11.361l0,3.027c0,2.305 1.867,4.167 4.167,4.167l25,0c2.3,0 4.166,-1.862 4.166,-4.167c0,-20.82 -11.947,-38.132 -28.409,-41.17c-0.262,-0.047 -0.52,0.023 -0.782,0.025c-5.695,-10.239 -16.618,-17.188 -29.142,-17.188Zm0,8.333c10.863,0 20.102,6.971 23.543,16.667l-47.086,0c3.441,-9.696 12.68,-16.667 23.543,-16.667Zm-33.333,18.628l-0,27.206l-16.472,-0c1.192,-12.467 7.659,-23.027 16.472,-27.206Zm66.666,0c8.813,4.179 15.28,14.739 16.472,27.206l-16.472,-0l0,-27.206Zm-58.333,6.372l50,0c0,13.788 -11.212,25 -25,25c-13.787,0 -25,-11.212 -25,-25Zm-33.132,99.559c0,-0 -4.378,13.628 -4.528,21.508c-0.05,2.658 0.763,4.194 2.15,6.437c1.709,2.761 5.526,3.861 6.417,4.113c2.987,0.858 6.1,0.564 8.854,-0.79l-4.671,22.494c-0.259,1.225 0.054,2.504 0.846,3.475c0.792,0.97 1.977,1.538 3.231,1.538l12.5,-0l-0,35.416c-0,8.042 6.541,14.584 14.583,14.584c8.042,-0 14.583,-6.542 14.583,-14.584l0,-35.416l8.334,-0l-0,35.416c-0,8.042 6.541,14.584 14.583,14.584c8.042,-0 14.583,-6.542 14.583,-14.584l0,-35.416l16.667,-0c1.292,-0 2.509,-0.603 3.296,-1.62c0.792,-1.021 1.066,-2.351 0.741,-3.597l-5.51,-21.216c1.829,0.33 3.725,0.241 5.567,-0.284c3.229,-0.913 5.894,-3.036 7.511,-5.974c1.617,-2.937 1.988,-6.329 1.033,-9.546l-17.61,-59.505c-2.596,-8.787 -10.817,-14.925 -19.979,-14.925l-50.098,-0c-9.162,-0 -17.379,6.134 -19.979,14.917l-13.104,42.975Zm33.083,-49.559l50.098,0c5.5,0 10.429,3.681 11.979,8.952l7.219,24.382l-8.082,-0l-2.986,-10.547c-0.621,-2.192 -2.899,-3.498 -5.103,-2.881c-2.204,0.6 -3.521,2.853 -2.946,5.062l19.483,75.032l-85.327,0l15.625,-75.228c0.458,-2.2 -0.914,-4.361 -3.093,-4.899c-2.175,-0.537 -4.384,0.76 -4.997,2.914l-2.986,10.547l-8.089,-0l7.218,-24.382c1.558,-5.267 6.491,-8.952 11.987,-8.952Zm-21.614,41.496c0.277,0.058 0.535,0.171 0.83,0.171l7.316,-0l-8.228,29.085c-0.3,1.059 -0.994,1.937 -1.953,2.474c-0.958,0.542 -2.075,0.675 -3.125,0.375c-1.071,-0.309 -1.949,-1.003 -2.482,-1.978c-0.533,-0.975 -0.658,-2.095 -0.342,-3.157l7.984,-26.97Zm93.327,0l7.983,26.97c0.317,1.062 0.196,2.182 -0.342,3.157c-0.537,0.975 -1.423,1.673 -2.49,1.978c-1.05,0.3 -2.167,0.167 -3.125,-0.375c-0.958,-0.537 -1.645,-1.415 -1.945,-2.474l-8.228,-29.085l7.316,-0c0.295,-0 0.553,-0.113 0.831,-0.171Zm-67.497,33.504c-2.3,0 -4.167,1.863 -4.167,4.167l0,8.333c0,2.304 1.867,4.167 4.167,4.167c2.3,0 4.166,-1.863 4.166,-4.167l0,-8.333c0,-2.304 -1.866,-4.167 -4.166,-4.167Zm20.833,0c-2.3,0 -4.167,1.863 -4.167,4.167l0,8.333c0,2.304 1.867,4.167 4.167,4.167c2.3,0 4.167,-1.863 4.167,-4.167l-0,-8.333c-0,-2.304 -1.867,-4.167 -4.167,-4.167Zm20.833,0c-2.3,0 -4.166,1.863 -4.166,4.167l-0,8.333c-0,2.304 1.866,4.167 4.166,4.167c2.3,0 4.167,-1.863 4.167,-4.167l0,-8.333c0,-2.304 -1.867,-4.167 -4.167,-4.167Zm-45.833,33.334l12.5,-0l0,35.416c0,3.446 -2.804,6.25 -6.25,6.25c-3.446,0 -6.25,-2.804 -6.25,-6.25l0,-35.416Zm37.5,-0l12.5,-0l0,35.416c0,3.446 -2.804,6.25 -6.25,6.25c-3.446,0 -6.25,-2.804 -6.25,-6.25l0,-35.416Z" style="fill:#fc9c19;fill-rule:nonzero;"/></svg>