<?xml version="1.0" encoding="UTF-8" standalone="no"?><!DOCTYPE svg PUBLIC "-//W3C//DTD SVG 1.1//EN" "http://www.w3.org/Graphics/SVG/1.1/DTD/svg11.dtd"><svg width="100%" height="100%" viewBox="0 0 267 267" version="1.1" xmlns="http://www.w3.org/2000/svg" xmlns:xlink="http://www.w3.org/1999/xlink" xml:space="preserve" xmlns:serif="http://www.serif.com/" style="fill-rule:evenodd;clip-rule:evenodd;stroke-linejoin:round;stroke-miterlimit:2;"><path d="M52.726,17.122c-11.723,-0.151 -21.173,2.842 -27.189,8.855c-17.546,17.545 -8.273,71.333 27.165,106.77c0.37,0.371 0.744,0.673 1.115,1.026c-0.375,0.356 -0.748,0.659 -1.123,1.033c-35.438,35.438 -44.711,89.225 -27.165,106.771c5.762,5.767 15.437,8.635 27.091,8.635c23.813,-0 55.884,-12 79.672,-35.791c0.375,-0.375 0.684,-0.749 1.041,-1.123c0.356,0.373 0.66,0.75 1.034,1.123c23.8,23.8 55.871,35.791 79.687,35.791c11.646,-0 21.321,-2.873 27.084,-8.627c17.541,-17.546 8.277,-71.337 -27.165,-106.779c-0.371,-0.37 -0.744,-0.672 -1.115,-1.025c0.376,-0.357 0.747,-0.667 1.123,-1.042c35.438,-35.437 44.703,-89.225 27.157,-106.771c-17.534,-17.541 -71.325,-8.272 -106.763,27.165c-0.376,0.375 -0.685,0.748 -1.042,1.123c-0.355,-0.373 -0.66,-0.75 -1.033,-1.123c-14.342,-14.35 -35.379,-26.432 -56.266,-32.324c-8.424,-2.375 -16.274,-3.596 -23.308,-3.687Zm159.229,8.277c10.005,-0.473 18.35,1.512 23.299,6.461c7.312,7.317 8.44,23.147 3.027,42.342c-5.521,19.58 -16.808,39.262 -30.192,52.645c-0.401,0.398 -0.798,0.772 -1.196,1.148c-11.204,-8.868 -22.333,-13.002 -32.747,-13.794c-0.21,-0.019 -0.418,-0.024 -0.627,-0.041c-1.116,-0.071 -2.231,-0.149 -3.329,-0.146c-0.196,-0.003 -0.398,-0.025 -0.594,-0.025c-7.184,0 -13.947,1.576 -20.101,4.159c7.034,-16.301 6.745,-37.074 -10.286,-58.032c0.345,-0.364 0.687,-0.728 1.05,-1.091c19.625,-19.622 49.684,-32.585 71.696,-33.626Zm-160.132,0.049c6.479,-0 13.919,1.127 21.948,3.385c19.575,5.521 39.258,16.805 52.645,30.192c0.488,0.488 0.954,0.973 1.408,1.457c-16.704,20.79 -16.914,41.39 -9.969,57.576c-0.225,-0.093 -0.376,-0.168 -0.619,-0.268c-0.425,-0.184 -0.86,-0.358 -1.31,-0.529c-1.087,-0.404 -2.199,-0.747 -3.686,-1.197c-0.396,-0.125 -0.794,-0.246 -1.14,-0.333c-1.179,-0.321 -2.371,-0.568 -3.613,-0.814l-1.392,-0.252c-1.27,-0.213 -2.565,-0.36 -4.036,-0.48l-1.131,-0.082c-0.429,-0.028 -0.942,-0.011 -1.384,-0.024c-12.293,-0.607 -25.853,3.222 -39.494,14.184c-0.487,-0.454 -0.977,-0.92 -1.464,-1.408c-28.542,-28.541 -43.007,-79.137 -27.157,-94.987c4.258,-4.254 11.39,-6.42 20.394,-6.42Zm-0.041,8.333c-2.304,-0 -4.166,1.862 -4.166,4.167c-0,2.304 1.862,4.166 4.166,4.166c4.217,0 8.958,0.63 14.095,1.872c0.329,0.075 0.66,0.106 0.985,0.106c1.879,-0 3.582,-1.278 4.045,-3.182c0.537,-2.238 -0.839,-4.488 -3.077,-5.029c-5.783,-1.392 -11.177,-2.1 -16.048,-2.1Zm31.559,7.528c-1.62,-0.005 -3.171,0.943 -3.849,2.531c-0.904,2.116 0.081,4.556 2.197,5.46c8.05,3.433 15.898,7.871 22.689,12.826c0.746,0.541 1.6,0.797 2.45,0.797c1.283,0 2.552,-0.592 3.369,-1.701c1.358,-1.858 0.951,-4.464 -0.903,-5.818c-7.296,-5.325 -15.712,-10.083 -24.333,-13.762c-0.525,-0.224 -1.079,-0.332 -1.62,-0.333Zm50.359,26.18c17.284,22.935 12.101,44.833 0.04,59.407c-0.397,-0.487 -0.796,-0.969 -1.196,-1.489l-1.05,-1.343c-0.396,-0.546 -0.76,-1.114 -1.123,-1.684l-1.253,-1.937c-0.442,-0.734 -0.827,-1.477 -1.294,-2.377c-0.013,-0.029 -0.191,-0.361 -0.204,-0.39c-0.187,-0.338 -0.382,-0.676 -0.545,-1.009c-0.408,-0.85 -0.765,-1.73 -1.107,-2.572l-0.569,-1.375c-0.342,-0.929 -0.637,-1.871 -0.912,-2.792l-0.39,-1.302c-0.267,-0.987 -0.476,-1.995 -0.668,-2.978l-0.236,-1.213c-0.17,-1.058 -0.29,-2.129 -0.407,-3.467l-0.073,-0.838c-0.062,-1.108 -0.074,-2.238 -0.032,-3.442l0.024,-0.96c0.058,-1.175 0.163,-2.368 0.326,-3.614l0.122,-0.887c0.191,-1.233 0.432,-2.48 0.748,-3.784l0.204,-0.781c0.337,-1.292 0.729,-2.601 1.212,-3.947l0.269,-0.7c0.508,-1.358 1.075,-2.723 1.725,-4.085l-0.635,-0.31c0.081,-0.164 0.187,-0.331 0.269,-0.496l0.675,0.195c0.709,-1.425 1.474,-2.859 2.336,-4.288l-0.561,-0.342c0.076,-0.125 0.174,-0.25 0.252,-0.375l0.594,0.261c0.921,-1.496 1.91,-2.994 3.214,-4.761c0.081,-0.107 0.164,-0.217 0.245,-0.325Zm36.979,54.817c9.242,0.274 19.229,3.677 29.402,11.467c-9.951,7.624 -19.707,11.022 -28.776,11.426l-0.228,0.008c-1.129,0.033 -2.261,0.009 -3.361,-0.049l-1.106,-0.098c-1.071,-0.096 -2.132,-0.207 -3.207,-0.382l-1.18,-0.228c-1.012,-0.192 -2.014,-0.401 -3.035,-0.676l-1.245,-0.382c-0.95,-0.288 -1.896,-0.578 -2.8,-0.912c-0.321,-0.12 -0.623,-0.245 -0.928,-0.374c-0.016,-0.008 -0.414,-0.171 -0.431,-0.179c-0.875,-0.358 -1.75,-0.71 -2.596,-1.123l-1.782,-0.944c-0.679,-0.358 -1.356,-0.707 -2.01,-1.099c-0.283,-0.17 -0.555,-0.353 -0.83,-0.537l-1.164,-0.765c-0.546,-0.346 -1.09,-0.695 -1.611,-1.074c-0.013,-0.008 -0.032,-0.016 -0.049,-0.024c-0.225,-0.159 -0.438,-0.338 -0.659,-0.513l-0.668,-0.513c-0.695,-0.533 -1.356,-1.062 -1.977,-1.578c7.322,-6.201 16.555,-10.673 26.872,-11.377c0.259,-0.014 0.52,-0.016 0.781,-0.025c0.856,-0.042 1.718,-0.059 2.588,-0.049Zm-73.633,0.057c1.137,-0.021 2.273,-0.009 3.393,0.057l0.733,0.057c9.883,0.936 18.726,5.309 25.789,11.296c-8.117,6.885 -18.596,11.641 -30.298,11.483c-9.241,-0.292 -19.225,-3.657 -29.394,-11.467c0.367,-0.283 0.752,-0.567 1.147,-0.871c1.492,-1.091 2.978,-2.08 4.574,-3.06l0.366,-0.236c1.421,-0.854 2.838,-1.61 4.338,-2.351l0.545,-0.277c1.371,-0.654 2.736,-1.219 4.386,-1.839l0.432,-0.163c1.312,-0.475 2.624,-0.861 4.183,-1.27l0.569,-0.146c1.25,-0.304 2.506,-0.549 3.752,-0.741l0.936,-0.13c1.183,-0.158 2.368,-0.263 3.58,-0.317l0.969,-0.025Zm-37.004,16.927c12.693,10.193 25.309,14.214 36.898,14.242c0.291,0.005 0.589,0.041 0.879,0.041c7.174,-0 13.924,-1.59 20.077,-4.167c-6.98,16.198 -6.799,36.837 9.928,57.658c-0.458,0.487 -0.929,0.977 -1.416,1.465c-28.546,28.541 -79.145,42.994 -94.987,27.156c-7.317,-7.316 -8.448,-23.146 -3.036,-42.342c5.521,-19.579 16.809,-39.253 30.192,-52.637c0.492,-0.487 0.978,-0.961 1.465,-1.416Zm146.851,0.261c0.398,0.374 0.792,0.754 1.188,1.147c13.388,13.388 24.679,33.066 30.2,52.645c5.413,19.196 4.281,35.026 -3.035,42.342c-15.859,15.842 -66.45,1.381 -94.995,-27.164c-0.363,-0.363 -0.707,-0.722 -1.05,-1.083c0.802,-0.993 1.601,-1.912 2.449,-3.043c1.234,-1.684 2.349,-3.363 3.378,-5.046c0.008,-0.013 0.337,-0.521 0.341,-0.529c0.98,-1.638 1.847,-3.269 2.751,-5.094l0.252,-0.497c0.763,-1.591 1.423,-3.174 2.01,-4.728l0.326,-0.895c0.546,-1.534 1.01,-3.066 1.489,-4.883l0.179,-0.7c0.363,-1.492 0.646,-2.965 0.863,-4.394c0.071,-0.405 0.121,-0.81 0.163,-1.156c0.191,-1.429 0.324,-2.852 0.39,-4.272l0.033,-1.205c0.025,-1.379 0.014,-2.744 -0.073,-4.085l-0.098,-1.294c-0.108,-1.296 -0.251,-2.583 -0.464,-3.858l-0.268,-1.407c-0.23,-1.205 -0.481,-2.406 -0.798,-3.597l-0.448,-1.498c-0.333,-1.121 -0.682,-2.224 -1.09,-3.32c-0.133,-0.346 -0.282,-0.684 -0.423,-1.026l-0.301,-0.748c-0.098,-0.236 -0.211,-0.472 -0.31,-0.708c6.217,2.596 13.07,4.127 20.329,4.085c0.046,0 0.093,0 0.139,0c0.404,0 0.812,0 1.204,-0.008l1.253,-0.033c1.413,-0.062 2.84,-0.199 4.248,-0.382c0.384,-0.046 0.773,-0.096 1.123,-0.155c1.467,-0.225 2.951,-0.52 4.468,-0.887l0.969,-0.244c1.529,-0.404 3.072,-0.87 4.614,-1.424c0.021,-0.008 0.386,-0.142 0.407,-0.147l-0.09,-0.227c0.132,-0.051 0.266,-0.104 0.399,-0.155l0.114,0.22c1.583,-0.592 3.173,-1.26 4.752,-2.01l0.692,-0.359c1.634,-0.795 3.273,-1.681 4.932,-2.677l0.504,-0.317c1.684,-1.034 3.36,-2.149 4.989,-3.345c0.025,-0.017 0.333,-0.256 0.358,-0.277c0.648,-0.48 1.291,-1.054 1.937,-1.562Zm-73.185,1.066c12.082,14.575 17.287,36.501 -0.017,59.456c-17.294,-22.957 -12.066,-44.884 0.017,-59.456Zm42.114,64.168c-1.612,-0.18 -3.255,0.594 -4.102,2.1l-4.077,7.267c-1.125,2.004 -0.413,4.543 1.595,5.672c0.642,0.363 1.343,0.537 2.035,0.537c1.458,0 2.875,-0.769 3.637,-2.132l4.078,-7.267c1.125,-2.004 0.413,-4.543 -1.595,-5.672c-0.5,-0.282 -1.034,-0.445 -1.571,-0.505Zm15.796,7.528c-1.619,0.086 -3.11,1.122 -3.695,2.75l-2.832,7.846c-0.779,2.162 0.34,4.547 2.507,5.33c0.462,0.171 0.949,0.252 1.416,0.252c1.704,0 3.306,-1.054 3.914,-2.759l2.832,-7.845c0.779,-2.162 -0.34,-4.547 -2.506,-5.33c-0.538,-0.197 -1.097,-0.273 -1.636,-0.244Zm18.091,4.427c-2.292,-0.246 -4.364,1.33 -4.655,3.613l-1.05,8.26c-0.292,2.284 1.322,4.368 3.605,4.655c0.179,0.021 0.354,0.033 0.529,0.033c2.067,-0 3.867,-1.534 4.134,-3.638l1.05,-8.26c0.292,-2.283 -1.33,-4.376 -3.613,-4.663Z" style="fill:#fc9c19;fill-rule:nonzero;"/><path d="M52.726,17.122c-11.723,-0.151 -21.173,2.842 -27.189,8.855c-17.546,17.545 -8.273,71.333 27.165,106.77c0.37,0.371 0.744,0.673 1.115,1.026c-0.375,0.356 -0.748,0.659 -1.123,1.033c-35.438,35.438 -44.711,89.225 -27.165,106.771c5.762,5.767 15.437,8.635 27.091,8.635c23.813,-0 55.884,-12 79.672,-35.791c0.375,-0.375 0.684,-0.749 1.041,-1.123c0.356,0.373 0.66,0.75 1.034,1.123c23.8,23.8 55.871,35.791 79.687,35.791c11.646,-0 21.321,-2.873 27.084,-8.627c17.541,-17.546 8.277,-71.337 -27.165,-106.779c-0.371,-0.37 -0.744,-0.672 -1.115,-1.025c0.376,-0.357 0.747,-0.667 1.123,-1.042c35.438,-35.437 44.703,-89.225 27.157,-106.771c-17.534,-17.541 -71.325,-8.272 -106.763,27.165c-0.376,0.375 -0.685,0.748 -1.042,1.123c-0.355,-0.373 -0.66,-0.75 -1.033,-1.123c-14.342,-14.35 -35.379,-26.432 -56.266,-32.324c-8.424,-2.375 -16.274,-3.596 -23.308,-3.687Zm159.229,8.277c10.005,-0.473 18.35,1.512 23.299,6.461c7.312,7.317 8.44,23.147 3.027,42.342c-5.521,19.58 -16.808,39.262 -30.192,52.645c-0.401,0.398 -0.798,0.772 -1.196,1.148c-11.204,-8.868 -22.333,-13.002 -32.747,-13.794c-0.21,-0.019 -0.418,-0.024 -0.627,-0.041c-1.116,-0.071 -2.231,-0.149 -3.329,-0.146c-0.196,-0.003 -0.398,-0.025 -0.594,-0.025c-7.184,0 -13.947,1.576 -20.101,4.159c7.034,-16.301 6.745,-37.074 -10.286,-58.032c0.345,-0.364 0.687,-0.728 1.05,-1.091c19.625,-19.622 49.684,-32.585 71.696,-33.626Zm-160.132,0.049c6.479,-0 13.919,1.127 21.948,3.385c19.575,5.521 39.258,16.805 52.645,30.192c0.488,0.488 0.954,0.973 1.408,1.457c-16.704,20.79 -16.914,41.39 -9.969,57.576c-0.225,-0.093 -0.376,-0.168 -0.619,-0.268c-0.425,-0.184 -0.86,-0.358 -1.31,-0.529c-1.087,-0.404 -2.199,-0.747 -3.686,-1.197c-0.396,-0.125 -0.794,-0.246 -1.14,-0.333c-1.179,-0.321 -2.371,-0.568 -3.613,-0.814l-1.392,-0.252c-1.27,-0.213 -2.565,-0.36 -4.036,-0.48l-1.131,-0.082c-0.429,-0.028 -0.942,-0.011 -1.384,-0.024c-12.293,-0.607 -25.853,3.222 -39.494,14.184c-0.487,-0.454 -0.977,-0.92 -1.464,-1.408c-28.542,-28.541 -43.007,-79.137 -27.157,-94.987c4.258,-4.254 11.39,-6.42 20.394,-6.42Zm81.877,42.041c17.284,22.935 12.101,44.833 0.04,59.407c-0.397,-0.487 -0.796,-0.969 -1.196,-1.489l-1.05,-1.343c-0.396,-0.546 -0.76,-1.114 -1.123,-1.684l-1.253,-1.937c-0.442,-0.734 -0.827,-1.477 -1.294,-2.377c-0.013,-0.029 -0.191,-0.361 -0.204,-0.39c-0.187,-0.338 -0.382,-0.676 -0.545,-1.009c-0.408,-0.85 -0.765,-1.73 -1.107,-2.572l-0.569,-1.375c-0.342,-0.929 -0.637,-1.871 -0.912,-2.792l-0.39,-1.302c-0.267,-0.987 -0.476,-1.995 -0.668,-2.978l-0.236,-1.213c-0.17,-1.058 -0.29,-2.129 -0.407,-3.467l-0.073,-0.838c-0.062,-1.108 -0.074,-2.238 -0.032,-3.442l0.024,-0.96c0.058,-1.175 0.163,-2.368 0.326,-3.614l0.122,-0.887c0.191,-1.233 0.432,-2.48 0.748,-3.784l0.204,-0.781c0.337,-1.292 0.729,-2.601 1.212,-3.947l0.269,-0.7c0.508,-1.358 1.075,-2.723 1.725,-4.085l-0.635,-0.31c0.081,-0.164 0.187,-0.331 0.269,-0.496l0.675,0.195c0.709,-1.425 1.474,-2.859 2.336,-4.288l-0.561,-0.342c0.076,-0.125 0.174,-0.25 0.252,-0.375l0.594,0.261c0.921,-1.496 1.91,-2.994 3.214,-4.761c0.081,-0.107 0.164,-0.217 0.245,-0.325Zm36.979,54.817c9.242,0.274 19.229,3.677 29.402,11.467c-9.951,7.624 -19.707,11.022 -28.776,11.426l-0.228,0.008c-1.129,0.033 -2.261,0.009 -3.361,-0.049l-1.106,-0.098c-1.071,-0.096 -2.132,-0.207 -3.207,-0.382l-1.18,-0.228c-1.012,-0.192 -2.014,-0.401 -3.035,-0.676l-1.245,-0.382c-0.95,-0.288 -1.896,-0.578 -2.8,-0.912c-0.321,-0.12 -0.623,-0.245 -0.928,-0.374c-0.016,-0.008 -0.414,-0.171 -0.431,-0.179c-0.875,-0.358 -1.75,-0.71 -2.596,-1.123l-1.782,-0.944c-0.679,-0.358 -1.356,-0.707 -2.01,-1.099c-0.283,-0.17 -0.555,-0.353 -0.83,-0.537l-1.164,-0.765c-0.546,-0.346 -1.09,-0.695 -1.611,-1.074c-0.013,-0.008 -0.032,-0.016 -0.049,-0.024c-0.225,-0.159 -0.438,-0.338 -0.659,-0.513l-0.668,-0.513c-0.695,-0.533 -1.356,-1.062 -1.977,-1.578c7.322,-6.201 16.555,-10.673 26.872,-11.377c0.259,-0.014 0.52,-0.016 0.781,-0.025c0.856,-0.042 1.718,-0.059 2.588,-0.049Zm-73.633,0.057c1.137,-0.021 2.273,-0.009 3.393,0.057l0.733,0.057c9.883,0.936 18.726,5.309 25.789,11.296c-8.117,6.885 -18.596,11.641 -30.298,11.483c-9.241,-0.292 -19.225,-3.657 -29.394,-11.467c0.367,-0.283 0.752,-0.567 1.147,-0.871c1.492,-1.091 2.978,-2.08 4.574,-3.06l0.366,-0.236c1.421,-0.854 2.838,-1.61 4.338,-2.351l0.545,-0.277c1.371,-0.654 2.736,-1.219 4.386,-1.839l0.432,-0.163c1.312,-0.475 2.624,-0.861 4.183,-1.27l0.569,-0.146c1.25,-0.304 2.506,-0.549 3.752,-0.741l0.936,-0.13c1.183,-0.158 2.368,-0.263 3.58,-0.317l0.969,-0.025Zm-37.004,16.927c12.693,10.193 25.309,14.214 36.898,14.242c0.291,0.005 0.589,0.041 0.879,0.041c7.174,-0 13.924,-1.59 20.077,-4.167c-6.98,16.198 -6.799,36.837 9.928,57.658c-0.458,0.487 -0.929,0.977 -1.416,1.465c-28.546,28.541 -79.145,42.994 -94.987,27.156c-7.317,-7.316 -8.448,-23.146 -3.036,-42.342c5.521,-19.579 16.809,-39.253 30.192,-52.637c0.492,-0.487 0.978,-0.961 1.465,-1.416Zm146.851,0.261c0.398,0.374 0.792,0.754 1.188,1.147c13.388,13.388 24.679,33.066 30.2,52.645c5.413,19.196 4.281,35.026 -3.035,42.342c-15.859,15.842 -66.45,1.381 -94.995,-27.164c-0.363,-0.363 -0.707,-0.722 -1.05,-1.083c0.802,-0.993 1.601,-1.912 2.449,-3.043c1.234,-1.684 2.349,-3.363 3.378,-5.046c0.008,-0.013 0.337,-0.521 0.341,-0.529c0.98,-1.638 1.847,-3.269 2.751,-5.094l0.252,-0.497c0.763,-1.591 1.423,-3.174 2.01,-4.728l0.326,-0.895c0.546,-1.534 1.01,-3.066 1.489,-4.883l0.179,-0.7c0.363,-1.492 0.646,-2.965 0.863,-4.394c0.071,-0.405 0.121,-0.81 0.163,-1.156c0.191,-1.429 0.324,-2.852 0.39,-4.272l0.033,-1.205c0.025,-1.379 0.014,-2.744 -0.073,-4.085l-0.098,-1.294c-0.108,-1.296 -0.251,-2.583 -0.464,-3.858l-0.268,-1.407c-0.23,-1.205 -0.481,-2.406 -0.798,-3.597l-0.448,-1.498c-0.333,-1.121 -0.682,-2.224 -1.09,-3.32c-0.133,-0.346 -0.282,-0.684 -0.423,-1.026l-0.301,-0.748c-0.098,-0.236 -0.211,-0.472 -0.31,-0.708c6.217,2.596 13.07,4.127 20.329,4.085c0.046,0 0.093,0 0.139,0c0.404,0 0.812,0 1.204,-0.008l1.253,-0.033c1.413,-0.062 2.84,-0.199 4.248,-0.382c0.384,-0.046 0.773,-0.096 1.123,-0.155c1.467,-0.225 2.951,-0.52 4.468,-0.887l0.969,-0.244c1.529,-0.404 3.072,-0.87 4.614,-1.424c0.021,-0.008 0.386,-0.142 0.407,-0.147l-0.09,-0.227c0.132,-0.051 0.266,-0.104 0.399,-0.155l0.114,0.22c1.583,-0.592 3.173,-1.26 4.752,-2.01l0.692,-0.359c1.634,-0.795 3.273,-1.681 4.932,-2.677l0.504,-0.317c1.684,-1.034 3.36,-2.149 4.989,-3.345c0.025,-0.017 0.333,-0.256 0.358,-0.277c0.648,-0.48 1.291,-1.054 1.937,-1.562Zm-73.185,1.066c12.082,14.575 17.287,36.501 -0.017,59.456c-17.294,-22.957 -12.066,-44.884 0.017,-59.456Z" style="fill:#f0f0f0;fill-rule:nonzero;"/></svg>