<?xml version="1.0" encoding="UTF-8" standalone="no"?><!DOCTYPE svg PUBLIC "-//W3C//DTD SVG 1.1//EN" "http://www.w3.org/Graphics/SVG/1.1/DTD/svg11.dtd"><svg width="100%" height="100%" viewBox="0 0 304 314" version="1.1" xmlns="http://www.w3.org/2000/svg" xmlns:xlink="http://www.w3.org/1999/xlink" xml:space="preserve" xmlns:serif="http://www.serif.com/" style="fill-rule:evenodd;clip-rule:evenodd;stroke-linejoin:round;stroke-miterlimit:2;"><path d="M81.901,8.333c-5.566,0 -10.807,2.165 -14.73,6.104l-36.067,36.068c-3.939,3.938 -6.104,9.163 -6.104,14.729l0,147.266c0,6.885 5.615,12.5 12.5,12.5l20.833,0l0,12.5c0,6.885 5.616,12.5 12.5,12.5l158.334,0c6.884,0 12.5,-5.615 12.5,-12.5l-0,-191.667c-0,-6.884 -5.616,-12.5 -12.5,-12.5l-20.834,0l0,-12.5c0,-6.884 -5.615,-12.5 -12.5,-12.5l-113.932,0Zm1.432,8.334l112.5,-0c2.295,-0 4.167,1.871 4.167,4.166l0,162.5c0.125,0 0.087,16.667 0,16.667l0,12.5c0,2.295 -1.872,4.167 -4.167,4.167l-158.333,-0c-2.295,-0 -4.167,-1.872 -4.167,-4.167l0,-12.5c2.312,0 4.167,-1.855 4.167,-4.167l0,-8.333c0,-2.311 -1.855,-4.167 -4.167,-4.167l0,-116.666l37.5,-0c6.885,-0 12.5,-5.616 12.5,-12.5l0,-37.5Zm-8.333,2.083l0,35.417c0,2.295 -1.872,4.166 -4.167,4.166l-35.416,0c0.472,-0.7 0.993,-1.351 1.578,-1.937l36.068,-36.067c0.602,-0.602 1.253,-1.123 1.937,-1.579Zm133.333,22.917l20.834,-0c2.295,-0 4.166,1.871 4.166,4.166l0,191.667c0,2.295 -1.871,4.167 -4.166,4.167l-158.334,-0c-2.295,-0 -4.166,-1.872 -4.166,-4.167l-0,-12.5l129.166,0c6.885,0 12.5,-5.615 12.5,-12.5l0,-170.833Zm-137.5,41.666c-2.311,0 -4.166,1.856 -4.166,4.167c-0,2.311 1.855,4.167 4.166,4.167l58.334,-0c2.311,-0 4.166,-1.856 4.166,-4.167c0,-2.311 -1.855,-4.167 -4.166,-4.167l-58.334,0Zm75,0c-2.311,0 -4.166,1.856 -4.166,4.167c-0,2.311 1.855,4.167 4.166,4.167l16.667,-0c2.311,-0 4.167,-1.856 4.167,-4.167c-0,-2.311 -1.856,-4.167 -4.167,-4.167l-16.667,0Zm-75,16.667c-2.311,0 -4.166,1.855 -4.166,4.167c-0,2.311 1.855,4.166 4.166,4.166l75,0c2.312,0 4.167,-1.855 4.167,-4.166c0,-2.312 -1.855,-4.167 -4.167,-4.167l-75,0Zm0,25c-2.311,0 -4.166,1.855 -4.166,4.167c-0,2.311 1.855,4.166 4.166,4.166l44.95,0c2.311,0 4.166,-1.855 4.166,-4.166c0,-2.312 -1.855,-4.167 -4.166,-4.167l-44.95,0Zm0,16.667c-2.311,-0 -4.166,1.855 -4.166,4.166c-0,2.312 1.855,4.167 4.166,4.167l36.326,0c2.311,0 2.311,-8.333 -0,-8.333l-36.326,-0Zm-16.666,41.666c-2.312,0 -4.167,1.856 -4.167,4.167l0,8.333c0,2.312 1.855,4.167 4.167,4.167c2.311,0 4.166,-1.855 4.166,-4.167l0,-8.333c0,-2.311 -1.855,-4.167 -4.166,-4.167Zm20.833,0c-2.311,0 -4.167,1.856 -4.167,4.167l0,8.333c0,2.312 1.856,4.167 4.167,4.167c2.311,0 4.167,-1.855 4.167,-4.167l-0,-8.333c-0,-2.311 -1.856,-4.167 -4.167,-4.167Z" style="fill:#f0f0f0;fill-rule:nonzero;"/><path d="M175.056,103.079c-45.3,0 -82.154,36.854 -82.154,82.154c-0,45.3 36.854,82.154 82.154,82.154c18.125,0 34.877,-5.905 48.471,-15.879c-0,0 9.127,8.935 9.563,9.089c0,0.077 -0.013,0.141 -0.013,0.218c0,4.39 1.707,8.523 4.814,11.617l33.991,33.991c3.209,3.209 7.407,4.801 11.617,4.801c4.211,0 8.421,-1.592 11.617,-4.801l1.13,-1.142c3.106,-3.094 4.814,-7.214 4.814,-11.604c-0,-4.391 -1.708,-8.524 -4.814,-11.618l-33.991,-33.991c-3.261,-3.26 -7.548,-4.839 -11.823,-4.775c-0.167,-0.449 -9.101,-9.589 -9.101,-9.589c9.974,-13.594 15.879,-30.346 15.879,-48.471c-0,-45.3 -36.854,-82.154 -82.154,-82.154Zm-0,6.572c41.68,0 75.582,33.902 75.582,75.582c-0,41.68 -33.902,75.582 -75.582,75.582c-41.68,-0 -75.582,-33.902 -75.582,-75.582c0,-41.68 33.902,-75.582 75.582,-75.582Zm-0,13.145c-16.675,0 -32.361,6.495 -44.158,18.279c-24.338,24.351 -24.338,63.965 0,88.303c11.797,11.797 27.483,18.292 44.158,18.292c16.675,0 32.361,-6.495 44.158,-18.279c24.338,-24.351 24.338,-63.965 -0,-88.316c-11.797,-11.784 -27.483,-18.279 -44.158,-18.279Zm-0,6.572c14.916,0 28.946,5.815 39.498,16.367c21.784,21.771 21.784,57.225 0,78.996c-10.552,10.552 -24.582,16.367 -39.498,16.367c-14.916,-0 -28.947,-5.815 -39.498,-16.367c-21.784,-21.771 -21.784,-57.212 -0,-78.996c10.551,-10.552 24.582,-16.367 39.498,-16.367Zm-0.629,9.859c-11.951,0.141 -23.35,4.916 -31.912,13.465c-1.283,1.297 -1.283,3.364 0,4.66c0.642,0.629 1.489,0.963 2.336,0.963c0.835,-0 1.682,-0.334 2.324,-0.963c8.369,-8.382 19.935,-12.528 31.758,-11.36c1.81,0.154 3.414,-1.143 3.594,-2.953c0.179,-1.81 -1.143,-3.414 -2.953,-3.594c-1.72,-0.167 -3.44,-0.244 -5.147,-0.218Zm23.17,6.161c-1.258,-0.179 -2.58,0.398 -3.286,1.566c-0.937,1.554 -0.437,3.569 1.129,4.506c2.696,1.643 5.225,3.62 7.497,5.892c0.642,0.642 1.476,0.963 2.323,0.963c0.848,-0 1.682,-0.321 2.337,-0.963c1.27,-1.284 1.27,-3.363 -0,-4.647c-2.658,-2.644 -5.61,-4.955 -8.768,-6.867c-0.385,-0.231 -0.808,-0.385 -1.232,-0.45Zm-68.547,36.559c-1.81,-0 -3.287,1.463 -3.287,3.286c0,1.823 1.477,3.286 3.287,3.286l6.572,0c1.81,0 3.286,-1.463 3.286,-3.286c0,-1.823 -1.476,-3.286 -3.286,-3.286l-6.572,-0Zm85.44,-0c-1.81,-0 -3.286,1.463 -3.286,3.286c-0,1.823 1.476,3.286 3.286,3.286l6.572,0c1.81,0 3.286,-1.463 3.286,-3.286c0,-1.823 -1.476,-3.286 -3.286,-3.286l-6.572,-0Zm-75.941,14.775c-0.424,-0.013 -0.873,0.064 -1.284,0.231l-6.097,2.465c-1.682,0.68 -2.491,2.593 -1.81,4.274c0.513,1.284 1.745,2.067 3.042,2.067c0.411,-0 0.834,-0.077 1.232,-0.244l6.098,-2.465c1.681,-0.68 2.49,-2.593 1.81,-4.274c-0.514,-1.258 -1.708,-2.041 -2.991,-2.054Zm72.809,0.629c-1.284,-0 -2.503,0.757 -3.03,2.002c-0.706,1.682 0.064,3.607 1.746,4.313l6.046,2.568c0.411,0.179 0.847,0.256 1.284,0.256c1.283,0 2.49,-0.744 3.029,-2.002c0.706,-1.669 -0.077,-3.594 -1.746,-4.3l-6.046,-2.568c-0.423,-0.179 -0.86,-0.269 -1.283,-0.269Zm-64.183,12.477c-0.847,-0 -1.682,0.321 -2.324,0.963l-4.646,4.647c-1.284,1.283 -1.284,3.363 -0,4.646c0.641,0.642 1.476,0.963 2.323,0.963c0.847,0 1.682,-0.321 2.323,-0.963l4.647,-4.646c1.284,-1.284 1.284,-3.364 0,-4.647c-0.642,-0.642 -1.489,-0.963 -2.323,-0.963Zm55.762,-0c-0.834,-0 -1.682,0.321 -2.323,0.963c-1.284,1.283 -1.284,3.363 -0,4.647l4.646,4.646c0.642,0.642 1.477,0.963 2.324,0.963c0.847,0 1.681,-0.321 2.323,-0.963c1.284,-1.283 1.284,-3.363 0,-4.646l-4.647,-4.647c-0.641,-0.642 -1.489,-0.963 -2.323,-0.963Zm-43.285,8.421c-1.284,-0 -2.503,0.744 -3.029,2.002l-2.568,6.046c-0.706,1.669 0.077,3.607 1.746,4.313c0.424,0.18 0.847,0.257 1.284,0.257c1.271,0 2.49,-0.757 3.029,-2.002l2.567,-6.046c0.706,-1.669 -0.077,-3.607 -1.745,-4.313c-0.424,-0.18 -0.86,-0.257 -1.284,-0.257Zm30.23,0.257c-0.423,-0 -0.873,0.077 -1.284,0.243c-1.694,0.681 -2.503,2.593 -1.822,4.275l2.464,6.097c0.514,1.284 1.746,2.054 3.055,2.054c0.411,0 0.822,-0.077 1.233,-0.244c1.681,-0.68 2.49,-2.593 1.81,-4.274l-2.465,-6.098c-0.513,-1.258 -1.707,-2.028 -2.991,-2.053Zm-14.826,2.875c-1.81,-0 -3.286,1.463 -3.286,3.286l-0,6.572c-0,1.823 1.476,3.287 3.286,3.287c1.81,-0 3.286,-1.464 3.286,-3.287l0,-6.572c0,-1.823 -1.476,-3.286 -3.286,-3.286Zm62.142,17.496l6.161,6.175c-1.553,0.77 -3.042,1.732 -4.338,3.029l-1.13,1.117c-1.284,1.283 -2.246,2.76 -3.029,4.326l-6.162,-6.149c3.042,-2.619 5.879,-5.456 8.498,-8.498Zm13.44,10.95c2.528,-0 5.057,0.963 6.983,2.888l33.991,33.991c1.861,1.862 2.875,4.339 2.875,6.971c0,2.631 -1.027,5.108 -2.888,6.97l-1.129,1.129c-3.851,3.839 -10.09,3.839 -13.941,0l-33.991,-33.991c-1.862,-1.861 -2.888,-4.339 -2.888,-6.97c-0,-2.632 1.026,-5.109 2.888,-6.97l1.129,-1.13c1.926,-1.925 4.455,-2.888 6.971,-2.888Z" style="fill:#fc9c19;fill-rule:nonzero;"/></svg>