<?xml version="1.0" encoding="UTF-8" standalone="no"?><!DOCTYPE svg PUBLIC "-//W3C//DTD SVG 1.1//EN" "http://www.w3.org/Graphics/SVG/1.1/DTD/svg11.dtd"><svg width="100%" height="100%" viewBox="0 0 267 267" version="1.1" xmlns="http://www.w3.org/2000/svg" xmlns:xlink="http://www.w3.org/1999/xlink" xml:space="preserve" xmlns:serif="http://www.serif.com/" style="fill-rule:evenodd;clip-rule:evenodd;stroke-linejoin:round;stroke-miterlimit:2;"><path d="M162.5,8.333c-6.885,0 -12.5,5.616 -12.5,12.5l0,4.932c-1.302,-0.472 -2.702,-0.765 -4.167,-0.765l-33.333,0c-6.885,0 -12.5,5.615 -12.5,12.5l0,15.234c-0.911,-0.52 -1.855,-0.976 -2.93,-1.253l-24.153,-6.478c-3.207,-0.846 -6.576,-0.423 -9.473,1.254c-2.881,1.66 -4.964,4.361 -5.827,7.584l-30.208,112.695c-1.774,6.674 2.181,13.526 8.854,15.316l5.534,1.481l-29.297,0c-6.885,0 -12.5,5.616 -12.5,12.5l0,25c0,6.885 5.615,12.5 12.5,12.5l20.833,0l0,20.834c0,6.884 5.616,12.5 12.5,12.5c6.885,-0 12.5,-5.616 12.5,-12.5l0,-20.834l150,0l0,20.834c0,6.884 5.616,12.5 12.5,12.5c6.885,-0 12.5,-5.616 12.5,-12.5l0,-20.834l20.834,0c6.884,0 12.5,-5.615 12.5,-12.5l-0,-25c-0,-6.884 -5.616,-12.5 -12.5,-12.5l-12.5,0l-0,-120.833c-0,-6.885 -5.616,-12.5 -12.5,-12.5l-16.667,-0c-1.465,-0 -2.865,0.293 -4.167,0.765l0,-29.932c0,-6.884 -5.615,-12.5 -12.5,-12.5l-33.333,0Zm-0,8.334l33.333,-0c2.295,-0 4.167,1.871 4.167,4.166l-0,162.5l-41.667,0l0,-162.5c0,-2.295 1.872,-4.166 4.167,-4.166Zm-50,16.666l33.333,0c2.295,0 4.167,1.872 4.167,4.167l-0,145.833l-41.667,0l0,-145.833c0,-2.295 1.872,-4.167 4.167,-4.167Zm58.333,0c-2.311,0 -4.166,1.856 -4.166,4.167c-0,2.311 1.855,4.167 4.166,4.167l16.667,-0c2.311,-0 4.167,-1.856 4.167,-4.167c-0,-2.311 -1.856,-4.167 -4.167,-4.167l-16.667,0Zm-50,16.667c-2.311,-0 -4.166,1.855 -4.166,4.167c-0,2.311 1.855,4.166 4.166,4.166l16.667,0c2.311,0 4.167,-1.855 4.167,-4.166c-0,-2.312 -1.856,-4.167 -4.167,-4.167l-16.667,-0Zm-51.155,2.913c0.374,0 0.732,0.049 1.09,0.147l24.154,6.461c2.213,0.603 3.548,2.898 2.946,5.127l-30.208,112.679c-0.277,1.075 -0.977,1.97 -1.937,2.54c-0.961,0.553 -2.084,0.699 -3.158,0.406l-24.154,-6.461c-2.213,-0.602 -3.531,-2.897 -2.929,-5.127l30.192,-112.679c0.277,-1.074 0.976,-1.97 1.937,-2.539c0.634,-0.358 1.351,-0.554 2.067,-0.554Zm142.822,5.42l16.667,0c2.295,0 4.166,1.872 4.166,4.167l0,120.833l-25,0l0,-8.333l16.667,0c2.311,0 4.167,-1.855 4.167,-4.167c-0,-2.311 -1.856,-4.166 -4.167,-4.166l-16.667,-0l0,-83.334l16.667,0c2.311,0 4.167,-1.855 4.167,-4.166c-0,-2.312 -1.856,-4.167 -4.167,-4.167l-16.667,0l0,-12.5c0,-2.295 1.872,-4.167 4.167,-4.167Zm-141.52,3.76c-1.595,0.212 -3.011,1.384 -3.451,3.044c-0.602,2.213 0.733,4.508 2.946,5.11l16.114,4.297c0.358,0.098 0.716,0.147 1.074,0.147c1.839,-0 3.532,-1.221 4.02,-3.076c0.602,-2.23 -0.732,-4.509 -2.946,-5.111l-16.097,-4.313c-0.553,-0.147 -1.123,-0.179 -1.66,-0.098Zm29.02,26.774l-0,94.466l-26.107,0c0.798,-1.155 1.449,-2.441 1.823,-3.841l24.284,-90.625Zm-54.883,69.808c-1.611,0.228 -3.027,1.384 -3.467,3.044c-0.602,2.23 0.733,4.508 2.946,5.11l16.097,4.314c0.358,0.097 0.717,0.146 1.091,0.146c1.839,0 3.532,-1.237 4.02,-3.092c0.602,-2.214 -0.732,-4.509 -2.946,-5.111l-16.113,-4.297c-0.554,-0.163 -1.107,-0.195 -1.628,-0.114Zm75.716,7.992c-2.311,-0 -4.166,1.855 -4.166,4.166c-0,2.312 1.855,4.167 4.166,4.167l16.667,0c2.311,0 4.167,-1.855 4.167,-4.167c-0,-2.311 -1.856,-4.166 -4.167,-4.166l-16.667,-0Zm50,-0c-2.311,-0 -4.166,1.855 -4.166,4.166c-0,2.312 1.855,4.167 4.166,4.167l16.667,0c2.311,0 4.167,-1.855 4.167,-4.167c-0,-2.311 -1.856,-4.166 -4.167,-4.166l-16.667,-0Zm-158.333,25l241.667,-0c2.295,-0 4.166,1.871 4.166,4.166l0,25c0,2.295 -1.871,4.167 -4.166,4.167l-241.667,0c-2.295,0 -4.167,-1.872 -4.167,-4.167l0,-25c0,-2.295 1.872,-4.166 4.167,-4.166Zm16.667,8.333c-2.507,0 -4.167,1.855 -4.167,4.167l-0,8.333c-0,2.311 1.66,4.167 4.167,4.167c2.506,-0 4.166,-1.856 4.166,-4.167l0,-8.333c0,-2.312 -1.66,-4.167 -4.166,-4.167Zm20.833,0c-2.507,0 -4.167,1.855 -4.167,4.167l0,8.333c0,2.311 1.66,4.167 4.167,4.167c2.507,-0 4.167,-1.856 4.167,-4.167l-0,-8.333c-0,-2.312 -1.66,-4.167 -4.167,-4.167Zm20.833,0c-2.506,0 -4.166,1.855 -4.166,4.167l-0,8.333c-0,2.311 1.66,4.167 4.166,4.167c2.507,-0 4.167,-1.856 4.167,-4.167l-0,-8.333c-0,-2.312 -1.66,-4.167 -4.167,-4.167Zm20.834,0c-2.507,0 -4.167,1.855 -4.167,4.167l-0,8.333c-0,2.311 1.66,4.167 4.167,4.167c2.506,-0 4.166,-1.856 4.166,-4.167l0,-8.333c0,-2.312 -1.66,-4.167 -4.166,-4.167Zm20.833,0c-2.507,0 -4.167,1.855 -4.167,4.167l0,8.333c0,2.311 1.66,4.167 4.167,4.167c2.507,-0 4.167,-1.856 4.167,-4.167l-0,-8.333c-0,-2.312 -1.66,-4.167 -4.167,-4.167Zm20.833,0c-2.506,0 -4.166,1.855 -4.166,4.167l-0,8.333c-0,2.311 1.66,4.167 4.166,4.167c2.507,-0 4.167,-1.856 4.167,-4.167l-0,-8.333c-0,-2.312 -1.66,-4.167 -4.167,-4.167Zm20.834,0c-2.507,0 -4.167,1.855 -4.167,4.167l-0,8.333c-0,2.311 1.66,4.167 4.167,4.167c2.506,-0 4.166,-1.856 4.166,-4.167l0,-8.333c0,-2.312 -1.66,-4.167 -4.166,-4.167Zm20.833,0c-2.507,0 -4.167,1.855 -4.167,4.167l0,8.333c0,2.311 1.66,4.167 4.167,4.167c2.507,-0 4.167,-1.856 4.167,-4.167l-0,-8.333c-0,-2.312 -1.66,-4.167 -4.167,-4.167Zm20.833,0c-2.506,0 -4.166,1.855 -4.166,4.167l-0,8.333c-0,2.311 1.66,4.167 4.166,4.167c2.507,-0 4.167,-1.856 4.167,-4.167l-0,-8.333c-0,-2.312 -1.66,-4.167 -4.167,-4.167Zm20.834,0c-2.507,0 -4.167,1.855 -4.167,4.167l0,8.333c0,2.311 1.66,4.167 4.167,4.167c2.506,-0 4.166,-1.856 4.166,-4.167l0,-8.333c0,-2.312 -1.66,-4.167 -4.166,-4.167Zm20.833,0c-2.507,0 -4.167,1.855 -4.167,4.167l0,8.333c0,2.311 1.66,4.167 4.167,4.167c2.507,-0 4.167,-1.856 4.167,-4.167l-0,-8.333c-0,-2.312 -1.66,-4.167 -4.167,-4.167Zm-195.833,33.333l8.333,0l-0,20.834c-0,2.295 -1.872,4.166 -4.167,4.166c-2.295,0 -4.166,-1.871 -4.166,-4.166l-0,-20.834Zm175,0l8.333,0l0,20.834c0,2.295 -1.872,4.166 -4.167,4.166c-2.295,0 -4.166,-1.871 -4.166,-4.166l-0,-20.834Z" style="fill:#006353;fill-rule:nonzero;"/><path d="M162.5,8.333c-6.885,0 -12.5,5.616 -12.5,12.5l0,4.932c-1.302,-0.472 -2.702,-0.765 -4.167,-0.765l-33.333,0c-6.885,0 -12.5,5.615 -12.5,12.5l0,15.234c-0.911,-0.52 -1.855,-0.976 -2.93,-1.253l-24.153,-6.478c-3.207,-0.846 -6.576,-0.423 -9.473,1.254c-2.881,1.66 -4.964,4.361 -5.827,7.584l-30.208,112.695c-1.774,6.674 2.181,13.526 8.854,15.316l5.534,1.481l-29.297,0c-6.885,0 -12.5,5.616 -12.5,12.5l0,25c0,6.885 5.615,12.5 12.5,12.5l20.833,0l0,20.834c0,6.884 5.616,12.5 12.5,12.5c6.885,-0 12.5,-5.616 12.5,-12.5l0,-20.834l150,0l0,20.834c0,6.884 5.616,12.5 12.5,12.5c6.885,-0 12.5,-5.616 12.5,-12.5l0,-20.834l20.834,0c6.884,0 12.5,-5.615 12.5,-12.5l-0,-25c-0,-6.884 -5.616,-12.5 -12.5,-12.5l-12.5,0l-0,-120.833c-0,-6.885 -5.616,-12.5 -12.5,-12.5l-16.667,-0c-1.465,-0 -2.865,0.293 -4.167,0.765l0,-29.932c0,-6.884 -5.615,-12.5 -12.5,-12.5l-33.333,0Zm-0,8.334l33.333,-0c2.295,-0 4.167,1.871 4.167,4.166l-0,162.5l-41.667,0l0,-162.5c0,-2.295 1.872,-4.166 4.167,-4.166Zm-50,16.666l33.333,0c2.295,0 4.167,1.872 4.167,4.167l-0,145.833l-41.667,0l0,-145.833c0,-2.295 1.872,-4.167 4.167,-4.167Zm-42.822,19.58c0.374,0 0.732,0.049 1.09,0.147l24.154,6.461c2.213,0.603 3.548,2.898 2.946,5.127l-30.208,112.679c-0.277,1.075 -0.977,1.97 -1.937,2.54c-0.961,0.553 -2.084,0.699 -3.158,0.406l-24.154,-6.461c-2.213,-0.602 -3.531,-2.897 -2.929,-5.127l30.192,-112.679c0.277,-1.074 0.976,-1.97 1.937,-2.539c0.634,-0.358 1.351,-0.554 2.067,-0.554Zm142.822,5.42l16.667,0c2.295,0 4.166,1.872 4.166,4.167l0,120.833l-25,0l0,-120.833c0,-2.295 1.872,-4.167 4.167,-4.167Zm-112.5,30.534l-0,94.466l-26.107,0c0.798,-1.155 1.449,-2.441 1.823,-3.841l24.284,-90.625Zm-87.5,102.8l241.667,-0c2.295,-0 4.166,1.871 4.166,4.166l0,25c0,2.295 -1.871,4.167 -4.166,4.167l-241.667,0c-2.295,0 -4.167,-1.872 -4.167,-4.167l0,-25c0,-2.295 1.872,-4.166 4.167,-4.166Zm29.167,41.666l8.333,0l-0,20.834c-0,2.295 -1.872,4.166 -4.167,4.166c-2.295,0 -4.166,-1.871 -4.166,-4.166l-0,-20.834Zm175,0l8.333,0l0,20.834c0,2.295 -1.872,4.166 -4.167,4.166c-2.295,0 -4.166,-1.871 -4.166,-4.166l-0,-20.834Z" style="fill:#f0f0f0;fill-rule:nonzero;"/></svg>