<?xml version="1.0" encoding="UTF-8" standalone="no"?><!DOCTYPE svg PUBLIC "-//W3C//DTD SVG 1.1//EN" "http://www.w3.org/Graphics/SVG/1.1/DTD/svg11.dtd"><svg width="100%" height="100%" viewBox="0 0 125 242" version="1.1" xmlns="http://www.w3.org/2000/svg" xmlns:xlink="http://www.w3.org/1999/xlink" xml:space="preserve" xmlns:serif="http://www.serif.com/" style="fill-rule:evenodd;clip-rule:evenodd;stroke-linejoin:round;stroke-miterlimit:2;"><path d="M63.157,0c-18.379,0 -33.333,14.954 -33.333,33.333c0,18.38 14.954,33.334 33.333,33.334c18.38,-0 33.334,-14.954 33.334,-33.334c-0,-18.379 -14.954,-33.333 -33.334,-33.333Zm0,8.333c13.788,0 25,11.213 25,25c0,13.788 -11.212,25 -25,25c-13.787,0 -25,-11.212 -25,-25c0,-13.787 11.213,-25 25,-25Zm-25.048,66.667c-9.163,0 -17.383,6.134 -19.979,14.917l-17.611,59.513c-0.954,3.217 -0.583,6.609 1.034,9.546c1.616,2.938 4.282,5.061 7.511,5.974c3.2,0.916 6.564,0.505 9.464,-1.115c2.9,-1.625 4.996,-4.279 5.901,-7.479l5.395,-19.059l0,89.786c0,8.042 6.542,14.584 14.583,14.584c8.042,-0 14.584,-6.542 14.584,-14.584l-0,-47.916l8.333,-0l0,47.916c0,8.042 6.542,14.584 14.583,14.584c8.042,-0 14.584,-6.542 14.584,-14.584l-0,-89.786l5.395,19.059c0.904,3.2 3,5.854 5.9,7.479c1.441,0.802 5.543,1.802 9.287,0.737c3.803,-1.082 7.24,-4.264 7.514,-7.96c0.96,-12.963 -16.402,-66.687 -16.402,-66.687c-2.596,-8.787 -10.816,-14.925 -19.979,-14.925l-50.097,0Zm-0,8.333l50.097,0c5.496,0 10.429,3.681 11.988,8.952l4.744,16.048l-7.975,0l-0.627,-2.205c-0.567,-1.996 -2.536,-3.295 -4.59,-2.995c-2.058,0.283 -3.589,2.047 -3.589,4.126l0,63.574l-50,0l0,-63.574c0,-2.079 -1.534,-3.843 -3.597,-4.126c-2.058,-0.312 -4.015,0.995 -4.581,2.995l-0.627,2.205l-7.983,0l4.752,-16.048c1.554,-5.267 6.488,-8.952 11.988,-8.952Zm-19.206,33.334l8.097,-0l-10.587,37.418c-0.3,1.059 -0.995,1.937 -1.954,2.474c-0.958,0.542 -2.075,0.675 -3.125,0.375c-1.066,-0.305 -1.944,-1.003 -2.482,-1.978c-0.537,-0.975 -0.658,-2.095 -0.341,-3.157l10.392,-35.132Zm80.412,-0l8.089,-0c-0,-0 10.86,31.218 10.336,37.034c-0.288,3.194 -4.926,3.4 -5.885,2.858c-0.958,-0.537 -1.653,-1.415 -1.953,-2.474l-10.587,-37.418Zm-61.158,62.5l12.5,-0l0,47.916c0,3.446 -2.804,6.25 -6.25,6.25c-3.445,0 -6.25,-2.804 -6.25,-6.25l0,-47.916Zm37.5,-0l12.5,-0l0,47.916c0,3.446 -2.804,6.25 -6.25,6.25c-3.445,0 -6.25,-2.804 -6.25,-6.25l0,-47.916Z" style="fill:#fc9c19;fill-rule:nonzero;"/></svg>