<?xml version="1.0" encoding="UTF-8" standalone="no"?><!DOCTYPE svg PUBLIC "-//W3C//DTD SVG 1.1//EN" "http://www.w3.org/Graphics/SVG/1.1/DTD/svg11.dtd"><svg width="100%" height="100%" viewBox="0 0 1479 1611" version="1.1" xmlns="http://www.w3.org/2000/svg" xmlns:xlink="http://www.w3.org/1999/xlink" xml:space="preserve" xmlns:serif="http://www.serif.com/" style="fill-rule:evenodd;clip-rule:evenodd;stroke-linecap:round;stroke-linejoin:round;stroke-miterlimit:1.5;"><g><circle cx="314.689" cy="559.862" r="307.397" style="fill:none;stroke:#fc9c19;stroke-width:14.58px;"/><path d="M366.837,434.862c-2.311,0 -4.166,1.872 -4.166,4.167c-0,2.295 1.855,4.167 4.166,4.167l25.261,-0l-38.737,38.753c-1.628,-0.83 -3.418,-1.253 -5.339,-1.253c-2.539,-0 -4.964,0.797 -6.966,2.083l-14.453,-10.872c0.374,-1.172 0.586,-2.425 0.586,-3.711c-0,-6.869 -5.632,-12.5 -12.5,-12.5c-6.869,-0 -12.5,5.631 -12.5,12.5c-0,1.497 0.293,2.962 0.781,4.297l-31.901,26.627c-1.888,-1.139 -4.085,-1.758 -6.38,-1.758c-2.621,0 -5.127,0.831 -7.162,2.247l-19.596,-13.965c-1.872,-1.319 -4.46,-0.912 -5.794,0.976c-1.319,1.872 -0.912,4.46 0.976,5.795l19.58,13.997c-0.341,1.074 -0.504,2.246 -0.504,3.45c-0,6.869 5.631,12.5 12.5,12.5c6.868,0 12.5,-5.631 12.5,-12.5c-0,-1.497 -0.293,-2.994 -0.781,-4.329l31.901,-26.595c1.888,1.139 4.085,1.758 6.38,1.758c2.539,-0 4.964,-0.798 6.966,-2.084l14.453,10.873c-0.374,1.172 -0.586,2.425 -0.586,3.711c0,6.868 5.632,12.5 12.5,12.5c6.869,-0 12.5,-5.632 12.5,-12.5c0,-1.921 -0.423,-3.711 -1.253,-5.339l38.753,-38.737l0,25.261c0,2.295 1.856,4.166 4.167,4.166c2.311,0 4.166,-1.871 4.166,-4.166l0,-35.287c0.017,-1.107 -0.374,-2.197 -1.204,-3.027c-0.83,-0.83 -1.921,-1.221 -3.027,-1.205l-35.287,0Zm-52.148,29.167c0.618,0 1.204,0.13 1.758,0.374c0.162,0.082 0.325,0.163 0.488,0.293c0.081,0.049 0.163,0.114 0.244,0.163c0.049,0.049 0.13,0.082 0.179,0.13l0.081,0.082c0.131,0.081 0.245,0.244 0.375,0.374l0.374,0.505c0.13,0.162 0.212,0.374 0.293,0.537c0.13,0.293 0.212,0.586 0.293,0.879c0.049,0.244 0.081,0.504 0.081,0.797l0,0.033c0,0.96 -0.341,1.823 -0.878,2.539c-0.163,0.211 -0.326,0.423 -0.538,0.586c-0.13,0.13 -0.293,0.211 -0.406,0.325c-0.668,0.472 -1.465,0.716 -2.344,0.716c-0.879,0 -1.677,-0.244 -2.344,-0.716c-0.195,-0.162 -0.358,-0.276 -0.57,-0.488c-0.081,-0.081 -0.211,-0.212 -0.293,-0.342c-0.162,-0.195 -0.325,-0.407 -0.423,-0.618c-0.114,-0.163 -0.195,-0.342 -0.244,-0.554c-0.081,-0.162 -0.163,-0.325 -0.163,-0.537c-0.097,-0.276 -0.13,-0.586 -0.13,-0.911c0,-0.716 0.163,-1.416 0.537,-2.002c0.098,-0.212 0.212,-0.374 0.342,-0.537c0.081,-0.13 0.195,-0.244 0.326,-0.375l0.292,-0.293c0.505,-0.423 1.091,-0.716 1.758,-0.83c0.277,-0.097 0.586,-0.13 0.912,-0.13Zm33.333,25c0.879,0 1.677,0.244 2.344,0.716c0.081,0.033 0.114,0.114 0.195,0.163c0.244,0.212 0.505,0.407 0.667,0.667c0.163,0.196 0.326,0.407 0.424,0.619c0.195,0.325 0.325,0.7 0.407,1.09c0.097,0.277 0.13,0.586 0.13,0.912c-0,0.293 -0.033,0.586 -0.082,0.83c-0.13,0.618 -0.423,1.204 -0.797,1.709c-0.212,0.244 -0.407,0.504 -0.667,0.667c-0.196,0.163 -0.407,0.326 -0.619,0.423c-0.325,0.196 -0.7,0.326 -1.09,0.407c-0.277,0.098 -0.586,0.13 -0.912,0.13c-0.293,0 -0.586,-0.032 -0.83,-0.081c-0.83,-0.163 -1.546,-0.586 -2.132,-1.123c-0.749,-0.797 -1.205,-1.79 -1.205,-2.962c0,-2.295 1.872,-4.167 4.167,-4.167Zm-83.333,16.667c0.797,-0 1.579,0.244 2.213,0.635c0.082,0.032 0.114,0.065 0.196,0.146c0.26,0.179 0.504,0.423 0.716,0.635l0.081,0.081c0.163,0.244 0.342,0.505 0.456,0.749c0.049,0.049 0.049,0.049 0.049,0.098c0.162,0.276 0.244,0.569 0.325,0.862c0.098,0.293 0.13,0.635 0.13,0.96c0,0.456 -0.081,0.879 -0.26,1.303c0,0.162 -0.065,0.358 -0.195,0.52c-0.082,0.212 -0.212,0.424 -0.326,0.586c-0.13,0.179 -0.26,0.342 -0.423,0.554c-0.081,0.049 -0.13,0.114 -0.212,0.162c-0.081,0.049 -0.13,0.114 -0.211,0.163c-0.163,0.13 -0.326,0.244 -0.505,0.342c-0.081,0.033 -0.114,0.081 -0.211,0.081c-0.277,0.163 -0.57,0.293 -0.863,0.326c-0.293,0.098 -0.635,0.13 -0.96,0.13c-0.586,0 -1.123,-0.13 -1.628,-0.325c-0.081,-0.049 -0.114,-0.049 -0.195,-0.082c-0.212,-0.13 -0.423,-0.211 -0.586,-0.374c-0.098,-0.049 -0.13,-0.098 -0.212,-0.13c-0.13,-0.131 -0.211,-0.212 -0.341,-0.293c-0.212,-0.212 -0.375,-0.472 -0.538,-0.716c-0.13,-0.163 -0.211,-0.375 -0.293,-0.538c-0.13,-0.293 -0.211,-0.585 -0.293,-0.878c-0.048,-0.245 -0.081,-0.505 -0.081,-0.782l0,-0.049c0,-0.96 0.342,-1.822 0.879,-2.539c0.163,-0.211 0.326,-0.423 0.537,-0.586c0.13,-0.13 0.293,-0.211 0.407,-0.325c0.667,-0.472 1.465,-0.716 2.344,-0.716Zm-70.834,29.166c-6.884,0 -12.5,5.616 -12.5,12.5l0,125c0,6.885 5.616,12.5 12.5,12.5l241.667,0c6.885,0 12.5,-5.615 12.5,-12.5l0,-125c0,-6.884 -5.615,-12.5 -12.5,-12.5l-241.667,0Zm0,8.334l241.667,-0c2.295,-0 4.167,1.872 4.167,4.166l-0,125c-0,2.295 -1.872,4.167 -4.167,4.167l-241.667,0c-2.294,0 -4.166,-1.872 -4.166,-4.167l-0,-125c-0,-2.294 1.872,-4.166 4.166,-4.166Zm58.334,12.5c-2.311,-0 -4.167,1.872 -4.167,4.166l0,8.334c0,2.295 1.856,4.166 4.167,4.166c2.311,0 4.166,-1.871 4.166,-4.166l0,-8.334c0,-2.294 -1.855,-4.166 -4.166,-4.166Zm20.833,-0c-2.311,-0 -4.167,1.872 -4.167,4.166l0,8.334c0,2.295 1.856,4.166 4.167,4.166c2.311,0 4.167,-1.871 4.167,-4.166l-0,-8.334c-0,-2.294 -1.856,-4.166 -4.167,-4.166Zm20.833,-0c-2.311,-0 -4.166,1.872 -4.166,4.166l-0,8.334c-0,1.595 0.927,2.929 2.23,3.629c-10.889,8.236 -18.067,22.217 -18.067,38.037c0,15.821 7.178,29.802 18.067,38.038c-1.303,0.699 -2.23,2.034 -2.23,3.629l-0,8.333c-0,2.295 1.855,4.167 4.166,4.167c2.312,0 4.167,-1.872 4.167,-4.167l0,-8.203c3.89,1.97 8.089,3.304 12.5,3.793l0,4.41c0,2.295 1.856,4.167 4.167,4.167c2.311,0 4.166,-1.872 4.166,-4.167l0,-4.41c4.411,-0.489 8.61,-1.823 12.5,-3.793l0,8.203c0,2.295 1.856,4.167 4.167,4.167c2.311,0 4.167,-1.872 4.167,-4.167l-0,-8.333c-0,-1.595 -0.928,-2.93 -2.23,-3.629c10.889,-8.236 18.066,-22.217 18.066,-38.038c0,-15.82 -7.177,-29.801 -18.066,-38.037c1.302,-0.7 2.23,-2.034 2.23,-3.629l-0,-8.334c-0,-2.294 -1.856,-4.166 -4.167,-4.166c-2.311,-0 -4.167,1.872 -4.167,4.166l0,8.204c-3.89,-1.97 -8.089,-3.304 -12.5,-3.793l0,-4.411c0,-2.294 -1.855,-4.166 -4.166,-4.166c-2.311,-0 -4.167,1.872 -4.167,4.166l0,4.411c-4.411,0.489 -8.61,1.823 -12.5,3.793l0,-8.204c0,-2.294 -1.855,-4.166 -4.167,-4.166Zm62.5,-0c-2.311,-0 -4.166,1.872 -4.166,4.166l-0,8.334c-0,2.295 1.855,4.166 4.166,4.166c2.312,0 4.167,-1.871 4.167,-4.166l0,-8.334c0,-2.294 -1.855,-4.166 -4.167,-4.166Zm20.834,-0c-2.311,-0 -4.167,1.872 -4.167,4.166l0,8.334c0,2.295 1.856,4.166 4.167,4.166c2.311,0 4.166,-1.871 4.166,-4.166l0,-8.334c0,-2.294 -1.855,-4.166 -4.166,-4.166Zm-166.667,4.166c-2.311,0 -4.167,1.872 -4.167,4.167c0,2.295 1.856,4.167 4.167,4.167l20.833,-0c2.312,-0 4.167,-1.872 4.167,-4.167c0,-2.295 -1.855,-4.167 -4.167,-4.167l-20.833,0Zm187.5,0c-2.311,0 -4.167,1.872 -4.167,4.167c0,2.295 1.856,4.167 4.167,4.167l20.833,-0c2.312,-0 4.167,-1.872 4.167,-4.167c0,-2.295 -1.855,-4.167 -4.167,-4.167l-20.833,0Zm-83.333,12.5c17.92,0 32.503,16.83 32.503,37.5c0,20.671 -14.583,37.5 -32.503,37.5c-17.92,0 -32.503,-16.829 -32.503,-37.5c-0,-20.67 14.583,-37.5 32.503,-37.5Zm-95.834,20.834c-9.196,-0 -16.666,7.471 -16.666,16.666c-0,9.196 7.47,16.667 16.666,16.667c9.196,0 16.667,-7.471 16.667,-16.667c0,-9.195 -7.471,-16.666 -16.667,-16.666Zm191.667,-0c-9.196,-0 -16.667,7.471 -16.667,16.666c0,9.196 7.471,16.667 16.667,16.667c9.196,0 16.667,-7.471 16.667,-16.667c-0,-9.195 -7.471,-16.666 -16.667,-16.666Zm0,6.771c5.453,-0 9.896,4.443 9.896,9.895c-0,5.453 -4.443,9.896 -9.896,9.896c-5.452,0 -9.896,-4.443 -9.896,-9.896c0,-5.452 4.444,-9.895 9.896,-9.895Zm-191.667,0.26c5.306,0 9.636,4.329 9.636,9.635c-0,5.306 -4.33,9.636 -9.636,9.636c-5.306,-0 -9.635,-4.33 -9.635,-9.636c0,-5.306 4.329,-9.635 9.635,-9.635Zm33.334,47.135c-2.311,0 -4.167,1.872 -4.167,4.167l0,8.333c0,2.295 1.856,4.167 4.167,4.167c2.311,0 4.166,-1.872 4.166,-4.167l0,-8.333c0,-2.295 -1.855,-4.167 -4.166,-4.167Zm20.833,0c-2.311,0 -4.167,1.872 -4.167,4.167l0,8.333c0,2.295 1.856,4.167 4.167,4.167c2.311,0 4.167,-1.872 4.167,-4.167l-0,-8.333c-0,-2.295 -1.856,-4.167 -4.167,-4.167Zm83.333,0c-2.311,0 -4.166,1.872 -4.166,4.167l-0,8.333c-0,2.295 1.855,4.167 4.166,4.167c2.312,0 4.167,-1.872 4.167,-4.167l0,-8.333c0,-2.295 -1.855,-4.167 -4.167,-4.167Zm20.834,0c-2.311,0 -4.167,1.872 -4.167,4.167l0,8.333c0,2.295 1.856,4.167 4.167,4.167c2.311,0 4.166,-1.872 4.166,-4.167l0,-8.333c0,-2.295 -1.855,-4.167 -4.166,-4.167Zm-166.667,4.167c-2.311,0 -4.167,1.872 -4.167,4.167c0,2.295 1.856,4.166 4.167,4.166l20.833,0c2.312,0 4.167,-1.871 4.167,-4.166c0,-2.295 -1.855,-4.167 -4.167,-4.167l-20.833,0Zm187.5,0c-2.311,0 -4.167,1.872 -4.167,4.167c0,2.295 1.856,4.166 4.167,4.166l20.833,0c2.312,0 4.167,-1.871 4.167,-4.166c0,-2.295 -1.855,-4.167 -4.167,-4.167l-20.833,0Z" style="fill:#fc9c19;fill-rule:nonzero;"/></g><g><circle cx="738.984" cy="314.689" r="307.397" style="fill:none;stroke:#f0f0f0;stroke-width:14.58px;"/><path d="M735.534,189.721c-11.914,0 -23.828,4.525 -32.91,13.607c-18.148,18.148 -18.148,47.673 -0,65.837l62.923,62.907c1.823,1.822 4.232,2.815 6.787,2.815c2.572,0 4.997,-0.993 6.82,-2.815l62.858,-62.907c18.148,-18.164 18.148,-47.689 -0,-65.837c-18.148,-18.164 -47.673,-18.164 -65.837,0l-3.857,3.858l-3.858,-3.858c-9.082,-9.082 -20.996,-13.607 -32.926,-13.607Zm73.568,8.317c9.782,0 19.58,3.728 27.018,11.182c14.909,14.893 14.909,39.144 -0,54.036l-62.874,62.94c-0.603,0.602 -1.189,0.602 -1.807,-0l-62.923,-62.94c-14.909,-14.892 -14.909,-39.143 -0,-54.036c7.454,-7.454 17.236,-11.165 27.018,-11.165c9.798,-0 19.58,3.711 27.018,11.165l3.89,3.874l-0.911,0.895c-1.644,1.627 -1.644,4.264 -0,5.892c0.797,0.814 1.871,1.221 2.946,1.221c1.058,-0 2.132,-0.407 2.929,-1.221l0.912,-0.912l9.765,-9.749c7.439,-7.454 17.237,-11.182 27.019,-11.182Zm-50.407,24.496c-1.058,-0 -2.132,0.407 -2.946,1.221l-6.901,6.901c-1.628,1.627 -1.628,4.264 -0,5.891c0.814,0.814 1.871,1.221 2.946,1.221c1.074,0 2.132,-0.407 2.946,-1.221l6.901,-6.901c1.627,-1.627 1.627,-4.264 -0,-5.891c-0.814,-0.814 -1.888,-1.221 -2.946,-1.221Zm-68.474,106.006c-2.522,-0.065 -5.045,0.049 -7.568,0.341l-49.3,5.795c-6.283,0.748 -11.035,6.087 -11.035,12.435l-0,52.734c-0,3.89 1.758,7.471 4.817,9.863c3.044,2.377 6.95,3.207 10.71,2.263l27.344,-6.82c6.966,-1.725 14.307,-0.863 20.67,2.49l52.442,27.621c5.469,2.881 11.458,4.313 17.464,4.313c5.925,-0 11.849,-1.384 17.269,-4.199l88.753,-46.029c6.494,-3.369 10.531,-9.994 10.531,-17.35c-0,-6.071 -2.767,-11.686 -7.569,-15.414c-4.801,-3.727 -10.953,-4.98 -16.829,-3.45l-55.876,14.485c-1.09,-3.255 -2.994,-6.233 -5.534,-8.593c-4.231,-3.939 -9.928,-5.957 -15.69,-5.534l-9.13,0.651c-3.581,0.26 -7.146,-0.407 -10.385,-1.937l-39.209,-18.506c-6.884,-3.239 -14.339,-4.997 -21.875,-5.159Zm-0.195,8.333c6.38,0.13 12.695,1.611 18.506,4.362l39.225,18.506c4.525,2.132 9.538,3.076 14.535,2.718l9.131,-0.651c3.499,-0.244 6.852,0.928 9.423,3.32c2.556,2.377 3.972,5.632 3.972,9.131l-0,1.693c-0,1.644 -0.961,3.141 -2.458,3.808l-12.305,5.518c-9.228,4.15 -19.905,4.378 -29.296,0.618l-21.013,-8.414c-2.148,-0.863 -4.573,0.195 -5.42,2.327c-0.862,2.132 0.179,4.557 2.328,5.404l21.012,8.431c11.491,4.59 24.544,4.313 35.824,-0.765l12.288,-5.518c4.476,-2.018 7.373,-6.494 7.373,-11.409l56.852,-14.763c3.386,-0.862 6.885,-0.146 9.636,1.986c2.767,2.132 4.345,5.355 4.345,8.871c0,4.182 -2.311,7.975 -6.022,9.895l-88.769,46.029c-8.464,4.395 -18.571,4.362 -27.018,-0.081l-52.442,-27.621c-5.436,-2.864 -11.426,-4.329 -17.464,-4.329c-3.044,-0 -6.087,0.374 -9.082,1.123l-27.36,6.836c-1.253,0.325 -2.555,0.049 -3.565,-0.749c-1.025,-0.797 -1.611,-2.002 -1.611,-3.304l0,-52.734c0,-2.116 1.579,-3.907 3.678,-4.151l49.301,-5.794c2.132,-0.244 4.264,-0.342 6.396,-0.293Zm-46.875,11.149c-2.295,0 -4.167,1.872 -4.167,4.167c0,2.295 1.872,4.166 4.167,4.166l8.333,0c2.295,0 4.167,-1.871 4.167,-4.166c0,-2.295 -1.872,-4.167 -4.167,-4.167l-8.333,0Zm0,20.833c-2.295,0 -4.167,1.872 -4.167,4.167c0,2.295 1.872,4.167 4.167,4.167l8.333,-0c2.295,-0 4.167,-1.872 4.167,-4.167c0,-2.295 -1.872,-4.167 -4.167,-4.167l-8.333,0Zm0,20.834c-2.295,-0 -4.167,1.872 -4.167,4.166c0,2.295 1.872,4.167 4.167,4.167l8.333,0c2.295,0 4.167,-1.872 4.167,-4.167c0,-2.294 -1.872,-4.166 -4.167,-4.166l-8.333,-0Z" style="fill:#f0f0f0;fill-rule:nonzero;"/></g><g><circle cx="1164" cy="559.862" r="307.397" style="fill:none;stroke:#f0f0f0;stroke-width:14.58px;"/><path d="M1239.67,443.293c-0.465,0.046 -0.922,0.142 -1.367,0.285c-1.782,0.573 -3.325,1.895 -3.996,3.736c-0,0.002 -0,0.005 -0,0.008c-1.066,2.949 -2.849,5.682 -4.574,9.261c-1.724,3.578 -3.239,8.039 -3.239,13.786c0,6.238 2.163,10.906 5.095,13.81c-26.155,8.011 -48.168,17.792 -66.561,28.711c1.21,-4.106 2.195,-9.369 2.71,-15.609c6.298,-0.256 12.344,-1.904 17.065,-5.729c5.143,-4.166 8.326,-10.869 8.326,-19.263c-0,-3.438 -0.677,-6.291 -1.213,-8.065c-0.81,-2.683 -3.504,-4.577 -6.307,-4.418c-0.003,-0 -0.005,-0 -0.008,-0c-2.458,0.141 -7.015,0.459 -11.589,2.148c-1.62,-3.109 -3.862,-5.671 -6.25,-7.625c-4.612,-3.776 -9.726,-5.707 -12.874,-6.682c-3.715,-1.149 -7.728,1.51 -8.106,5.38c-0.26,2.673 -0.989,4.516 -1.863,7.275c-0.874,2.759 -1.758,6.293 -1.758,11.239c0,0.366 0.057,0.7 0.073,1.057c-7.934,1.061 -13.115,6.086 -15.202,8.497c-1.58,1.825 -1.967,4.535 -0.96,6.73c0.87,1.902 2.632,5.173 5.843,8.138c3.216,2.968 8.061,5.566 14.258,5.566c4.945,0 8.773,-1.23 11.857,-2.816c-0.771,6.788 -2.002,12.378 -3.361,15.837c-1.809,4.608 -3.206,6.177 -3.206,6.177c-0.093,0.112 -0.18,0.229 -0.261,0.35c-4.854,3.328 -9.422,6.743 -13.704,10.221c-1.013,-7.441 -3.399,-12.132 -5.2,-14.632c-0.953,-1.325 -2.44,-2.19 -4.037,-2.474c-1.596,-0.284 -3.301,0.015 -4.687,1.025c-3.031,2.212 -8.954,7.366 -12.289,15.617c-0.498,-0.27 -0.995,-0.545 -1.497,-0.773c-5.737,-2.606 -11.8,-3.28 -15.12,-3.516c-0.003,0 -0.006,0 -0.009,0c-3.553,-0.245 -6.665,2.729 -6.665,6.242l0,7.219c0,9.052 2.445,15.634 7.316,19.474c3.162,2.492 6.924,3.593 10.954,4.11c-7.213,9.826 -19.312,28.781 -25.553,53.043c-4.115,15.987 -5.217,30.953 -5.217,55.729c0,0.02 -0,0.04 -0,0.059c-0,2.286 1.881,4.167 4.167,4.167c2.286,0 4.167,-1.881 4.167,-4.167c0,-0.019 0,-0.039 -0,-0.059c-0,-6.801 0.116,-12.67 0.317,-18.098c0.049,-0.072 0.095,-0.146 0.138,-0.22c0,-0 3.314,-5.491 11.996,-11.402c6.639,-4.52 16.303,-9.091 29.769,-11.002c0.223,1.56 0.649,3.519 1.538,5.884c2.173,5.78 7.119,12.641 16.317,14.681c4.147,0.918 8.235,2.242 10.791,3.141l-0,-0.008c4.14,1.461 8.488,-2.177 8.292,-6.332l0,-0.008c-0.315,-6.645 -1.744,-12.086 -4.402,-16.243c6.382,1.051 13.384,2.107 23.16,2.107c10.375,0 17.617,-2.154 23.169,-4.313c0.228,2.16 0.78,5.314 2.897,9.18c3.203,5.844 10.31,11.8 22.136,11.8l14.258,0c3.92,0 7.097,-3.874 6.095,-7.772c-1.023,-3.982 -3.285,-11.353 -8.463,-17.326c3.8,-4.573 5.565,-9.483 7.495,-12.166l-0.008,0c2.301,-3.194 0.765,-8.017 -2.849,-9.399c-0.002,-0 -0.005,-0 -0.008,-0c-3.516,-1.336 -9.722,-3.337 -16.626,-3.337c-0.92,0 -1.755,0.109 -2.62,0.179c-3.544,-7.849 -10.016,-13.107 -13.648,-15.698c-1.627,-1.159 -3.647,-1.337 -5.428,-0.765c-1.781,0.572 -3.325,1.894 -3.996,3.735c-0.002,0.003 -0.005,0.006 -0.008,0.008c-1.068,2.95 -2.84,5.683 -4.565,9.262c-1.725,3.578 -3.247,8.039 -3.247,13.785c-0,4.933 1.373,8.851 3.385,11.727c-4.587,1.47 -10.544,2.767 -17.969,2.767c-9.822,0 -16.74,-1.199 -23.527,-2.319c0.364,-0.292 0.724,-0.59 1.042,-0.912c4.251,-4.298 6.326,-9.509 7.625,-13.688c1.237,-3.968 -1.99,-8.081 -6.03,-8.081l-12.589,0c-5.997,0 -11.889,1.518 -16.203,5.746c-3.711,3.636 -5.686,9.153 -6.201,16.015c-15.235,2.024 -26.517,7.182 -34.27,12.46c-2.589,1.762 -4.767,3.539 -6.632,5.224c0.76,-8.002 1.96,-15.013 3.825,-22.257c7.259,-28.223 22.52,-48.395 27.384,-54.362c3.273,1.774 8.4,3.841 15.397,3.841c12.839,-0 19.752,-8.205 22.25,-12.484c1.782,-3.049 0.585,-7.173 -2.678,-8.716c-0.005,0 -0.011,0 -0.016,0c-2.963,-1.392 -6.49,-4.7 -11.564,-6.583c5.531,-4.71 11.562,-9.325 18.18,-13.786c3.996,0.175 16.358,0.961 28.378,4.533c-3.435,2.928 -6.454,7.883 -6.454,14.786c0,10.565 4.689,17.292 7.691,20.37c2.589,2.65 7.234,2.207 9.415,-0.57c1.992,-2.538 4.956,-5.171 7.512,-8.471c1.933,1.299 4.142,2.346 6.713,2.97c4.507,1.092 7.898,2.365 9.994,3.271c0.003,0.003 0.005,0.006 0.008,0.009c4.07,1.752 8.759,-1.679 8.667,-5.957c0,-0.003 0,-0.006 0,-0.009c-0.234,-9.89 -1.39,-17.455 -5.534,-23.03c6.435,-6.121 8.797,-12.073 9.554,-15.487c0,-0.003 0,-0.005 0,-0.008c0.704,-3.195 -1.348,-6.647 -4.622,-7.438c-2.674,-0.647 -7.517,-1.734 -12.085,-1.734c-9.46,0 -15.522,5.204 -18.408,10.132c-1.689,2.885 -1.843,4.374 -2.067,5.9c-8.939,-3.861 -18.971,-5.792 -26.872,-6.746c17.834,-10.48 39.263,-19.91 64.941,-27.637c0.448,1.958 1.113,4.196 2.393,6.543c3.185,5.843 10.266,11.808 22.046,11.808c8.308,0 14.304,-2.349 17.179,-3.776l0.008,-0.008c2.619,-1.298 4.035,-4.489 3.223,-7.3c-0.892,-3.093 -3.083,-9.404 -8.081,-14.64c0.386,-0.47 0.787,-0.932 1.139,-1.424c4.253,-5.946 6.374,-13.22 7.145,-19.93l-0.008,0.008c0.498,-4.249 -3.706,-8.143 -7.999,-6.828c-5.136,1.582 -10.551,1.93 -15.796,2.865c-3.653,-7.184 -9.638,-12.031 -13.078,-14.486c-0.003,0 -0.006,0 -0.008,0c-1.221,-0.869 -2.665,-1.186 -4.061,-1.05Zm1.164,9.563c2.472,2.005 5.044,4.924 7.259,8.512c-0.99,0.453 -1.964,0.957 -2.914,1.563c-0.014,0.008 -0.035,0.015 -0.049,0.024c-0.254,0.163 -0.459,0.338 -0.699,0.504c-0.39,0.272 -0.789,0.537 -1.148,0.822c-2.65,2.066 -4.286,4.305 -5.436,6.503c-0.328,0.591 -0.619,1.156 -0.879,1.733c-0.053,0.131 -0.113,0.261 -0.163,0.391c-0.414,0.967 -0.755,1.875 -1.009,2.742c-0.556,-1.271 -0.968,-2.86 -0.968,-5.281c-0,-4.366 0.994,-7.213 2.417,-10.165c1.041,-2.16 2.361,-4.73 3.589,-7.348Zm-86.442,3.759c2.488,0.917 5.432,1.984 8.089,4.159c2.425,1.985 4.34,4.327 5.192,7.503c0.019,0.123 0.043,0.245 0.073,0.366c0.264,1.062 0.415,2.182 0.415,3.427c0,5.196 -1.292,8.953 -2.742,11.629c-0.867,1.453 -1.763,2.593 -2.474,3.279c-0.805,-0.337 -1.69,-0.735 -2.759,-1.359c-1.946,-1.264 -4.056,-2.954 -5.729,-5.216c-0.098,-0.133 -0.207,-0.254 -0.301,-0.391c-0.922,-1.325 -1.68,-2.809 -2.133,-4.468c-0.015,-0.051 -0.031,-0.103 -0.048,-0.154c-0.299,-1.179 -0.481,-2.451 -0.481,-3.849c0,-4.026 0.598,-6.295 1.368,-8.724c0.531,-1.679 1.039,-3.976 1.53,-6.202Zm117.317,8.016c-0.882,4.769 -2.424,9.613 -5.013,13.233c-0.793,1.109 -1.636,2.105 -2.555,2.978c-0.171,0.108 -0.335,0.227 -0.488,0.358c-1.95,1.683 -4.129,2.849 -6.82,3.361c-0.119,0.022 -0.237,0.046 -0.358,0.065c-0.878,0.146 -1.802,0.236 -2.8,0.236c-1.449,0 -2.647,-0.114 -3.702,-0.284c-0.587,-0.098 -1.042,-0.247 -1.522,-0.383c-0.348,-0.096 -0.735,-0.181 -1.034,-0.293c-0.552,-0.211 -1.018,-0.433 -1.424,-0.675c-0.095,-0.057 -0.205,-0.114 -0.293,-0.171c-0.438,-0.287 -0.809,-0.583 -1.107,-0.863c-0.101,-0.095 -0.207,-0.184 -0.317,-0.268c-0.876,-0.924 -0.983,-1.346 -1.009,-1.49l-0,-0.008c0.004,-0.207 0.021,-0.717 0.138,-1.424l0,-0.008c0.178,-1.068 0.588,-2.589 1.522,-4.207l0,-0.009c0.624,-1.078 1.487,-2.198 2.669,-3.263c0.593,-0.534 1.268,-1.055 2.035,-1.546c0.622,-0.399 1.375,-0.732 2.173,-1.05c0.422,-0.163 0.868,-0.32 1.334,-0.464c0.214,-0.068 0.445,-0.13 0.668,-0.195c4.571,-1.285 10.94,-1.909 17.903,-3.63Zm-87.475,3.955c0.248,1.153 0.561,2.19 0.561,3.703c0,6.436 -2.037,10.196 -5.233,12.785c-1.913,1.55 -4.52,2.499 -7.389,3.141c1.115,-1.913 2.147,-4.173 2.938,-6.836c0.041,-0.133 0.066,-0.288 0.106,-0.423c0.354,-1.252 0.693,-2.527 0.903,-3.939c0.004,-0.025 0.004,-0.055 0.008,-0.081c0.225,-1.535 0.366,-3.146 0.366,-4.866c0,-0.518 -0.063,-1.005 -0.097,-1.506c2.683,-1.026 5.507,-1.727 7.837,-1.978Zm-39.047,12.386c1.918,4.274 4.916,7.567 7.805,9.848c0.469,0.37 0.918,0.624 1.383,0.952c-1.837,0.796 -4.106,1.424 -7.202,1.424c-3.978,-0 -6.57,-1.47 -8.61,-3.353c-1.595,-1.472 -2.363,-2.995 -3.06,-4.289c1.81,-1.818 5.059,-4.19 9.684,-4.582Zm120.533,8.912c3.01,3.114 4.975,6.697 5.932,9.407c-2.439,1.012 -6.152,2.238 -11.645,2.238c-9.233,0 -12.662,-3.67 -14.73,-7.462c-0.689,-1.265 -0.394,-1.415 -0.708,-2.548c0.32,0.122 0.715,0.196 1.05,0.31c0.728,0.266 1.518,0.479 2.344,0.675c0.432,0.101 0.843,0.221 1.302,0.301c0.362,0.063 0.733,0.115 1.115,0.163c1.036,0.133 2.113,0.228 3.295,0.228c4.584,-0 8.615,-1.269 12.045,-3.312Zm-47.746,28.312c2.37,-0 5.239,0.629 7.707,1.139c-0.839,2.406 -2.689,5.748 -7.203,9.815c-3.5,-1.689 -7.725,-2.506 -12.524,-2.588c0.292,-0.964 0.122,-1.185 0.806,-2.352c1.841,-3.144 4.532,-6.014 11.214,-6.014Zm-90.373,5.591c1.346,2.49 2.917,6.554 3.019,14.266c-0.547,0.495 -1.098,0.991 -1.635,1.489c-2.708,0.626 -5.054,1.812 -7.048,3.296c-0.482,-2.237 -1.428,-4.203 -2.653,-5.925c1.757,-6.43 5.46,-10.679 8.317,-13.126Zm74.618,11.075l2.938,0c1.588,0.001 2.912,0.107 4.166,0.245c0.725,0.086 1.372,0.202 2.002,0.333c0.433,0.087 0.855,0.184 1.245,0.293c1.612,0.456 2.925,1.063 3.939,1.823c0.053,0.039 0.108,0.077 0.163,0.114c0.65,0.528 1.232,1.118 1.741,1.799c2.02,2.7 3.166,8 3.614,15.332c-2.314,-0.879 -4.502,-1.788 -8.073,-2.653c-2.597,-0.63 -4.592,-1.896 -6.193,-3.516c-0.098,-0.136 -0.204,-0.267 -0.318,-0.391c-3.293,-3.603 -4.502,-8.306 -5.11,-12.019c-0.029,-0.434 -0.065,-0.845 -0.114,-1.36Zm-104.891,0.505c2.941,0.335 6.638,0.747 10.01,2.279c1.634,0.742 2.928,1.58 4.003,2.547c0.085,0.105 0.175,0.205 0.269,0.301c1.124,1.129 1.873,2.293 2.197,3.874c0.01,0.05 0.024,0.095 0.033,0.146c0.099,0.537 0.154,1.116 0.154,1.766c0,1.471 -0.078,2.701 -0.203,3.776c-0.016,0.145 -0.047,0.252 -0.065,0.391c-0.126,0.946 -0.275,1.801 -0.456,2.506c-0.278,1.064 -0.589,1.887 -0.854,2.393c-4.783,-0.191 -8.831,-0.742 -10.946,-2.409c-2.42,-1.907 -4.142,-5.263 -4.142,-12.931l-0,-4.639Zm96.5,1.392c0.004,0.026 0.013,0.055 0.017,0.081c0.181,1.651 0.553,3.695 1.481,6.494c0.833,2.513 2.06,5.215 3.776,7.731c-1.52,2.167 -3.72,4.648 -6.153,7.43c-1.846,-2.399 -3.955,-6.039 -3.955,-12.549c0,-4.938 1.744,-7.132 3.752,-8.707c0.408,-0.32 0.652,-0.234 1.082,-0.48Zm-60.726,10.603c-0.012,0 0.244,0.04 0.944,0.09c0.128,0.009 0.255,0.011 0.383,0.008c0.011,0 0.022,0 0.033,0c4.221,0.489 7.365,3.152 11.735,5.672c-2.069,2.93 -5.675,6.73 -13.632,6.73c-5.811,0 -9.075,-1.386 -11.189,-2.604c0.319,-0.837 0.584,-1.55 1.025,-2.417c0.329,-0.572 0.617,-1.137 1.017,-1.709c0.428,-0.613 0.895,-1.193 1.384,-1.749c0.243,-0.273 0.505,-0.52 0.765,-0.773c0.356,-0.352 0.73,-0.678 1.123,-0.985c0.272,-0.215 0.536,-0.447 0.822,-0.635c0.462,-0.304 0.955,-0.555 1.465,-0.781c0.133,-0.058 0.269,-0.111 0.406,-0.163c0.381,-0.148 0.783,-0.265 1.197,-0.366c0.035,-0.009 0.07,-0.016 0.105,-0.025c0.003,-0 0.006,0.001 0.009,0c0.477,0.014 0.953,-0.055 1.408,-0.203c0.334,-0.03 0.643,-0.09 1,-0.09Zm-59.936,19.377c-0.011,0 -0.022,-0 -0.034,-0c-2.286,-0 -4.167,1.881 -4.167,4.167c0,1.55 0.865,2.977 2.24,3.694l7.34,3.956c0.643,0.38 1.377,0.581 2.124,0.581c2.286,0 4.167,-1.881 4.167,-4.167c0,-1.592 -0.912,-3.05 -2.344,-3.747l-7.332,-3.955c-0.61,-0.341 -1.296,-0.522 -1.994,-0.529Zm-8.993,19.059c-2.277,0.012 -4.144,1.89 -4.144,4.167c-0,1.721 1.065,3.273 2.671,3.89l7.732,3.101c0.528,0.232 1.099,0.352 1.677,0.352c2.286,-0 4.167,-1.881 4.167,-4.167c-0,-1.749 -1.101,-3.319 -2.744,-3.917l-7.731,-3.1c-0.515,-0.217 -1.069,-0.327 -1.628,-0.326Zm147.486,8.741c2.629,2.136 5.386,5.316 7.617,9.22c-1.061,0.448 -2.032,0.933 -2.905,1.457c-0.022,0.012 -0.053,0.02 -0.074,0.032c0,0.003 0,0.006 0,0.008c-0.663,0.401 -1.28,0.824 -1.863,1.262c-2.656,1.954 -4.327,4.104 -5.526,6.225c-0.345,0.582 -0.669,1.14 -0.944,1.709c-0.058,0.131 -0.116,0.261 -0.171,0.391c-0.431,0.939 -0.788,1.822 -1.058,2.669c-0.61,-1.294 -1.074,-2.918 -1.074,-5.477c0,-4.366 0.994,-7.213 2.417,-10.164c1.039,-2.156 2.355,-4.722 3.581,-7.332Zm-154.24,11.303c-2.232,0.076 -4.027,1.932 -4.027,4.165c0,1.912 1.316,3.59 3.172,4.047l8.065,2.099c0.342,0.089 0.693,0.133 1.046,0.133c2.287,0 4.17,-1.882 4.17,-4.169c-0,-1.894 -1.291,-3.562 -3.124,-4.037l-8.065,-2.091c-0.403,-0.111 -0.82,-0.16 -1.237,-0.147Zm91.846,4.02l9.179,0c-1.068,2.686 -2.057,5.493 -4.118,7.577c-2.802,2.833 -6.661,4.923 -13.566,4.923l-5.363,0c0.592,-4.24 1.736,-7.41 3.492,-9.13c2.33,-2.284 5.739,-3.37 10.376,-3.37Zm81.575,0c4.233,0 7.964,1.249 11.06,2.263c-1.903,3.256 -3.516,6.66 -5.518,9.049c-0.564,0.674 -1.179,1.285 -1.839,1.864c-0.069,0.047 -0.137,0.096 -0.204,0.146c-1.77,1.428 -4.004,2.569 -7.462,3.068c-0.104,0.015 -0.211,0.028 -0.317,0.041c-1.135,0.148 -2.381,0.236 -3.801,0.236c-1.077,0 -1.983,-0.106 -2.791,-0.268c-0.365,-0.075 -0.65,-0.193 -0.969,-0.293c-0.382,-0.12 -0.785,-0.233 -1.106,-0.383c-0.293,-0.135 -0.53,-0.295 -0.782,-0.447c-0.291,-0.181 -0.596,-0.357 -0.838,-0.554c-0.109,-0.086 -0.209,-0.165 -0.309,-0.252c-0.343,-0.309 -0.661,-0.626 -0.928,-0.936c-0.003,-0.003 -0.005,-0.005 -0.008,-0.008c-0.61,-0.71 -0.719,-1.013 -0.871,-1.327c0.022,-0.725 0.163,-2.886 1.742,-5.297l0.008,-0.009c0.951,-1.449 2.42,-2.986 4.695,-4.362c1.226,-0.738 3.245,-1.562 5.722,-2.05c0.043,-0.011 0.086,-0.021 0.13,-0.033c1.338,-0.258 2.77,-0.448 4.386,-0.448Zm-177.539,16.683c-2.2,0.116 -3.948,1.958 -3.948,4.162c-0,2.106 1.596,3.897 3.688,4.139l8.26,1.099c0.206,0.031 0.414,0.047 0.623,0.047c2.286,-0 4.167,-1.881 4.167,-4.167c0,-2.108 -1.598,-3.9 -3.692,-4.14l-8.268,-1.099c-0.275,-0.041 -0.553,-0.055 -0.83,-0.041Zm82.398,4.517c6.32,0.381 11.316,1.262 14.062,3.174c2.99,2.081 4.638,5.926 5.379,12.288c-2.547,-0.829 -5.093,-1.717 -8.439,-2.457c-6.119,-1.357 -8.742,-5.3 -10.311,-9.473c-0.69,-1.837 -0.477,-2.121 -0.691,-3.532Zm100.26,0.838c3.065,3.507 5.138,7.739 6.291,11.296l-11.304,-0c-9.291,-0 -12.75,-3.68 -14.828,-7.471c-0.606,-1.106 -0.475,-1.415 -0.651,-2.238c2.086,0.812 4.489,1.375 7.292,1.375c5.38,0 9.717,-1.164 13.2,-2.962Zm-184.343,15.536c-2.198,0.118 -3.944,1.959 -3.944,4.161c0,2.226 1.785,4.08 4.01,4.164l8.325,0.35c0.085,0.005 0.171,0.008 0.257,0.008c2.286,-0 4.167,-1.881 4.167,-4.167c-0,-2.251 -1.824,-4.116 -4.074,-4.166l-8.325,-0.35c-0.139,-0.007 -0.277,-0.007 -0.416,-0Zm-0.122,20.76c-0.019,-0 -0.039,-0.001 -0.059,-0.001c-2.286,0 -4.167,1.881 -4.167,4.167c0,2.286 1.881,4.168 4.167,4.168c0.02,-0 0.04,-0.001 0.059,-0.001l8.334,0c0.019,0 0.039,0.001 0.059,0.001c2.286,-0 4.167,-1.882 4.167,-4.168c-0,-2.286 -1.881,-4.167 -4.167,-4.167c-0.02,0 -0.04,0.001 -0.059,0.001l-8.334,-0Z" style="fill:#f0f0f0;fill-rule:nonzero;"/></g><g><circle cx="1164" cy="1050.21" r="307.397" style="fill:none;stroke:#f0f0f0;stroke-width:14.58px;"/><path d="M1089,916.877c-4.589,-0 -8.333,3.743 -8.333,8.333l0,50c0,4.59 3.744,8.333 8.333,8.333l13.33,0c0.033,1.514 -0.211,3.809 -1.302,6.983c-0.504,1.464 -0.146,3.076 0.912,4.215c0.797,0.846 1.904,1.302 3.027,1.302c0.375,0 0.749,-0.049 1.107,-0.146c11.93,-3.288 17.969,-9.147 20.508,-12.354l20.752,0l-0,8.334c-0,4.589 3.743,8.333 8.333,8.333l45.557,-0c2.457,3.597 8.382,10.01 20.28,12.419c0.276,0.065 0.553,0.081 0.83,0.081c1.22,-0 2.409,-0.537 3.206,-1.498c0.977,-1.188 1.237,-2.799 0.651,-4.231c-1.367,-3.386 -1.416,-5.567 -1.253,-6.771l14.062,-0c4.59,-0 8.334,-3.727 8.334,-8.333l-0,-50c-0,-4.59 -3.744,-8.334 -8.334,-8.334l-50,0l0,-8.333c0,-4.59 -3.743,-8.333 -8.333,-8.333l-91.667,-0Zm0,8.333l91.667,-0l0,50l-56.25,-0c-1.514,-0 -2.93,0.879 -3.662,2.197c-0.13,0.212 -2.588,4.476 -10.14,8.008c0.342,-4.883 -0.977,-7.52 -1.367,-8.154c-0.749,-1.27 -2.1,-2.051 -3.581,-2.051l-16.667,-0l0,-50Zm100,16.667l50,-0l0,50l-16.666,-0c-1.074,-0 -2.1,0.406 -2.865,1.155c-0.439,0.407 -3.239,3.32 -2.881,9.326c-6.868,-3.141 -9.082,-7.763 -9.179,-7.959c-0.651,-1.53 -2.165,-2.522 -3.825,-2.522l-47.917,-0l0,-8.334l25,0c4.59,0 8.333,-3.743 8.333,-8.333l0,-33.333Zm-72.965,74.869c-6.038,0 -14.86,1.758 -20.785,5.599c-10.742,0.603 -18.359,8.48 -19.547,20.427c-0.733,7.275 -0.033,12.679 0.374,15.901c0.13,0.993 0.277,2.214 0.277,2.491c-0.049,0.195 -0.081,0.374 -0.114,0.569c-0.114,0.033 -0.228,0.049 -0.342,0.082c-5.452,1.465 -7.747,8.74 -5.452,17.301c1.546,5.746 4.655,10.042 8.252,11.703c2.002,5.892 4.915,11.588 8.512,16.683l-47.038,30.403c-5.957,3.858 -9.505,10.401 -9.505,17.497l0,16.455c0,6.445 5.241,11.686 11.686,11.686l242.936,0c6.462,0 11.703,-5.241 11.703,-11.702l-0,-16.439c-0,-7.096 -3.565,-13.639 -9.522,-17.497l-43.994,-28.45c4.151,-5.404 7.618,-11.849 9.912,-18.653c3.597,-1.66 6.706,-5.94 8.252,-11.686c2.295,-8.577 0,-15.853 -5.452,-17.318c-0.098,-0.016 -0.228,-0.048 -0.342,-0.065c-0.358,-2.164 -0.911,-4.28 -1.741,-6.771c0.406,0.114 0.813,0.261 1.171,0.407c1.433,0.603 3.093,0.358 4.281,-0.634c1.188,-0.993 1.725,-2.572 1.4,-4.086c-4.639,-21.24 -20.394,-33.903 -42.139,-33.903l-2.783,0c-6.038,0 -14.86,1.758 -20.785,5.599c-10.742,0.586 -18.359,8.48 -19.547,20.427c-0.733,7.275 -0.033,12.679 0.374,15.901c0.13,0.993 0.277,2.214 0.277,2.474c-0.049,0.196 -0.081,0.391 -0.114,0.586c-0.114,0.017 -0.228,0.049 -0.342,0.082c-5.452,1.465 -7.747,8.74 -5.452,17.301c1.546,5.746 4.655,10.042 8.252,11.703c2.002,5.892 4.915,11.572 8.512,16.666l-23.389,15.137l-20.345,-13.167c4.151,-5.404 7.618,-11.849 9.912,-18.636c3.597,-1.661 6.706,-5.957 8.252,-11.703c2.295,-8.577 0,-15.853 -5.452,-17.318c-0.098,-0.016 -0.228,-0.048 -0.342,-0.065c-0.358,-2.164 -0.911,-4.28 -1.741,-6.771c0.406,0.131 0.813,0.261 1.171,0.407c1.433,0.603 3.093,0.358 4.281,-0.634c1.188,-0.993 1.725,-2.572 1.4,-4.086c-4.639,-21.224 -20.394,-33.903 -42.139,-33.903l-2.783,0Zm-0,8.334l2.783,-0c15.544,-0 26.953,7.584 32.129,21.077c-1.562,0.114 -3.06,0.619 -4.264,1.758c-1.107,1.074 -2.735,3.516 -1.123,7.878c1.66,4.524 2.246,7.177 2.425,10.937c0.065,1.481 1.058,2.751 2.392,3.418c1.042,0.553 2.36,0.57 3.467,0.13c0.342,1.14 0.586,3.483 -0.26,6.673c-1.123,4.183 -3.142,6.104 -3.5,6.267c-1.839,-0 -3.466,1.22 -3.987,2.994c-3.044,10.271 -9.115,19.76 -16.211,25.359c-1.807,1.432 -2.1,4.036 -0.684,5.843c0.814,1.041 2.035,1.595 3.272,1.595c0.911,-0 1.823,-0.293 2.571,-0.895c0.944,-0.749 1.872,-1.563 2.784,-2.409l18.326,11.865l-7.324,4.736c-1.92,1.254 -2.474,3.825 -1.237,5.762c0.798,1.237 2.149,1.904 3.516,1.904c0.765,0 1.562,-0.211 2.262,-0.667l39.258,-25.423l1.725,1.758c1.628,1.643 4.265,1.643 5.908,0.032c1.628,-1.627 1.644,-4.264 0.017,-5.892l-3.923,-3.955c-4.557,-5.452 -8.235,-12.418 -10.384,-19.613c-0.521,-1.774 -1.937,-2.962 -3.776,-2.962c-0.57,-0.195 -2.588,-2.132 -3.695,-6.299c-0.862,-3.173 -0.618,-5.485 -0.293,-6.624c1.14,0.505 2.474,0.488 3.63,-0.081c1.318,-0.684 2.181,-2.035 2.262,-3.516c0.049,-1.4 0.212,-2.783 0.456,-4.134c0.244,-1.4 0.049,-2.897 -0.228,-4.964c-0.39,-3.076 -0.976,-7.699 -0.342,-14.046c0.814,-8.22 5.404,-12.94 12.614,-12.94c0.896,0 1.774,-0.293 2.491,-0.83c3.548,-2.653 10.986,-4.736 16.943,-4.736l2.783,-0c15.527,-0 26.953,7.584 32.113,21.077c-1.563,0.114 -3.06,0.619 -4.248,1.758c-1.123,1.074 -2.751,3.516 -1.14,7.878c1.661,4.524 2.263,7.177 2.426,10.937c0.065,1.481 1.057,2.751 2.392,3.434c1.058,0.537 2.36,0.57 3.483,0.131c0.342,1.139 0.586,3.466 -0.26,6.656c-1.123,4.183 -3.142,6.104 -3.5,6.267c-1.839,-0 -3.466,1.22 -3.987,2.994c-3.06,10.271 -9.115,19.76 -16.211,25.359c-1.807,1.432 -2.116,4.052 -0.7,5.859c0.83,1.042 2.051,1.579 3.288,1.579c0.895,-0 1.806,-0.293 2.571,-0.895c0.944,-0.749 1.872,-1.547 2.784,-2.393l45.1,29.183c3.581,2.311 5.713,6.234 5.713,10.498l0,16.439l0.017,-0c-0,1.855 -1.514,3.369 -3.37,3.369l-242.936,-0c-1.839,-0 -3.353,-1.514 -3.353,-3.369l0,-16.439c0,-4.264 2.133,-8.187 5.713,-10.498l47.933,-31.022l1.726,1.758c1.627,1.643 4.264,1.643 5.891,0.032c1.644,-1.627 1.661,-4.264 0.033,-5.892l-3.939,-3.955c-4.541,-5.452 -8.235,-12.435 -10.368,-19.629c-0.537,-1.774 -1.937,-2.946 -3.776,-2.946c-0.586,-0.195 -2.588,-2.132 -3.711,-6.299c-0.846,-3.173 -0.618,-5.485 -0.293,-6.624c1.156,0.505 2.491,0.488 3.63,-0.098c1.335,-0.683 2.197,-2.018 2.262,-3.499c0.065,-1.4 0.212,-2.783 0.456,-4.134c0.244,-1.4 0.049,-2.897 -0.212,-4.964c-0.39,-3.076 -0.976,-7.699 -0.358,-14.046c0.83,-8.22 5.404,-12.94 12.614,-12.94c0.896,0 1.791,-0.293 2.507,-0.83c3.548,-2.669 10.986,-4.736 16.927,-4.736Zm-56.201,125.13c-2.295,-0 -4.167,1.872 -4.167,4.167l0,8.333c0,2.295 1.872,4.167 4.167,4.167c2.295,-0 4.166,-1.872 4.166,-4.167l0,-8.333c0,-2.295 -1.871,-4.167 -4.166,-4.167Zm20.833,-0c-2.295,-0 -4.167,1.872 -4.167,4.167l0,8.333c0,2.295 1.872,4.167 4.167,4.167c2.295,-0 4.167,-1.872 4.167,-4.167l-0,-8.333c-0,-2.295 -1.872,-4.167 -4.167,-4.167Zm20.833,-0c-2.295,-0 -4.166,1.872 -4.166,4.167l-0,8.333c-0,2.295 1.871,4.167 4.166,4.167c2.295,-0 4.167,-1.872 4.167,-4.167l0,-8.333c0,-2.295 -1.872,-4.167 -4.167,-4.167Zm20.834,-0c-2.295,-0 -4.167,1.872 -4.167,4.167l0,8.333c0,2.295 1.872,4.167 4.167,4.167c2.295,-0 4.166,-1.872 4.166,-4.167l0,-8.333c0,-2.295 -1.871,-4.167 -4.166,-4.167Zm20.833,-0c-2.295,-0 -4.167,1.872 -4.167,4.167l0,8.333c0,2.295 1.872,4.167 4.167,4.167c2.295,-0 4.167,-1.872 4.167,-4.167l-0,-8.333c-0,-2.295 -1.872,-4.167 -4.167,-4.167Zm20.833,-0c-2.295,-0 -4.166,1.872 -4.166,4.167l-0,8.333c-0,2.295 1.871,4.167 4.166,4.167c2.295,-0 4.167,-1.872 4.167,-4.167l0,-8.333c0,-2.295 -1.872,-4.167 -4.167,-4.167Zm20.834,-0c-2.295,-0 -4.167,1.872 -4.167,4.167l0,8.333c0,2.295 1.872,4.167 4.167,4.167c2.295,-0 4.166,-1.872 4.166,-4.167l0,-8.333c0,-2.295 -1.871,-4.167 -4.166,-4.167Zm20.833,-0c-2.295,-0 -4.167,1.872 -4.167,4.167l0,8.333c0,2.295 1.872,4.167 4.167,4.167c2.295,-0 4.167,-1.872 4.167,-4.167l-0,-8.333c-0,-2.295 -1.872,-4.167 -4.167,-4.167Zm20.833,-0c-2.295,-0 -4.166,1.872 -4.166,4.167l-0,8.333c-0,2.295 1.871,4.167 4.166,4.167c2.295,-0 4.167,-1.872 4.167,-4.167l0,-8.333c0,-2.295 -1.872,-4.167 -4.167,-4.167Zm20.834,-0c-2.295,-0 -4.167,1.872 -4.167,4.167l0,8.333c0,2.295 1.872,4.167 4.167,4.167c2.295,-0 4.166,-1.872 4.166,-4.167l0,-8.333c0,-2.295 -1.871,-4.167 -4.166,-4.167Zm20.833,-0c-2.295,-0 -4.167,1.872 -4.167,4.167l0,8.333c0,2.295 1.872,4.167 4.167,4.167c2.295,-0 4.167,-1.872 4.167,-4.167l-0,-8.333c-0,-2.295 -1.872,-4.167 -4.167,-4.167Z" style="fill:#f0f0f0;fill-rule:nonzero;"/></g><g><circle cx="739.342" cy="1295.38" r="307.397" style="fill:none;stroke:#f0f0f0;stroke-width:14.58px;"/><path d="M703.925,1187.05c-14.907,0 -27.083,12.177 -27.083,27.084c0,14.907 12.176,27.083 27.083,27.083c14.296,-0 25.792,-11.292 26.734,-25.358c0.238,-0.544 0.357,-1.132 0.35,-1.725c0.005,-0.588 -0.114,-1.171 -0.35,-1.709c-0.934,-14.074 -12.432,-25.375 -26.734,-25.375Zm70.834,0c-14.907,0 -27.084,12.177 -27.084,27.084c0,14.907 12.177,27.083 27.084,27.083c14.296,-0 25.791,-11.292 26.733,-25.358c0.238,-0.544 0.358,-1.132 0.35,-1.725c0.005,-0.588 -0.114,-1.171 -0.35,-1.709c-0.934,-14.074 -12.432,-25.375 -26.733,-25.375Zm-70.834,8.334c10.402,-0 18.75,8.348 18.75,18.75c0,10.401 -8.348,18.75 -18.75,18.75c-10.401,-0 -18.75,-8.349 -18.75,-18.75c0,-10.402 8.349,-18.75 18.75,-18.75Zm70.834,-0c10.401,-0 18.75,8.348 18.75,18.75c-0,10.401 -8.349,18.75 -18.75,18.75c-10.402,-0 -18.75,-8.349 -18.75,-18.75c-0,-10.402 8.348,-18.75 18.75,-18.75Zm-118.75,45.833c-16.057,-0 -29.167,13.11 -29.167,29.167c0,16.057 13.11,29.166 29.167,29.166c15.446,0 27.87,-12.225 28.816,-27.441c0.239,-0.544 0.358,-1.132 0.35,-1.725c0.007,-0.591 -0.112,-1.176 -0.35,-1.718c-0.941,-15.219 -13.368,-27.449 -28.816,-27.449Zm166.666,-0c-16.057,-0 -29.166,13.11 -29.166,29.167c-0,16.057 13.109,29.166 29.166,29.166c15.446,0 27.871,-12.225 28.817,-27.441c0.238,-0.544 0.358,-1.132 0.35,-1.725c0.006,-0.591 -0.113,-1.176 -0.35,-1.718c-0.942,-15.219 -13.368,-27.449 -28.817,-27.449Zm-166.666,8.333c11.551,0 20.833,9.282 20.833,20.834c0,11.551 -9.282,20.833 -20.833,20.833c-11.552,-0 -20.834,-9.282 -20.834,-20.833c0,-11.552 9.282,-20.834 20.834,-20.834Zm166.666,0c11.552,0 20.834,9.282 20.834,20.834c-0,11.551 -9.282,20.833 -20.834,20.833c-11.551,-0 -20.833,-9.282 -20.833,-20.833c0,-11.552 9.282,-20.834 20.833,-20.834Zm-83.333,20.834c-18.357,-0 -33.333,14.976 -33.333,33.333c-0,18.357 14.976,33.333 33.333,33.333c17.746,0 32.032,-14.092 32.983,-31.608c0.239,-0.543 0.358,-1.132 0.35,-1.725c0.006,-0.588 -0.114,-1.17 -0.35,-1.709c-0.943,-17.524 -15.231,-31.624 -32.983,-31.624Zm0,8.333c13.851,-0 25,11.149 25,25c0,13.851 -11.149,25 -25,25c-13.851,-0 -25,-11.149 -25,-25c0,-13.851 11.149,-25 25,-25Zm-83.333,25c-33.631,-0 -45.549,29.443 -45.549,29.443c-0.188,0.483 -0.285,0.996 -0.285,1.514l0,10.71c0.001,2.285 1.881,4.166 4.167,4.166l83.333,0c2.286,0 4.167,-1.881 4.167,-4.166l0,-10.71c0,-0.518 -0.097,-1.031 -0.285,-1.514c0,0 -11.917,-29.443 -45.548,-29.443Zm166.666,-0c-33.631,-0 -45.548,29.443 -45.548,29.443c-0.188,0.483 -0.285,0.996 -0.285,1.514l0,10.71c0,2.285 1.881,4.166 4.167,4.166l83.333,0c2.286,0 4.167,-1.881 4.167,-4.166l-0,-10.71c-0,-0.518 -0.097,-1.031 -0.285,-1.514c-0,0 -11.917,-29.443 -45.549,-29.443Zm-166.666,8.333c27.761,0 36.826,21.839 37.5,23.552l-0,5.615l-75,-0l-0,-5.615c0.673,-1.713 9.739,-23.552 37.5,-23.552Zm166.666,0c27.761,0 36.827,21.839 37.5,23.552l0,5.615l-75,-0l0,-5.615c0.674,-1.713 9.739,-23.552 37.5,-23.552Zm-83.333,33.334c-44.782,-0 -62.174,40.462 -62.174,40.462c-0.216,0.513 -0.327,1.063 -0.326,1.619l0,16.252c0,2.286 1.881,4.166 4.167,4.167l116.666,-0c2.286,-0.001 4.167,-1.881 4.167,-4.167l0,-16.252c0.001,-0.556 -0.11,-1.106 -0.325,-1.619c-0,-0 -17.393,-40.462 -62.175,-40.462Zm0,8.333c38.688,-0 53.36,32.888 54.167,34.757l-0,11.076l-108.334,0l0,-11.076c0.807,-1.869 15.479,-34.757 54.167,-34.757Zm-33.333,20.833c-2.3,0 -4.167,1.867 -4.167,4.167l0,8.333c0,2.3 1.867,4.167 4.167,4.167c2.3,-0 4.166,-1.867 4.166,-4.167l0,-8.333c0,-2.3 -1.866,-4.167 -4.166,-4.167Zm20.833,0c-2.3,0 -4.167,1.867 -4.167,4.167l0,8.333c0,2.3 1.867,4.167 4.167,4.167c2.3,-0 4.167,-1.867 4.167,-4.167l-0,-8.333c-0,-2.3 -1.867,-4.167 -4.167,-4.167Zm25,0c-2.3,0 -4.167,1.867 -4.167,4.167l0,8.333c0,2.3 1.867,4.167 4.167,4.167c2.3,-0 4.167,-1.867 4.167,-4.167l-0,-8.333c-0,-2.3 -1.867,-4.167 -4.167,-4.167Zm20.833,0c-2.3,0 -4.166,1.867 -4.166,4.167l-0,8.333c-0,2.3 1.866,4.167 4.166,4.167c2.3,-0 4.167,-1.867 4.167,-4.167l0,-8.333c0,-2.3 -1.867,-4.167 -4.167,-4.167Z" style="fill:#f0f0f0;fill-rule:nonzero;"/></g><g><circle cx="314.689" cy="1050.21" r="307.397" style="fill:none;stroke:#f0f0f0;stroke-width:14.58px;"/><path d="M304.533,925.21c-5.762,-0 -10.743,3.89 -12.126,9.473l-7.21,28.71c-3.663,1.254 -7.357,2.8 -11.003,4.639l-25.439,-15.283c-4.932,-2.946 -11.198,-2.165 -15.267,1.888l-14.372,14.372c-4.069,4.052 -4.834,10.335 -1.888,15.267l15.25,25.439c-1.79,3.613 -3.336,7.324 -4.573,11.019l-28.744,7.194c-5.582,1.383 -9.472,6.38 -9.472,12.126l-0,20.312c-0,5.762 3.89,10.742 9.472,12.126l28.711,7.21c1.254,3.678 2.816,7.389 4.639,11.003l-15.283,25.439c-2.946,4.932 -2.181,11.198 1.888,15.267l14.372,14.372c4.069,4.069 10.335,4.834 15.267,1.888l25.439,-15.251c3.646,1.807 7.357,3.353 11.019,4.574l7.194,28.76c1.383,5.566 6.38,9.456 12.126,9.456l20.312,-0c5.762,-0 10.742,-3.89 12.126,-9.456l7.21,-28.728c3.662,-1.253 7.357,-2.799 11.003,-4.638l25.439,15.283c4.932,2.946 11.198,2.165 15.267,-1.888l14.372,-14.372c4.069,-4.053 4.834,-10.335 1.888,-15.267l-15.251,-25.439c1.79,-3.614 3.337,-7.325 4.574,-11.019l28.743,-7.194c5.583,-1.384 9.473,-6.38 9.473,-12.126l-0,-20.312c-0,-5.746 -3.89,-10.743 -9.457,-12.126l-28.727,-7.21c-1.253,-3.679 -2.816,-7.39 -4.639,-11.003l15.284,-25.439c2.946,-4.932 2.181,-11.198 -1.888,-15.267l-14.372,-14.372c-4.069,-4.069 -10.335,-4.834 -15.267,-1.888l-25.439,15.251c-3.646,-1.807 -7.357,-3.353 -11.019,-4.574l-7.194,-28.743c-1.384,-5.583 -6.381,-9.473 -12.126,-9.473l-20.312,-0Zm-0,8.333l20.312,0c1.921,0 3.581,1.302 4.036,3.158l7.194,28.743c0.684,2.718 2.702,4.916 5.42,5.843c3.304,1.123 6.657,2.539 9.978,4.183c2.571,1.286 5.55,1.156 7.991,-0.309l25.456,-15.251c1.644,-0.992 3.727,-0.732 5.078,0.619l14.372,14.355c1.351,1.368 1.611,3.467 0.618,5.095l-15.25,25.439c-1.465,2.442 -1.579,5.436 -0.31,8.008c1.644,3.288 3.044,6.641 4.183,9.977c0.928,2.702 3.125,4.737 5.843,5.404l28.728,7.194c1.871,0.472 3.173,2.132 3.173,4.053l0,20.312c0,1.921 -1.302,3.581 -3.157,4.037l-28.744,7.194c-2.718,0.683 -4.915,2.701 -5.843,5.42c-1.123,3.336 -2.539,6.689 -4.183,9.977c-1.269,2.571 -1.155,5.55 0.31,7.991l15.267,25.456c0.976,1.628 0.716,3.727 -0.619,5.078l-14.372,14.372c-1.367,1.351 -3.467,1.611 -5.094,0.618l-25.44,-15.25c-2.441,-1.465 -5.436,-1.579 -8.007,-0.31c-3.304,1.644 -6.657,3.044 -9.978,4.183c-2.701,0.928 -4.736,3.125 -5.403,5.844l-7.194,28.727c-0.472,1.871 -2.132,3.174 -4.053,3.174l-20.312,-0c-1.921,-0 -3.581,-1.303 -4.037,-3.158l-7.194,-28.743c-0.684,-2.719 -2.702,-4.916 -5.42,-5.844c-3.304,-1.123 -6.657,-2.539 -9.977,-4.183c-1.188,-0.585 -2.474,-0.878 -3.744,-0.878c-1.481,-0 -2.946,0.39 -4.248,1.188l-25.455,15.25c-1.628,0.993 -3.728,0.733 -5.078,-0.618l-14.372,-14.356c-1.351,-1.367 -1.612,-3.466 -0.619,-5.094l15.251,-25.439c1.465,-2.442 1.579,-5.437 0.309,-8.008c-1.644,-3.288 -3.043,-6.641 -4.183,-9.977c-0.927,-2.702 -3.125,-4.737 -5.843,-5.404l-28.743,-7.194c-1.856,-0.472 -3.158,-2.132 -3.158,-4.053l0,-20.312c0,-1.921 1.302,-3.581 3.158,-4.053l28.743,-7.194c2.718,-0.667 4.916,-2.702 5.843,-5.404c1.123,-3.336 2.539,-6.689 4.183,-9.977c1.27,-2.572 1.156,-5.566 -0.309,-8.008l-15.267,-25.439c-0.977,-1.628 -0.716,-3.727 0.618,-5.095l14.372,-14.355c1.351,-1.351 3.451,-1.611 5.095,-0.619l25.439,15.251c2.442,1.465 5.436,1.579 8.008,0.309c3.304,-1.644 6.657,-3.06 9.977,-4.183c2.702,-0.944 4.736,-3.125 5.404,-5.843l7.194,-28.743c0.472,-1.856 2.132,-3.158 4.053,-3.158Zm17.968,58.854c-2.23,-0.293 -4.362,1.302 -4.671,3.581c-0.309,2.279 1.286,4.378 3.564,4.688c2.995,0.39 5.958,1.074 8.838,2.002c0.424,0.13 0.847,0.211 1.27,0.211c1.758,0 3.402,-1.139 3.971,-2.881c0.716,-2.197 -0.488,-4.541 -2.669,-5.257c-3.353,-1.09 -6.803,-1.888 -10.303,-2.344Zm-20.133,1.091c-0.537,-0.081 -1.091,-0.065 -1.66,0.081c-26.107,6.413 -44.353,29.704 -44.353,56.641c0,21.647 11.882,41.422 31.039,51.562c0.618,0.342 1.302,0.489 1.953,0.489c1.497,-0 2.93,-0.798 3.678,-2.214c1.075,-2.034 0.31,-4.557 -1.725,-5.631c-16.406,-8.708 -26.611,-25.651 -26.611,-44.206c-0,-23.08 15.625,-43.05 38.021,-48.552c2.229,-0.553 3.597,-2.815 3.043,-5.045c-0.407,-1.677 -1.774,-2.865 -3.385,-3.125Zm50.618,14.258c-1.058,-0 -2.132,0.407 -2.946,1.22l-5.892,5.892c-1.627,1.628 -1.627,4.265 0,5.892c0.814,0.814 1.872,1.221 2.946,1.221c1.075,-0 2.133,-0.407 2.946,-1.221l5.892,-5.892c1.628,-1.627 1.628,-4.264 0,-5.892c-0.814,-0.813 -1.888,-1.22 -2.946,-1.22Zm-38.297,9.131c-18.376,-0 -33.334,14.957 -33.334,33.333c0,18.376 14.958,33.333 33.334,33.333c18.375,0 33.333,-14.957 33.333,-33.333c0,-18.376 -14.958,-33.333 -33.333,-33.333Zm49.853,8.007c-0.537,0 -1.09,0.098 -1.611,0.326l-7.682,3.255c-2.116,0.895 -3.109,3.353 -2.214,5.469c0.684,1.595 2.23,2.539 3.841,2.539c0.554,-0 1.091,-0.114 1.628,-0.326l7.682,-3.255c2.116,-0.911 3.093,-3.353 2.197,-5.469c-0.667,-1.595 -2.213,-2.555 -3.841,-2.539Zm-49.853,0.326c13.786,-0 25,11.214 25,25c-0,13.786 -11.214,25 -25,25c-13.786,-0 -25,-11.214 -25,-25c-0,-13.786 11.214,-25 25,-25Zm-0,16.667c-4.606,-0 -8.334,3.727 -8.334,8.333c0,4.606 3.728,8.333 8.334,8.333c4.606,0 8.333,-3.727 8.333,-8.333c0,-4.606 -3.727,-8.333 -8.333,-8.333Zm45.833,4.166c-2.295,0 -4.167,1.856 -4.167,4.167c0,2.311 1.872,4.167 4.167,4.167l8.333,-0c2.295,-0 4.167,-1.856 4.167,-4.167c0,-2.311 -1.872,-4.167 -4.167,-4.167l-8.333,0Zm-3.402,17.171c-1.627,0.033 -3.157,1.01 -3.808,2.605c-0.847,2.132 0.179,4.573 2.311,5.42l7.731,3.125c0.505,0.211 1.042,0.309 1.546,0.309c1.661,-0 3.223,-0.993 3.874,-2.604c0.863,-2.149 -0.163,-4.574 -2.311,-5.437l-7.715,-3.125c-0.537,-0.211 -1.09,-0.309 -1.628,-0.293Zm-10.026,15.235c-1.058,-0 -2.132,0.407 -2.946,1.221c-1.627,1.627 -1.627,4.264 0,5.891l5.892,5.892c0.814,0.814 1.872,1.221 2.946,1.221c1.075,0 2.132,-0.407 2.946,-1.221c1.628,-1.627 1.628,-4.264 0,-5.892l-5.892,-5.891c-0.813,-0.814 -1.888,-1.221 -2.946,-1.221Zm-14.502,9.782c-0.537,-0 -1.09,0.114 -1.627,0.325c-2.116,0.912 -3.109,3.353 -2.214,5.469l3.255,7.682c0.684,1.579 2.23,2.539 3.842,2.539c0.553,0 1.106,-0.114 1.627,-0.325c2.132,-0.912 3.109,-3.353 2.214,-5.469l-3.255,-7.682c-0.668,-1.595 -2.214,-2.539 -3.842,-2.539Zm-17.903,3.646c-2.295,-0 -4.167,1.855 -4.167,4.166l0,8.334c0,2.311 1.872,4.166 4.167,4.166c2.295,0 4.166,-1.855 4.166,-4.166l0,-8.334c0,-2.311 -1.871,-4.166 -4.166,-4.166Z" style="fill:#f0f0f0;fill-rule:nonzero;"/></g></svg>