<?xml version="1.0" encoding="UTF-8" standalone="no"?><!DOCTYPE svg PUBLIC "-//W3C//DTD SVG 1.1//EN" "http://www.w3.org/Graphics/SVG/1.1/DTD/svg11.dtd"><svg width="100%" height="100%" viewBox="0 0 268 274" version="1.1" xmlns="http://www.w3.org/2000/svg" xmlns:xlink="http://www.w3.org/1999/xlink" xml:space="preserve" xmlns:serif="http://www.serif.com/" style="fill-rule:evenodd;clip-rule:evenodd;stroke-linejoin:round;stroke-miterlimit:2;"><path d="M237.5,40.348c6.9,-0 12.5,5.6 12.5,12.5l-0,175c-0,6.9 -5.6,12.5 -12.5,12.5l-208.333,-0c-6.9,-0 -12.5,-5.6 -12.5,-12.5l-0,-175c-0,-6.904 5.6,-12.5 12.5,-12.5l208.333,-0Zm-0,8.333l-208.333,0c-2.296,0 -4.167,1.871 -4.167,4.167l-0,175c-0,2.296 1.871,4.166 4.167,4.166l208.333,0c2.296,0 4.167,-1.87 4.167,-4.166l-0,-137.5l-170.834,-0c-2.296,-0 -4.166,-1.871 -4.166,-4.167c-0,-2.296 1.87,-4.167 4.166,-4.167l170.834,0l-0,-29.166c-0,-2.296 -1.871,-4.167 -4.167,-4.167Zm-12.5,8.333c2.296,0 4.167,1.871 4.167,4.167l-0,8.333c-0,2.296 -1.871,4.167 -4.167,4.167c-2.296,0 -4.167,-1.871 -4.167,-4.167l0,-8.333c0,-2.296 1.871,-4.167 4.167,-4.167Zm-20.833,0c2.295,0 4.166,1.871 4.166,4.167l0,8.333c0,2.296 -1.871,4.167 -4.166,4.167c-2.296,0 -4.167,-1.871 -4.167,-4.167l-0,-8.333c-0,-2.296 1.871,-4.167 4.167,-4.167Zm-20.834,0c2.296,0 4.167,1.871 4.167,4.167l-0,8.333c-0,2.296 -1.871,4.167 -4.167,4.167c-2.296,0 -4.166,-1.871 -4.166,-4.167l-0,-8.333c-0,-2.296 1.87,-4.167 4.166,-4.167Zm-20.833,0c2.296,0 4.167,1.871 4.167,4.167l-0,8.333c-0,2.296 -1.871,4.167 -4.167,4.167c-2.296,0 -4.167,-1.871 -4.167,-4.167l0,-8.333c0,-2.296 1.871,-4.167 4.167,-4.167Zm-20.833,0c2.295,0 4.166,1.871 4.166,4.167l0,8.333c0,2.296 -1.871,4.167 -4.166,4.167c-2.296,0 -4.167,-1.871 -4.167,-4.167l-0,-8.333c-0,-2.296 1.871,-4.167 4.167,-4.167Zm-20.834,0c2.296,0 4.167,1.871 4.167,4.167l-0,8.333c-0,2.296 -1.871,4.167 -4.167,4.167c-2.296,0 -4.166,-1.871 -4.166,-4.167l-0,-8.333c-0,-2.296 1.87,-4.167 4.166,-4.167Zm-20.833,0c2.296,0 4.167,1.871 4.167,4.167l-0,8.333c-0,2.296 -1.871,4.167 -4.167,4.167c-2.296,0 -4.167,-1.871 -4.167,-4.167l0,-8.333c0,-2.296 1.871,-4.167 4.167,-4.167Zm-20.833,0c2.295,0 4.166,1.871 4.166,4.167l0,8.333c0,2.296 -1.871,4.167 -4.166,4.167c-2.296,0 -4.167,-1.871 -4.167,-4.167l-0,-8.333c-0,-2.296 1.871,-4.167 4.167,-4.167Zm-20.834,0c2.296,0 4.167,1.871 4.167,4.167l-0,8.333c-0,2.292 -1.871,4.167 -4.167,4.167c-2.296,0 -4.166,-1.871 -4.166,-4.167l-0,-8.333c-0,-2.296 1.87,-4.167 4.166,-4.167Zm-20.833,0c2.296,0 4.167,1.871 4.167,4.167l-0,8.333c-0,2.296 -1.871,4.167 -4.167,4.167c-2.296,0 -4.167,-1.871 -4.167,-4.167l0,-8.333c0,-2.296 1.871,-4.167 4.167,-4.167Zm16.667,25c2.295,0 4.166,1.871 4.166,4.167c0,2.296 -1.871,4.167 -4.166,4.167l-16.667,-0c-2.296,-0 -4.167,-1.871 -4.167,-4.167c0,-2.296 1.871,-4.167 4.167,-4.167l16.667,0Z" style="fill:#006353;fill-rule:nonzero;"/><path d="M229.84,125.236c-1.066,0 -2.132,0.406 -2.946,1.221l-29.191,29.199c-1.632,-0.782 -3.437,-1.253 -5.363,-1.253c-3.011,-0 -5.742,1.116 -7.902,2.897l-21.517,-12.907c0.163,-0.806 0.252,-1.637 0.252,-2.49c0,-6.892 -5.608,-12.5 -12.5,-12.5c-6.892,-0 -12.5,5.608 -12.5,12.5c0,1.693 0.347,3.303 0.96,4.777l-24.202,21.785c-1.772,-0.964 -3.77,-1.562 -5.925,-1.562c-3.87,-0 -7.291,1.81 -9.586,4.581l-23.755,-8.642c0,-0.036 0.008,-0.07 0.008,-0.106c0,-6.892 -5.608,-12.5 -12.5,-12.5c-6.892,0 -12.5,5.608 -12.5,12.5c0,1.928 0.478,3.731 1.261,5.363c-0.011,0.011 -0.029,0.013 -0.04,0.024l-16.667,16.667c-1.629,1.629 -1.629,4.263 0,5.892c0.813,0.812 1.879,1.221 2.946,1.221c1.067,-0 2.133,-0.409 2.946,-1.221l16.667,-16.667c0.011,-0.011 0.013,-0.029 0.024,-0.04c1.632,0.783 3.435,1.261 5.363,1.261c3.873,0 7.3,-1.806 9.595,-4.582l23.746,8.635c0,0.039 -0.008,0.075 -0.008,0.114c0,6.891 5.609,12.5 12.5,12.5c6.892,-0 12.5,-5.609 12.5,-12.5c0,-1.696 -0.345,-3.31 -0.96,-4.785l24.203,-21.778c1.771,0.965 3.769,1.563 5.924,1.563c3.014,-0 5.749,-1.114 7.91,-2.897l21.509,12.898c-0.165,0.808 -0.252,1.643 -0.252,2.499c-0,6.891 5.608,12.5 12.5,12.5c6.891,-0 12.5,-5.609 12.5,-12.5c-0,-1.924 -0.473,-3.725 -1.254,-5.355l29.2,-29.199c1.629,-1.63 1.629,-4.263 -0,-5.892c-0.815,-0.815 -1.881,-1.221 -2.946,-1.221Zm-79.167,12.5c2.296,0 4.167,1.867 4.167,4.167c-0,2.3 -1.871,4.166 -4.167,4.166c-2.296,0 -4.167,-1.866 -4.167,-4.166c0,-2.3 1.871,-4.167 4.167,-4.167Zm-87.5,20.833c2.296,0 4.167,1.867 4.167,4.167c-0,2.3 -1.871,4.167 -4.167,4.167c-2.296,-0 -4.167,-1.867 -4.167,-4.167c0,-2.3 1.871,-4.167 4.167,-4.167Zm129.167,4.167c2.296,0 4.166,1.867 4.166,4.167c0,2.3 -1.87,4.166 -4.166,4.166c-2.296,0 -4.167,-1.866 -4.167,-4.166c0,-2.3 1.871,-4.167 4.167,-4.167Zm-83.334,12.5c2.296,0 4.167,1.867 4.167,4.167c0,2.3 -1.871,4.166 -4.167,4.166c-2.295,0 -4.166,-1.866 -4.166,-4.166c-0,-2.3 1.871,-4.167 4.166,-4.167Z" style="fill:#fc9c19;fill-rule:nonzero;"/></svg>