<?xml version="1.0" encoding="UTF-8" standalone="no"?><!DOCTYPE svg PUBLIC "-//W3C//DTD SVG 1.1//EN" "http://www.w3.org/Graphics/SVG/1.1/DTD/svg11.dtd"><svg width="100%" height="100%" viewBox="0 0 267 267" version="1.1" xmlns="http://www.w3.org/2000/svg" xmlns:xlink="http://www.w3.org/1999/xlink" xml:space="preserve" xmlns:serif="http://www.serif.com/" style="fill-rule:evenodd;clip-rule:evenodd;stroke-linejoin:round;stroke-miterlimit:2;"><path d="M129.167,8.333c-66.634,0 -120.834,54.2 -120.834,120.834c0,66.634 54.2,120.833 120.834,120.833c66.634,0 120.833,-54.199 120.833,-120.833c0,-66.634 -54.199,-120.834 -120.833,-120.834Zm-0,8.334c62.028,-0 112.5,50.472 112.5,112.5c-0,62.028 -50.472,112.5 -112.5,112.5c-62.028,-0 -112.5,-50.472 -112.5,-112.5c-0,-62.028 50.472,-112.5 112.5,-112.5Zm-1.823,16.699c-24.561,0.488 -48.34,10.433 -65.934,28.027c-18.099,18.115 -28.077,42.171 -28.077,67.774c0,25.602 9.961,49.658 28.06,67.773c0.814,0.798 1.888,1.221 2.946,1.221c1.074,-0 2.149,-0.423 2.962,-1.221c1.628,-1.644 1.628,-4.264 0,-5.908c-16.536,-16.52 -25.634,-38.493 -25.634,-61.865c-0,-23.373 9.098,-45.345 25.634,-61.866c19.776,-19.791 48.096,-28.971 75.782,-24.528c2.295,0.375 4.41,-1.188 4.769,-3.45c0.358,-2.279 -1.189,-4.427 -3.451,-4.785c-5.697,-0.912 -11.393,-1.302 -17.057,-1.172Zm33.74,5.729c-1.611,0.081 -3.125,1.107 -3.727,2.718c-0.814,2.149 0.276,4.557 2.441,5.371c2.962,1.107 5.908,2.393 8.74,3.809c0.603,0.309 1.254,0.456 1.888,0.456c1.514,-0 2.979,-0.831 3.728,-2.295c1.025,-2.051 0.195,-4.558 -1.856,-5.599c-3.109,-1.563 -6.331,-2.963 -9.586,-4.183c-0.521,-0.196 -1.075,-0.293 -1.628,-0.277Zm24.056,13.721c-1.058,0.13 -2.067,0.651 -2.783,1.562c-1.416,1.807 -1.107,4.427 0.716,5.843c2.767,2.181 5.452,4.558 7.959,7.08c16.536,16.521 25.635,38.493 25.635,61.866c-0,23.372 -9.099,45.345 -25.635,61.865c-1.628,1.644 -1.628,4.264 -0,5.908c0.814,0.798 1.888,1.221 2.962,1.221c1.058,-0 2.132,-0.423 2.946,-1.221c18.099,-18.115 28.06,-42.171 28.06,-67.773c-0,-25.603 -9.961,-49.659 -28.06,-67.774c-2.767,-2.75 -5.697,-5.355 -8.724,-7.731c-0.911,-0.7 -2.018,-0.976 -3.076,-0.846Zm-60.14,22.184c-13.786,0 -25,11.214 -25,25l-0,4.932c-0,5.778 1.693,11.377 4.899,16.178l2.588,3.89l-3.32,0c-2.295,0 -4.167,1.872 -4.167,4.167c-0,2.295 1.872,4.166 4.167,4.166l8.333,0c0.049,0 0.081,-0.016 0.13,-0.016c2.621,5.192 4.037,10.905 4.037,16.797l-0,8.219l-16.667,0c-2.295,0 -4.167,1.872 -4.167,4.167c0,2.295 1.872,4.167 4.167,4.167l58.333,-0c2.295,-0 4.167,-1.872 4.167,-4.167c-0,-2.295 -1.872,-4.167 -4.167,-4.167l-33.333,0l-0,-8.219c-0,-9.082 -2.653,-17.871 -7.699,-25.423l-5.468,-8.203c-2.295,-3.435 -3.5,-7.422 -3.5,-11.556l0,-4.932c0,-9.196 7.471,-16.667 16.667,-16.667l8.333,0c9.196,0 16.667,7.471 16.667,16.667c-0,2.295 1.872,4.167 4.167,4.167c2.295,-0 4.166,-1.872 4.166,-4.167c0,-13.786 -11.214,-25 -25,-25l-8.333,0Zm8.333,50c-2.295,0 -4.166,1.872 -4.166,4.167c-0,2.295 1.871,4.166 4.166,4.166l12.5,0c2.295,0 4.167,-1.871 4.167,-4.166c-0,-2.295 -1.872,-4.167 -4.167,-4.167l-12.5,0Zm-44.271,68.311c-1.627,-0.196 -3.271,0.553 -4.117,2.05l-4.167,7.227c-1.156,1.986 -0.472,4.525 1.514,5.68c0.651,0.375 1.367,0.57 2.083,0.57c1.432,-0 2.832,-0.749 3.597,-2.083l4.167,-7.227c1.155,-1.986 0.488,-4.541 -1.514,-5.697c-0.505,-0.276 -1.025,-0.455 -1.563,-0.52Zm80.209,-0c-0.537,0.065 -1.058,0.244 -1.563,0.52c-2.002,1.156 -2.669,3.711 -1.513,5.713l4.166,7.211c0.765,1.334 2.165,2.083 3.597,2.083c0.716,-0 1.433,-0.179 2.084,-0.57c2.002,-1.139 2.669,-3.694 1.513,-5.68l-4.166,-7.21c-0.863,-1.498 -2.507,-2.263 -4.118,-2.067Zm-61.719,8.121c-1.595,0.228 -2.995,1.384 -3.45,3.06l-2.149,8.057c-0.602,2.213 0.733,4.492 2.946,5.094c0.358,0.098 0.733,0.147 1.091,0.147c1.839,-0 3.515,-1.237 4.02,-3.093l2.148,-8.056c0.602,-2.214 -0.716,-4.509 -2.929,-5.095c-0.57,-0.163 -1.14,-0.195 -1.677,-0.114Zm43.229,0c-0.537,-0.081 -1.107,-0.049 -1.676,0.114c-2.214,0.586 -3.532,2.881 -2.946,5.095l2.165,8.056c0.504,1.856 2.181,3.093 4.02,3.093c0.358,-0 0.716,-0.049 1.09,-0.147c2.214,-0.602 3.532,-2.881 2.946,-5.094l-2.148,-8.057c-0.456,-1.676 -1.856,-2.832 -3.451,-3.06Zm-21.614,2.735c-2.295,-0 -4.167,1.871 -4.167,4.166l-0,8.334c-0,2.295 1.872,4.166 4.167,4.166c2.295,0 4.166,-1.871 4.166,-4.166l0,-8.334c0,-2.295 -1.871,-4.166 -4.166,-4.166Z" style="fill:#006353;fill-rule:nonzero;"/><path d="M125,75c-13.786,0 -25,11.214 -25,25l0,4.932c0,5.778 1.693,11.377 4.899,16.178l2.588,3.89l-3.32,0c-2.295,0 -4.167,1.872 -4.167,4.167c0,2.295 1.872,4.166 4.167,4.166l8.333,0c0.049,0 0.081,-0.016 0.13,-0.016c2.621,5.192 4.037,10.905 4.037,16.797l-0,8.219l-16.667,0c-2.295,0 -4.167,1.872 -4.167,4.167c0,2.295 1.872,4.167 4.167,4.167l58.333,-0c2.295,-0 4.167,-1.872 4.167,-4.167c0,-2.295 -1.872,-4.167 -4.167,-4.167l-33.333,0l0,-8.219c0,-9.082 -2.653,-17.871 -7.699,-25.423l-5.468,-8.203c-2.295,-3.435 -3.5,-7.422 -3.5,-11.556l0,-4.932c0,-9.196 7.471,-16.667 16.667,-16.667l8.333,0c9.196,0 16.667,7.471 16.667,16.667c0,2.295 1.872,4.167 4.167,4.167c2.295,-0 4.166,-1.872 4.166,-4.167c0,-13.786 -11.214,-25 -25,-25l-8.333,0Zm8.333,50c-2.295,0 -4.166,1.872 -4.166,4.167c-0,2.295 1.871,4.166 4.166,4.166l12.5,0c2.295,0 4.167,-1.871 4.167,-4.166c0,-2.295 -1.872,-4.167 -4.167,-4.167l-12.5,0Z" style="fill:#fc9c19;fill-rule:nonzero;"/></svg>